<svg width="31" height="31" viewBox="0 0 31 31" fill="none" xmlns="http://www.w3.org/2000/svg">
<path d="M30.2408 0H28.2246V24.194H30.2408V0Z" fill="#004890"/>
<path d="M24.194 28.2256H0V30.2417H24.194V28.2256Z" fill="#004890"/>
<path d="M6.04937 16.1289H4.0332V26.2097H6.04937V16.1289Z" fill="#004890"/>
<path d="M12.0962 10.0801H10.0801V26.2094H12.0962V10.0801Z" fill="#004890"/>
<path d="M18.1451 4.03223H16.1289V12.0969H18.1451V4.03223Z" fill="#004890"/>
<path d="M24.1939 0H22.1777V12.097H24.1939V0Z" fill="#004890"/>
<path d="M20.1618 26.2093C18.9655 26.2093 17.7961 25.8546 16.8014 25.1899C15.8067 24.5253 15.0315 23.5807 14.5737 22.4755C14.1159 21.3702 13.9961 20.1541 14.2295 18.9808C14.4629 17.8075 15.0389 16.7298 15.8848 15.8839C16.7307 15.038 17.8085 14.4619 18.9818 14.2285C20.1551 13.9951 21.3712 14.1149 22.4764 14.5727C23.5816 15.0305 24.5263 15.8058 25.1909 16.8004C25.8555 17.7951 26.2103 18.9645 26.2103 20.1608C26.2103 21.765 25.573 23.3034 24.4387 24.4377C23.3044 25.572 21.7659 26.2093 20.1618 26.2093ZM20.1618 16.1285C19.3643 16.1285 18.5846 16.365 17.9215 16.808C17.2584 17.2511 16.7416 17.8809 16.4364 18.6177C16.1312 19.3545 16.0513 20.1653 16.2069 20.9475C16.3625 21.7297 16.7466 22.4482 17.3105 23.0121C17.8744 23.576 18.5929 23.9601 19.3751 24.1156C20.1573 24.2712 20.9681 24.1914 21.7049 23.8862C22.4417 23.581 23.0715 23.0642 23.5145 22.401C23.9576 21.7379 24.1941 20.9583 24.1941 20.1608C24.1941 19.0914 23.7693 18.0657 23.0131 17.3095C22.2569 16.5533 21.2312 16.1285 20.1618 16.1285Z" fill="#004890"/>
<path d="M23.8924 22.4747L22.4668 23.9004L28.5115 29.9451L29.9372 28.5195L23.8924 22.4747Z" fill="#004890"/>
</svg>
