<svg width="28" height="29" viewBox="0 0 28 29" fill="none" xmlns="http://www.w3.org/2000/svg">
<path d="M8.76002 10.2494H8.01456C7.87888 10.2606 7.74425 10.218 7.63967 10.1308C7.53508 10.0437 7.46893 9.91893 7.45546 9.78346H5.5918C5.60071 10.3156 5.78991 10.8289 6.12844 11.2396C6.46697 11.6502 6.93481 11.9338 7.45546 12.0441V13.0449H9.31912V12.0441C9.83977 11.9338 10.3076 11.6502 10.6461 11.2396C10.9847 10.8289 11.1739 10.3156 11.1828 9.78346C11.1696 9.15354 10.9071 8.55457 10.4529 8.11788C9.99877 7.68118 9.38997 7.4424 8.76002 7.45388H8.01456C7.9464 7.46613 7.87638 7.46326 7.80945 7.4455C7.74252 7.42774 7.6803 7.3955 7.62718 7.35107C7.57406 7.30664 7.53133 7.2511 7.50202 7.18836C7.4727 7.12563 7.45751 7.05722 7.45751 6.98797C7.45751 6.91872 7.4727 6.85031 7.50202 6.78757C7.53133 6.72484 7.57406 6.66929 7.62718 6.62487C7.6803 6.58044 7.74252 6.5482 7.80945 6.53044C7.87638 6.51268 7.9464 6.50981 8.01456 6.52205H8.76002C8.8957 6.51088 9.03033 6.55345 9.13491 6.6406C9.23949 6.72775 9.30565 6.8525 9.31912 6.98797H11.1828C11.1739 6.45585 10.9847 5.9425 10.6461 5.53186C10.3076 5.12122 9.83977 4.83759 9.31912 4.72735V3.72656H7.45546V4.72735C6.93481 4.83759 6.46697 5.12122 6.12844 5.53186C5.78991 5.9425 5.60071 6.45585 5.5918 6.98797C5.60501 7.61789 5.86748 8.21686 6.32164 8.65355C6.77581 9.09025 7.38461 9.32903 8.01456 9.31755H8.76002C8.82818 9.3053 8.89819 9.30817 8.96513 9.32593C9.03206 9.3437 9.09428 9.37593 9.1474 9.42036C9.20052 9.46479 9.24324 9.52033 9.27256 9.58307C9.30187 9.6458 9.31707 9.71421 9.31707 9.78346C9.31707 9.85271 9.30187 9.92112 9.27256 9.98386C9.24324 10.0466 9.20052 10.1021 9.1474 10.1466C9.09428 10.191 9.03206 10.2232 8.96513 10.241C8.89819 10.2588 8.82818 10.2616 8.76002 10.2494Z" fill="#004890"/>
<path d="M8.38647 16.773C10.0452 16.773 11.6666 16.2811 13.0458 15.3596C14.4249 14.4381 15.4998 13.1283 16.1346 11.5958C16.7693 10.0634 16.9354 8.37718 16.6118 6.75036C16.2882 5.12354 15.4895 3.62922 14.3166 2.45635C13.1437 1.28348 11.6494 0.484742 10.0226 0.161148C8.39578 -0.162446 6.70954 0.00363369 5.17711 0.638386C3.64468 1.27314 2.33489 2.34806 1.41338 3.7272C0.491858 5.10635 0 6.72779 0 8.38648C0.00246642 10.61 0.88683 12.7417 2.45907 14.3139C4.0313 15.8861 6.163 16.7705 8.38647 16.773ZM8.38647 1.86367C9.67657 1.86367 10.9377 2.24622 12.0104 2.96296C13.083 3.67969 13.9191 4.69842 14.4128 5.89031C14.9065 7.0822 15.0356 8.39372 14.784 9.65902C14.5323 10.9243 13.911 12.0866 12.9988 12.9988C12.0866 13.911 10.9243 14.5323 9.65901 14.784C8.39371 15.0356 7.08219 14.9065 5.8903 14.4128C4.69841 13.9191 3.67969 13.083 2.96295 12.0104C2.24622 10.9377 1.86366 9.67657 1.86366 8.38648C1.86563 6.65713 2.55349 4.99917 3.77633 3.77633C4.99917 2.5535 6.65712 1.86564 8.38647 1.86367Z" fill="#004890"/>
<path d="M20.502 10.25H22.2725C21.2475 15.389 11.8956 19.5683 0.933594 19.5683V27.9548C0.933594 28.2019 1.03177 28.4389 1.20652 28.6137C1.38127 28.7884 1.61829 28.8866 1.86542 28.8866H5.59275C5.83988 28.8866 6.0769 28.7884 6.25165 28.6137C6.4264 28.4389 6.52458 28.2019 6.52458 27.9548V21.0918C7.15698 21.0136 7.7782 20.9222 8.38824 20.8179V27.9548C8.38824 28.2019 8.48641 28.4389 8.66116 28.6137C8.83592 28.7884 9.07293 28.8866 9.32007 28.8866H13.0474C13.2945 28.8866 13.5315 28.7884 13.7063 28.6137C13.881 28.4389 13.9792 28.2019 13.9792 27.9548V19.4117C14.624 19.1894 15.2453 18.9502 15.8429 18.6942V27.9548C15.8429 28.2019 15.9411 28.4389 16.1158 28.6137C16.2906 28.7884 16.5276 28.8866 16.7747 28.8866H20.502C20.7492 28.8866 20.9862 28.7884 21.1609 28.6137C21.3357 28.4389 21.4339 28.2019 21.4339 27.9548V15.1589C22.8698 13.8771 23.8295 12.1468 24.1567 10.25H26.093C26.2523 10.2509 26.4091 10.2109 26.5485 10.1339C26.6879 10.057 26.8053 9.94555 26.8894 9.81032C26.9735 9.67509 27.0215 9.52057 27.0289 9.36149C27.0363 9.20241 27.0029 9.04409 26.9317 8.90163L24.1362 3.31065C24.0501 3.16624 23.928 3.04666 23.7818 2.96361C23.6356 2.88057 23.4703 2.83691 23.3022 2.83691C23.1341 2.83691 22.9688 2.88057 22.8226 2.96361C22.6764 3.04666 22.5543 3.16624 22.4682 3.31065L19.6727 8.90163C19.6019 9.04338 19.5684 9.20085 19.5753 9.35916C19.5823 9.51747 19.6295 9.67138 19.7125 9.80636C19.7956 9.94133 19.9116 10.0529 20.0498 10.1305C20.1879 10.2082 20.3436 10.2493 20.502 10.25ZM4.66092 27.0229H2.79725V21.3919C3.42624 21.3667 4.0487 21.3323 4.66092 21.2829V27.0229ZM12.1156 27.0229H10.2519V20.4554C10.8883 20.3147 11.5117 20.1619 12.1156 19.9895V27.0229ZM19.5702 27.0229H17.7065V17.7978C18.3484 17.4565 18.9706 17.0794 19.5702 16.6684V27.0229ZM23.2975 5.81075L24.5853 8.38633H22.0097L23.2975 5.81075Z" fill="#004890"/>
</svg>
