<svg width="161" height="43" viewBox="0 0 161 43" fill="none" xmlns="http://www.w3.org/2000/svg">
<g clip-path="url(#clip0_217_28539)">
<path d="M151.102 17.6303C151.441 17.6303 151.746 17.6303 151.746 17.2019C151.746 16.7735 151.449 16.8155 151.17 16.8155H150.619V17.6555L151.102 17.6303ZM150.619 19.1087H150.212V16.4795H151.229C151.856 16.4795 152.17 16.7063 152.17 17.2271C152.175 17.3203 152.162 17.4137 152.13 17.5016C152.098 17.5895 152.049 17.6701 151.985 17.7385C151.92 17.8068 151.843 17.8615 151.757 17.8993C151.67 17.937 151.577 17.9569 151.483 17.9579L152.237 19.1171H151.788L151.085 17.9747H150.619V19.1087ZM151.11 19.6967C151.492 19.705 151.868 19.6003 152.19 19.396C152.512 19.1916 152.765 18.8968 152.917 18.5492C153.069 18.2016 153.114 17.8169 153.044 17.4443C152.975 17.0717 152.795 16.728 152.528 16.4571C152.261 16.1862 151.918 16.0004 151.544 15.9234C151.17 15.8463 150.781 15.8816 150.427 16.0246C150.073 16.1676 149.77 16.4119 149.557 16.7263C149.343 17.0407 149.229 17.411 149.229 17.7899C149.221 18.0389 149.264 18.2869 149.355 18.5191C149.446 18.7513 149.584 18.9628 149.76 19.1409C149.935 19.319 150.146 19.46 150.378 19.5556C150.61 19.6511 150.859 19.6991 151.11 19.6967ZM148.772 17.7899C148.767 17.3303 148.899 16.8796 149.153 16.4951C149.407 16.1105 149.771 15.8094 150.198 15.6301C150.624 15.4507 151.096 15.4012 151.551 15.4878C152.006 15.5744 152.425 15.7932 152.755 16.1164C153.085 16.4396 153.31 16.8526 153.402 17.303C153.494 17.7534 153.45 18.2209 153.273 18.646C153.097 19.0711 152.797 19.4347 152.412 19.6906C152.027 19.9464 151.574 20.0831 151.11 20.0831C150.804 20.0876 150.5 20.0315 150.216 19.9181C149.932 19.8048 149.673 19.6364 149.456 19.4229C149.238 19.2094 149.065 18.9551 148.948 18.6747C148.83 18.3943 148.77 18.0935 148.772 17.7899Z" fill="black"/>
<path d="M28.4716 15.5215V29.4319H36.3775L35.3014 32.1703H25.0312V15.5215H28.4716Z" fill="black"/>
<path d="M94.5754 23.0647C96.787 22.2247 99.3376 20.4019 99.3376 17.2267C99.3376 13.3963 95.9481 11.4307 91.1605 11.4307H84.9238V32.1703H88.5929V23.6107H90.7791L96.5582 32.1535H100.795L94.5754 23.0647ZM90.4741 20.9983H88.5929V13.9003H90.8724C93.9568 13.9003 95.5498 14.8579 95.5498 17.3863C95.5498 20.1583 93.567 20.9983 90.4741 20.9983Z" fill="black"/>
<path d="M42.8678 15.5215L43.4779 16.8151L36.9531 32.1703H40.1562L41.5289 28.8103H48.9095L50.3924 32.1703H54.1632L46.7741 15.5215H42.8678ZM42.6135 26.2315L45.1557 20.0827L47.774 26.2315H42.6135Z" fill="black"/>
<path d="M18.6422 21.0489C19.6742 20.807 20.5927 20.2248 21.247 19.3975C21.9013 18.5703 22.2527 17.5472 22.2435 16.4961C22.2435 11.4561 16.1509 11.4561 14.1511 11.4561H7.55859V32.1705H13.8545C17.4389 32.1705 23.3874 31.2465 23.3874 26.1813C23.3874 23.3505 21.6927 21.5697 18.5998 21.0489M13.6258 13.9173C16.3712 13.9173 18.3117 14.2365 18.3117 16.7397C18.3117 20.0493 14.9222 19.8645 13.2275 19.8645H11.3633V13.9173H13.6258ZM13.7105 29.4321H11.3294V22.5777H13.4986C16.7949 22.5777 19.5065 23.0565 19.5065 26.0217C19.5065 28.9869 17.3203 29.4321 13.719 29.4321H13.7105Z" fill="black"/>
<path d="M69.1035 15.4961H72.5438V32.1701H69.1035V15.4961ZM79.8227 15.4961L72.7472 23.4845L79.8397 32.1533H83.8901L76.6536 23.2493L83.3139 15.4961H79.8227Z" fill="black"/>
<path d="M53.461 23.2995C53.461 28.7595 56.8081 32.4303 61.4517 32.4303C63.4697 32.514 65.4575 31.9223 67.0952 30.7503L66.2478 29.0703C65.0293 29.7294 63.6617 30.0705 62.2736 30.0615C59.2824 30.0615 57.1386 27.8691 57.1386 23.3415C57.1386 19.7127 58.4859 17.5287 61.1382 17.5287C61.7909 17.4703 62.4445 17.6317 62.9934 17.9868C63.5423 18.3419 63.9544 18.8701 64.1633 19.4859L67.1545 18.6459C66.8409 17.5119 65.3157 15.2188 60.9263 15.2188C56.8928 15.2188 53.4102 17.9235 53.4102 23.2575" fill="black"/>
<path d="M132.977 15.4961H136.425V32.1701H132.985L132.977 15.4961ZM143.696 15.4961L136.62 23.4845L143.713 32.1533H147.755L140.518 23.2493L147.178 15.4961H143.696Z" fill="black"/>
<path d="M117.225 23.3001C117.225 28.7601 120.572 32.4309 125.215 32.4309C127.233 32.5146 129.221 31.9229 130.859 30.7509L130.011 29.0709C128.793 29.73 127.425 30.0711 126.037 30.0621C123.055 30.0621 120.902 27.8697 120.902 23.3421C120.902 19.7133 122.25 17.5293 124.902 17.5293C125.563 17.467 126.226 17.6304 126.781 17.9924C127.335 18.3545 127.749 18.8934 127.952 19.5201L130.944 18.6801C130.63 17.5461 129.105 15.2529 124.715 15.2529C120.682 15.2529 117.199 17.9577 117.199 23.2917" fill="black"/>
<path d="M107.989 15.2607C103.422 15.2607 100.117 17.9907 100.117 23.8623C100.117 29.7339 103.278 32.4303 107.989 32.4303C112.701 32.4303 115.861 29.7087 115.861 23.8623C115.861 18.0159 112.557 15.2607 107.989 15.2607ZM107.989 30.1035C104.473 30.1035 103.693 27.2811 103.693 23.8623C103.693 20.4435 104.49 17.4783 107.989 17.4783C111.489 17.4783 112.277 20.4519 112.277 23.8623C112.277 27.2727 111.497 30.0951 107.989 30.0951V30.1035Z" fill="black"/>
</g>
<defs>
<clipPath id="clip0_217_28539">
<rect width="161" height="42" fill="white" transform="translate(0 0.930664)"/>
</clipPath>
</defs>
</svg>
