<svg width="19" height="22" viewBox="0 0 19 22" fill="none" xmlns="http://www.w3.org/2000/svg">
<path d="M15.7158 3.18555H14.7158V2.18555C14.7158 1.92033 14.6105 1.66598 14.4229 1.47844C14.2354 1.2909 13.981 1.18555 13.7158 1.18555C13.4506 1.18555 13.1962 1.2909 13.0087 1.47844C12.8212 1.66598 12.7158 1.92033 12.7158 2.18555V3.18555H6.71582V2.18555C6.71582 1.92033 6.61046 1.66598 6.42293 1.47844C6.23539 1.2909 5.98104 1.18555 5.71582 1.18555C5.4506 1.18555 5.19625 1.2909 5.00871 1.47844C4.82118 1.66598 4.71582 1.92033 4.71582 2.18555V3.18555H3.71582C2.92017 3.18555 2.15711 3.50162 1.5945 4.06423C1.03189 4.62684 0.71582 5.3899 0.71582 6.18555V18.1855C0.71582 18.9812 1.03189 19.7443 1.5945 20.3069C2.15711 20.8695 2.92017 21.1855 3.71582 21.1855H15.7158C16.5115 21.1855 17.2745 20.8695 17.8371 20.3069C18.3997 19.7443 18.7158 18.9812 18.7158 18.1855V6.18555C18.7158 5.3899 18.3997 4.62684 17.8371 4.06423C17.2745 3.50162 16.5115 3.18555 15.7158 3.18555ZM3.71582 5.18555H4.71582V6.18555C4.71582 6.45076 4.82118 6.70512 5.00871 6.89265C5.19625 7.08019 5.4506 7.18555 5.71582 7.18555C5.98104 7.18555 6.23539 7.08019 6.42293 6.89265C6.61046 6.70512 6.71582 6.45076 6.71582 6.18555V5.18555H12.7158V6.18555C12.7158 6.45076 12.8212 6.70512 13.0087 6.89265C13.1962 7.08019 13.4506 7.18555 13.7158 7.18555C13.981 7.18555 14.2354 7.08019 14.4229 6.89265C14.6105 6.70512 14.7158 6.45076 14.7158 6.18555V5.18555H15.7158C15.981 5.18555 16.2354 5.2909 16.4229 5.47844C16.6105 5.66598 16.7158 5.92033 16.7158 6.18555V10.1855H2.71582V6.18555C2.71582 5.92033 2.82118 5.66598 3.00871 5.47844C3.19625 5.2909 3.4506 5.18555 3.71582 5.18555ZM15.7158 19.1855H3.71582C3.4506 19.1855 3.19625 19.0802 3.00871 18.8927C2.82118 18.7051 2.71582 18.4508 2.71582 18.1855V12.1855H16.7158V18.1855C16.7158 18.4508 16.6105 18.7051 16.4229 18.8927C16.2354 19.0802 15.981 19.1855 15.7158 19.1855Z" fill="#DADADA" stroke="white" stroke-width="0.5"/>
</svg>
