<svg width="186" height="50" viewBox="0 0 186 50" fill="none" xmlns="http://www.w3.org/2000/svg">
<g clip-path="url(#clip0_217_28449)">
<path d="M33.2746 6.10547H8.41909C4.62367 6.10547 1.54688 9.18557 1.54688 12.9851V37.8673C1.54688 41.6668 4.62367 44.7469 8.41909 44.7469H33.2746C37.07 44.7469 40.1468 41.6668 40.1468 37.8673V12.9851C40.1468 9.18557 37.07 6.10547 33.2746 6.10547Z" fill="#8CB5E1"/>
<path d="M22.8193 44.2173H20.4013V24.2547L14.7038 23.2747V40.2581L12.1292 42.3259V22.2163L14.0871 22.5299V13.5629L4.01368 15.9639V29.0077H0V28.3707H3.35779V15.4543L14.6842 12.6907V22.6475L20.3915 23.6275V10.0153H24.4737V7.61426L33.5094 10.0545V15.0133L40.8417 17.1007L40.6655 17.7279L33.5192 15.6895V33.9175H30.4159V14.1117L32.9122 14.8173V10.5543L25.1785 8.46686V10.6719H21.0963V23.6961L22.8388 23.9803L22.8193 44.2173ZM21.0572 43.5607H22.1634V24.5389L21.0767 24.3625L21.0572 43.5607ZM12.8046 22.9807V40.9539L14.0675 39.9739V23.2061L12.8046 22.9807ZM31.0718 33.2707H32.9122V15.5033L31.0718 14.9839V33.2707Z" fill="white"/>
<path d="M57.3461 21.2558H57.8747V26.6164H57.3461C57.2262 26.0324 56.9825 25.481 56.6315 24.9994C55.998 25.7351 55.2092 26.3207 54.3221 26.7139C53.435 27.1071 52.4717 27.2981 51.5018 27.273C50.5073 27.3103 49.5158 27.1435 48.5881 26.7829C47.6605 26.4222 46.8164 25.8753 46.1078 25.1758C45.4084 24.4404 44.8656 23.5703 44.5122 22.6185C44.1588 21.6667 44.0022 20.653 44.052 19.6388C44.0499 18.1617 44.3847 16.7037 45.0309 15.3758C45.5979 14.1404 46.5355 13.1127 47.7133 12.4358C48.8659 11.7848 50.1686 11.447 51.492 11.4558C52.5615 11.4399 53.6192 11.682 54.5757 12.1614C55.3441 12.5208 56.0305 13.0345 56.5923 13.6706C56.9106 13.0598 57.1131 12.3953 57.1895 11.7106H57.7573L57.9237 17.522H57.395C57.0622 15.4379 56.3769 13.9875 55.3393 13.1708C54.3456 12.374 53.1077 11.9448 51.8346 11.9556C51.0896 11.9382 50.3522 12.1085 49.6902 12.451C49.0282 12.7935 48.4628 13.2972 48.0461 13.9156C47.0068 15.5817 46.5139 17.5314 46.6364 19.4918C46.5115 21.3727 47.056 23.2371 48.1734 24.7544C48.6267 25.3325 49.2069 25.7985 49.8689 26.1162C50.5309 26.434 51.2571 26.5951 51.9913 26.587C52.8562 26.5756 53.7082 26.3749 54.4876 25.999C55.3617 25.5891 56.0747 24.8995 56.514 24.039C56.9702 23.1746 57.2529 22.229 57.3461 21.2558Z" fill="#26336F"/>
<path d="M72.6182 22.2459H73.1468L72.8042 26.9891H60.1855V26.4109H60.4988C61.0083 26.4722 61.5238 26.3656 61.9672 26.1071C62.1894 25.9029 62.3375 25.6306 62.3882 25.3329C62.4704 24.5453 62.4998 23.753 62.4763 22.9613V15.5329C62.4952 14.7672 62.4625 14.0011 62.3784 13.2397C62.3655 13.0875 62.3204 12.9398 62.2462 12.8063C62.1719 12.6728 62.0702 12.5567 61.9477 12.4655C61.4954 12.2799 61.0052 12.2059 60.5184 12.2499V11.7109H71.3945L71.7665 15.5133H71.2379C71.1031 14.706 70.8032 13.9353 70.3568 13.2495C70.0521 12.8333 69.6128 12.5355 69.1135 12.4067C68.3519 12.266 67.5774 12.2068 66.8032 12.2303H64.6887V18.6199H66.304C66.8271 18.6487 67.3512 18.5823 67.8507 18.4239C67.9829 18.3749 68.1029 18.2978 68.2026 18.198C68.3023 18.0982 68.3793 17.9781 68.4283 17.8457C68.5316 17.3531 68.5646 16.8483 68.5262 16.3463H69.0548V21.5893H68.5262C68.5651 21.0091 68.4919 20.4269 68.3108 19.8743C68.2537 19.7415 68.1692 19.6223 68.063 19.5243C67.9567 19.4264 67.831 19.352 67.6941 19.3059C67.2419 19.2007 66.7775 19.1578 66.3138 19.1785H64.6495V22.7849C64.5454 23.8628 64.6654 24.9506 65.002 25.9797C65.2369 26.2999 65.8634 26.4599 66.8815 26.4599H68.0171C68.6819 26.4775 69.3446 26.378 69.975 26.1659C70.5823 25.9015 71.0994 25.4656 71.463 24.9115C72.0192 24.1075 72.4117 23.2018 72.6182 22.2459Z" fill="#26336F"/>
<path d="M88.0571 27.3909L77.2887 13.0633V23.6473C77.2607 24.2286 77.3034 24.811 77.416 25.3819C77.5572 25.7193 77.8189 25.9919 78.1502 26.1463C78.7214 26.4151 79.3507 26.5364 79.9808 26.4991V27.0283H74.2344V26.4109C74.8112 26.3957 75.3783 26.2588 75.8986 26.0091C76.2048 25.8729 76.4467 25.6236 76.5741 25.3133C76.6711 24.734 76.7072 24.146 76.6817 23.5591V15.5329C76.7123 14.7452 76.6565 13.9565 76.5153 13.1809C76.4889 13.0236 76.4289 12.8739 76.3394 12.742C76.2498 12.61 76.1328 12.499 75.9965 12.4165C75.4783 12.2689 74.9378 12.2158 74.4008 12.2597V11.7109H78.8942L87.9298 23.6669V14.5529C87.964 14.07 87.8939 13.5853 87.7243 13.1319C87.5298 12.8206 87.226 12.5933 86.8726 12.4949C86.3714 12.3263 85.8446 12.2467 85.3161 12.2597V11.7109H90.8765V12.2401C90.3511 12.2628 89.8354 12.3894 89.3591 12.6125C89.0446 12.7516 88.7932 13.0033 88.6543 13.3181C88.5326 13.7714 88.4831 14.241 88.5074 14.7097V27.3909H88.0571Z" fill="#26336F"/>
<path d="M92.265 15.4055H91.7363L91.8146 11.7109H106.616L106.695 15.3957H106.205C106.115 14.6313 105.875 13.8922 105.5 13.2201C105.281 12.8391 104.934 12.5477 104.521 12.3969C103.943 12.271 103.351 12.2183 102.759 12.2401H100.312V23.0201C100.295 23.8052 100.324 24.5906 100.4 25.3721C100.415 25.5353 100.464 25.6935 100.543 25.8369C100.622 25.9803 100.73 26.1056 100.86 26.2051C101.295 26.4252 101.784 26.517 102.27 26.4697H103.014V26.9989H95.378V26.4109H96.171C96.6382 26.4511 97.1077 26.3666 97.5317 26.1659C97.6621 26.0775 97.7728 25.9631 97.857 25.8299C97.9413 25.6967 97.9971 25.5475 98.0212 25.3917C98.1179 24.5855 98.1539 23.773 98.1289 22.9613V12.1813H95.8773C95.2216 12.1544 94.5649 12.2004 93.9194 12.3185C93.4971 12.4686 93.1473 12.7732 92.9404 13.1711C92.572 13.8647 92.3425 14.6238 92.265 15.4055Z" fill="#26336F"/>
<path d="M119.431 11.7109H124.502V12.2401C123.971 12.2441 123.454 12.4043 123.014 12.7007C122.716 12.9119 122.502 13.2203 122.407 13.5729C122.313 14.1954 122.277 14.8254 122.299 15.4545V20.5309C122.319 21.5135 122.267 22.4961 122.143 23.4709C122.014 24.1544 121.711 24.7927 121.262 25.3231C120.717 25.9762 120.012 26.4761 119.216 26.7735C118.245 27.15 117.211 27.3331 116.171 27.3125C114.981 27.3465 113.799 27.1085 112.715 26.6167C111.872 26.2453 111.167 25.6179 110.699 24.8233C110.256 23.909 110.047 22.8986 110.092 21.8833V15.5427C110.116 14.7571 110.08 13.9708 109.984 13.1907C109.967 13.0429 109.917 12.9006 109.84 12.7737C109.762 12.6468 109.658 12.5384 109.534 12.4557C109.052 12.2781 108.538 12.2078 108.026 12.2499H107.684V11.7109H114.673V12.2401H114.37C113.87 12.2023 113.367 12.2656 112.892 12.4263C112.767 12.5002 112.66 12.601 112.578 12.7213C112.497 12.8416 112.444 12.9785 112.422 13.1221C112.314 13.921 112.275 14.7275 112.304 15.5329V20.3349C112.267 21.5219 112.342 22.7098 112.529 23.8825C112.719 24.6351 113.183 25.2892 113.831 25.7151C114.67 26.2736 115.665 26.5484 116.67 26.4991C117.543 26.5127 118.408 26.3354 119.206 25.9797C119.875 25.7018 120.459 25.2523 120.899 24.6763C121.249 24.2019 121.48 23.6509 121.575 23.0691C121.675 22.204 121.718 21.3331 121.702 20.4623V15.2683C121.726 14.6603 121.676 14.0517 121.555 13.4553C121.459 13.111 121.235 12.8165 120.929 12.6321C120.459 12.39 119.939 12.2623 119.411 12.2597L119.431 11.7109Z" fill="#26336F"/>
<path d="M141.723 26.9886H137.641C136.354 25.8099 135.237 24.4576 134.322 22.9706C133.846 22.2781 133.35 21.6248 132.834 21.0106C132.521 20.5905 132.167 20.2031 131.777 19.8542C131.504 19.6971 131.19 19.6254 130.876 19.6484H130.269V23.0294C130.253 23.8145 130.282 24.5998 130.357 25.3814C130.373 25.542 130.421 25.6976 130.498 25.8391C130.576 25.9806 130.681 26.1049 130.808 26.2046C131.23 26.3967 131.698 26.4679 132.159 26.4104H132.883V26.9396H125.609V26.4104H126.099C126.56 26.4494 127.023 26.3649 127.44 26.1654C127.568 26.0759 127.675 25.9609 127.756 25.8277C127.837 25.6944 127.889 25.5458 127.91 25.3912C128 24.5844 128.032 23.7723 128.008 22.9608V15.5324C128.03 14.7468 127.994 13.9607 127.9 13.1804C127.885 13.0308 127.836 12.8866 127.756 12.7592C127.676 12.6317 127.568 12.5244 127.44 12.4454C126.945 12.2681 126.418 12.198 125.893 12.2396H125.629V11.7104L127.812 11.6026C129.267 11.5373 130.423 11.5046 131.277 11.5046C132.475 11.4725 133.671 11.6078 134.831 11.9064C135.676 12.1353 136.442 12.5931 137.043 13.2294C137.6 13.8266 137.902 14.6177 137.885 15.4344C137.892 15.9124 137.797 16.3864 137.609 16.8254C137.42 17.2645 137.14 17.6587 136.789 17.9824C135.884 18.7604 134.749 19.2215 133.558 19.2956C134.211 19.5831 135.239 20.6938 136.642 22.6276C137.399 23.7571 138.301 24.7818 139.324 25.6754C139.999 26.1676 140.81 26.4382 141.645 26.4496L141.723 26.9886ZM130.279 19.0898L132.012 19.0212C132.539 19.004 133.061 18.9217 133.568 18.7762C133.967 18.6735 134.333 18.4713 134.633 18.1885C134.932 17.9058 135.155 17.5517 135.281 17.1592C135.451 16.6578 135.53 16.1302 135.516 15.601C135.564 14.6705 135.28 13.7533 134.714 13.0138C134.178 12.3605 133.017 12.0338 131.229 12.0338C130.954 12.0338 130.628 12.0338 130.25 12.0338L130.279 19.0898Z" fill="#26336F"/>
<path d="M142.428 12.2597V11.7109H149.378V12.2401H149.055C148.558 12.202 148.059 12.2654 147.587 12.4263C147.464 12.5013 147.359 12.6025 147.279 12.7228C147.2 12.843 147.147 12.9794 147.127 13.1221C147.02 13.9178 146.981 14.7209 147.009 15.5231V22.9907C146.993 23.7758 147.022 24.5611 147.097 25.3427C147.113 25.5033 147.161 25.6589 147.238 25.8004C147.316 25.9419 147.421 26.0662 147.548 26.1659C147.976 26.3855 148.459 26.4773 148.938 26.4305H149.388V26.9597H142.438V26.4109H142.888C143.352 26.4512 143.818 26.3667 144.239 26.1659C144.368 26.0774 144.478 25.9628 144.56 25.8295C144.643 25.6962 144.697 25.5471 144.718 25.3917C144.808 24.5849 144.841 23.7728 144.816 22.9613V15.5329C144.84 14.7476 144.807 13.9616 144.718 13.1809C144.704 13.0322 144.656 12.8886 144.578 12.7612C144.5 12.6338 144.394 12.526 144.268 12.4459C143.79 12.2694 143.279 12.1992 142.77 12.2401L142.428 12.2597Z" fill="#26336F"/>
<path d="M151.159 19.2565C151.115 18.1958 151.304 17.1385 151.712 16.1584C152.119 15.1783 152.736 14.2991 153.518 13.5823C155.131 12.1448 157.233 11.3803 159.392 11.4459C161.571 11.3756 163.697 12.1316 165.343 13.5627C166.144 14.2899 166.773 15.1856 167.186 16.1854C167.599 17.1851 167.786 18.2641 167.732 19.3447C167.773 20.4076 167.59 21.4672 167.195 22.4548C166.8 23.4424 166.203 24.336 165.441 25.0777C163.766 26.4953 161.644 27.273 159.45 27.273C157.257 27.273 155.134 26.4953 153.459 25.0777C152.686 24.3257 152.081 23.4179 151.684 22.4144C151.288 21.4109 151.109 20.3345 151.159 19.2565ZM153.733 19.3349C153.589 21.2993 154.106 23.2554 155.202 24.8915C155.739 25.5248 156.418 26.0225 157.183 26.3443C157.949 26.6661 158.779 26.8029 159.607 26.7437C160.383 26.7764 161.156 26.6257 161.864 26.304C162.571 25.9822 163.193 25.4984 163.679 24.8915C164.791 23.2693 165.32 21.3168 165.177 19.3545C165.301 17.4153 164.781 15.4895 163.699 13.8763C163.16 13.2827 162.504 12.8084 161.771 12.4839C161.039 12.1593 160.246 11.9917 159.445 11.9917C158.644 11.9917 157.852 12.1593 157.12 12.4839C156.387 12.8084 155.73 13.2827 155.192 13.8763C154.102 15.4795 153.575 17.3995 153.694 19.3349H153.733Z" fill="#26336F"/>
<path d="M183.18 27.3909L172.412 13.0633V23.6473C172.384 24.2286 172.426 24.811 172.539 25.3819C172.683 25.721 172.948 25.9938 173.283 26.1463C173.854 26.4151 174.484 26.5364 175.114 26.4991V27.0283H169.357V26.4109C169.934 26.3957 170.501 26.2588 171.022 26.0091C171.328 25.8729 171.57 25.6236 171.697 25.3133C171.794 24.734 171.83 24.146 171.805 23.5591V15.5329C171.835 14.7452 171.78 13.9565 171.638 13.1809C171.612 13.0236 171.552 12.8739 171.462 12.742C171.373 12.61 171.256 12.499 171.12 12.4165C170.608 12.268 170.075 12.2115 169.543 12.2499V11.7109H174.037L183.063 23.6669V14.5529C183.097 14.07 183.027 13.5853 182.857 13.1319C182.663 12.8206 182.359 12.5933 182.005 12.4949C181.504 12.3263 180.977 12.2467 180.449 12.2597V11.7109H186V12.2401C185.474 12.2628 184.958 12.3894 184.482 12.6125C184.168 12.7516 183.916 13.0033 183.777 13.3181C183.656 13.7714 183.606 14.241 183.63 14.7097V27.3909H183.18Z" fill="#26336F"/>
<path d="M45.8248 37.6411C45.7373 37.853 45.6876 38.0785 45.6779 38.3075C45.6649 38.4344 45.6957 38.562 45.7652 38.669C45.8346 38.776 45.9386 38.8559 46.0597 38.8955C46.3142 39.0033 46.5688 38.9543 46.5688 39.1307C46.5688 39.3071 46.5002 39.2385 46.3436 39.2385C46.187 39.2385 45.8248 39.1503 45.2668 39.1503C44.7088 39.1503 44.4836 39.1503 44.2878 39.1503C44.092 39.1503 43.9941 39.1503 43.9941 39.0229C43.9941 38.8955 44.3074 38.9249 44.6892 38.7289C45.071 38.5329 45.2178 38.1801 45.4821 37.5333L48.0861 31.3201C48.1449 31.1829 48.2036 31.0947 48.2917 31.0947C48.3798 31.0947 48.4386 31.1731 48.5169 31.3397L51.0915 37.8371C51.2873 38.3271 51.4733 38.6407 51.7866 38.8171C52.0998 38.9935 52.4425 38.8857 52.4425 39.0621C52.4425 39.2385 52.3641 39.1797 52.2075 39.1797C51.8551 39.1797 51.3558 39.1797 50.7293 39.1797C50.2594 39.1797 49.7504 39.2483 49.3196 39.2483C49.1238 39.2483 49.0161 39.2483 49.0161 39.1209C49.0161 38.9935 49.1336 39.0033 49.3588 38.9739C49.7993 38.9151 49.9951 38.7975 49.9951 38.5525C49.9774 38.2963 49.9178 38.0447 49.8189 37.8077L49.2805 36.3867H46.3436L45.8248 37.6411ZM49.1728 36.0143L47.8708 32.6431L46.4709 36.0143H49.1728Z" fill="#8CB5E1"/>
<path d="M53.118 36.8474C53.3236 36.8474 53.2649 37.1904 53.4313 37.6412C53.5582 38.0641 53.8164 38.4356 54.1684 38.7017C54.5205 38.9678 54.9481 39.1147 55.3892 39.121C55.6931 39.1401 55.9962 39.0722 56.2631 38.9253C56.53 38.7785 56.7496 38.5586 56.8964 38.2915C57.0432 38.0243 57.111 37.7209 57.092 37.4166C57.073 37.1123 56.9679 36.8197 56.7891 36.573C56.2292 36.0432 55.5564 35.6477 54.8214 35.4166C54.3595 35.2739 53.9537 34.9904 53.6606 34.6056C53.3675 34.2208 53.2018 33.754 53.1865 33.2704C53.1908 32.9781 53.2552 32.6897 53.3758 32.4234C53.4964 32.1571 53.6705 31.9186 53.8873 31.7227C54.1041 31.5268 54.359 31.3778 54.6359 31.2849C54.9128 31.1921 55.2059 31.1574 55.4969 31.183C56.0953 31.2246 56.6771 31.3986 57.2002 31.6926C57.4058 31.6926 57.3764 31.2614 57.5624 31.2614C57.7484 31.2614 57.7093 31.3398 57.7093 31.5162C57.7093 31.6926 57.7093 31.9278 57.7093 32.2904C57.7093 32.653 57.7093 32.7706 57.7093 33.0058C57.7093 33.241 57.7093 33.3292 57.582 33.3292C57.4548 33.3292 57.4156 33.045 57.2198 32.604C57.0904 32.2651 56.8608 31.9738 56.5617 31.7689C56.2626 31.5641 55.9082 31.4554 55.5458 31.4574C55.3603 31.4366 55.1726 31.4554 54.9949 31.5126C54.8172 31.5697 54.6536 31.6638 54.5148 31.7888C54.3761 31.9138 54.2654 32.0668 54.19 32.2377C54.1146 32.4086 54.0762 32.5936 54.0774 32.7804C54.0774 33.6526 54.7724 33.9368 55.8591 34.417C57.4058 35.103 58.2281 35.7596 58.2281 37.0826C58.2051 37.4218 58.1137 37.7529 57.9595 38.0558C57.8053 38.3587 57.5913 38.6273 57.3306 38.8452C57.0699 39.0631 56.7679 39.226 56.4426 39.3239C56.1173 39.4218 55.7757 39.4528 55.4381 39.415C54.7251 39.3723 54.0331 39.1571 53.4215 38.7878C53.2551 38.7878 53.2355 39.1406 53.0789 39.1406C52.9222 39.1406 52.9614 39.1406 52.9614 38.974C52.9614 38.8074 53.0201 38.582 53.0201 38.1018C53.0201 37.6216 53.0201 37.3276 53.0201 37.1218C53.0201 36.916 53.0005 36.8474 53.118 36.8474Z" fill="#8CB5E1"/>
<path d="M59.2743 36.8472C59.4799 36.8472 59.4212 37.1902 59.5876 37.641C59.7145 38.064 59.9727 38.4354 60.3247 38.7015C60.6768 38.9676 61.1044 39.1145 61.5455 39.1208C61.8494 39.1399 62.1526 39.0721 62.4194 38.9252C62.6863 38.7783 62.906 38.5585 63.0527 38.2913C63.1995 38.0242 63.2673 37.7208 63.2483 37.4165C63.2293 37.1122 63.1243 36.8196 62.9454 36.5728C62.3574 36.03 61.6497 35.6338 60.8798 35.4164C60.4362 35.2573 60.0516 34.9667 59.777 34.5833C59.5024 34.1999 59.351 33.7419 59.3429 33.2702C59.3482 32.9769 59.4142 32.6879 59.5365 32.4213C59.6589 32.1547 59.835 31.9164 60.0538 31.7213C60.2727 31.5261 60.5295 31.3784 60.8081 31.2874C61.0867 31.1965 61.3811 31.1642 61.6728 31.1926C62.2713 31.2339 62.8531 31.408 63.3761 31.7022C63.5817 31.7022 63.5523 31.271 63.7383 31.271C63.9243 31.271 63.8852 31.3494 63.8852 31.5258C63.8852 31.7022 63.8852 31.9374 63.8852 32.3C63.8852 32.6626 63.8852 32.7802 63.8852 33.0154C63.8852 33.2506 63.8852 33.3388 63.7579 33.3388C63.6306 33.3388 63.5915 33.0546 63.3957 32.6136C63.2618 32.2686 63.0241 31.9738 62.7154 31.7701C62.4066 31.5664 62.0423 31.4639 61.6728 31.4768C61.4873 31.4561 61.2995 31.4749 61.1218 31.532C60.9441 31.5891 60.7805 31.6833 60.6418 31.8083C60.5031 31.9332 60.3924 32.0862 60.317 32.2571C60.2416 32.428 60.2032 32.613 60.2043 32.7998C60.2043 33.672 60.8994 33.9562 61.986 34.4364C63.5328 35.1224 64.3551 35.779 64.3551 37.102C64.3321 37.4413 64.2407 37.7723 64.0864 38.0752C63.9322 38.3782 63.7183 38.6467 63.4576 38.8646C63.1969 39.0826 62.8948 39.2454 62.5696 39.3433C62.2443 39.4413 61.9026 39.4723 61.5651 39.4344C60.8521 39.3917 60.1601 39.1765 59.5484 38.8072C59.382 38.8072 59.3624 39.16 59.2058 39.16C59.0492 39.16 59.0883 39.16 59.0883 38.9934C59.0883 38.8268 59.1471 38.6014 59.1471 38.1212C59.1471 37.641 59.1471 37.347 59.1471 37.1412C59.1471 36.9354 59.1569 36.8472 59.2743 36.8472Z" fill="#8CB5E1"/>
<path d="M68.9277 38.8954C69.9066 38.8954 70.5528 38.7484 70.8856 38.1702C71.2184 37.592 71.052 37.3666 71.2478 37.3666C71.4436 37.3666 71.3751 37.4744 71.3751 37.7194C71.3751 37.9644 71.3751 38.4936 71.3751 38.8954C71.3751 39.2972 71.3751 39.2188 70.9933 39.2188C70.7681 39.2188 69.3389 39.16 66.6663 39.16C65.6874 39.16 65.2371 39.2188 65.1392 39.2188C65.0413 39.2188 64.9336 39.2188 64.9336 39.0914C64.9336 38.964 65.3643 38.9934 65.6874 38.8366C66.0104 38.6798 66.0594 38.4054 66.0594 37.8566V32.643C66.0594 32.1432 66.0594 31.8688 65.6874 31.7218C65.3154 31.5748 64.9336 31.663 64.9336 31.4964C64.9336 31.3298 65.0021 31.3788 65.1392 31.3788C65.2762 31.3788 65.8734 31.3788 66.9698 31.3788C67.8117 31.3788 68.7515 31.3788 69.8479 31.3788H70.1024C70.6115 31.3788 70.7975 31.3788 70.7975 31.663C70.7975 31.7708 70.7975 31.9668 70.7975 32.2902C70.7975 32.6136 70.7975 32.7802 70.7975 32.8978C70.7975 33.0154 70.7975 33.084 70.6702 33.084C70.543 33.084 70.5919 32.6626 70.3472 32.2804C69.9948 31.7218 69.3095 31.663 68.2131 31.663H68.1152C67.3124 31.663 67.2439 31.663 67.2439 32.2902V34.9754C68.1641 34.9754 68.6536 34.8284 68.9571 34.3286C69.2605 33.8288 69.0941 33.4368 69.2997 33.4368C69.5053 33.4368 69.4367 33.5054 69.4367 33.6328C69.4367 33.7602 69.378 34.2894 69.378 34.8774C69.378 35.6712 69.4465 36.1612 69.4465 36.3572C69.4465 36.5532 69.3878 36.563 69.3193 36.563C69.2507 36.563 69.2214 36.269 69.055 35.8966C68.8102 35.3674 68.3208 35.2204 67.4593 35.2204H67.2537V37.1804C67.2145 38.5328 67.332 38.8954 68.9277 38.8954Z" fill="#8CB5E1"/>
<path d="M77.1898 38.8369C77.5716 39.0133 78.0317 38.8369 78.0317 39.0917C78.0317 39.3465 77.9534 39.2191 77.7968 39.2191C77.6402 39.2191 77.1605 39.1505 76.1619 39.1505C75.1634 39.1505 74.6152 39.2093 74.5173 39.2093C74.4194 39.2093 74.2922 39.1505 74.2922 39.0819C74.2922 39.0133 74.7425 39.0035 75.1341 38.8271C75.5256 38.6507 75.555 38.4057 75.555 37.8471V31.9671C75.555 31.6437 75.369 31.6045 74.8893 31.6045H74.3998C73.4209 31.6045 72.7748 31.6045 72.4419 32.0749C72.1091 32.5453 72.2755 33.0549 72.0993 33.0549C71.9231 33.0549 71.9916 32.9863 71.9916 32.8589V31.5849C71.9916 31.3791 72.0699 31.3203 72.3343 31.3203C72.5986 31.3203 73.7831 31.3987 76.0836 31.3987C78.3842 31.3987 79.7155 31.3105 79.9113 31.3105C80.1071 31.3105 80.2344 31.3693 80.2344 31.5751V32.8981C80.2344 33.0255 80.2344 33.0941 80.1365 33.0941C80.0386 33.0941 80.0679 32.5257 79.7841 32.1141C79.5002 31.7025 78.8051 31.6437 77.6108 31.6437H77.415C76.9255 31.6437 76.7493 31.6437 76.7493 32.0063V37.8863C76.7689 38.4253 76.8276 38.6899 77.1898 38.8369Z" fill="#8CB5E1"/>
<path d="M85.3642 32.0944C85.3073 31.9734 85.2193 31.8697 85.1092 31.794C84.9991 31.7182 84.8709 31.6731 84.7377 31.6632C84.395 31.5946 84.1895 31.6632 84.1895 31.477C84.1895 31.2908 84.2873 31.3496 84.4342 31.3496C84.581 31.3496 85.0411 31.3496 85.4719 31.3496C85.9026 31.3496 86.2257 31.3496 86.304 31.3496C86.5389 31.3496 86.5977 31.4182 86.6858 31.6436L89.0842 37.3864L91.5805 31.575C91.6043 31.5106 91.6492 31.4562 91.7079 31.4206C91.7665 31.385 91.8355 31.3703 91.9036 31.379C92.0308 31.379 92.1972 31.379 92.4322 31.379C92.9217 31.379 93.3328 31.379 93.6657 31.379C93.8517 31.379 93.9496 31.379 93.9496 31.5064C93.9496 31.6338 93.509 31.5064 93.0979 31.82C92.9673 31.9453 92.8669 32.0986 92.8042 32.2683C92.7414 32.4381 92.718 32.6199 92.7357 32.8V37.8666C92.7357 38.3664 92.7357 38.6506 93.0979 38.8466C93.4601 39.0426 93.8125 38.9054 93.8125 39.1014C93.8125 39.2974 93.744 39.2288 93.6167 39.2288C93.4895 39.2288 93.0587 39.1504 92.1777 39.1504C91.2966 39.1504 90.719 39.2092 90.6309 39.2092C90.5428 39.2092 90.4254 39.2092 90.4254 39.0818C90.4254 38.9544 90.8561 38.9838 91.1791 38.827C91.5022 38.6702 91.5609 38.3958 91.5609 37.847V32.4962L88.8003 38.974C88.7416 39.1014 88.673 39.17 88.6339 39.17C88.5947 39.17 88.5262 39.1112 88.4968 39.0328L85.7264 32.4374V37.7098C85.7264 38.3076 85.7264 38.631 86.2061 38.8564C86.6858 39.0818 86.8326 38.9152 86.8326 39.1014C86.8326 39.2876 86.7347 39.2288 86.5781 39.2288C86.4215 39.2288 86.0886 39.2288 85.5991 39.2288C85.1097 39.2288 84.953 39.2288 84.6202 39.2288C84.2874 39.2288 84.1895 39.2288 84.1895 39.0916C84.1895 38.9544 84.6006 38.9936 84.9041 38.827C85.2076 38.6604 85.2957 38.2978 85.2957 37.7098L85.3642 32.0944Z" fill="#8CB5E1"/>
<path d="M95.936 37.6411C95.8485 37.853 95.7988 38.0785 95.7891 38.3075C95.7761 38.4344 95.8069 38.562 95.8764 38.669C95.9458 38.776 96.0498 38.8559 96.1709 38.8955C96.4255 39.0033 96.68 38.9543 96.68 39.1307C96.68 39.3071 96.6115 39.2385 96.4548 39.2385C96.2982 39.2385 95.936 39.1503 95.4269 39.1503C94.9179 39.1503 94.6438 39.1503 94.448 39.1503C94.2522 39.1503 94.1543 39.1503 94.1543 39.0229C94.1543 38.8955 94.4676 38.9249 94.8493 38.7289C95.2311 38.5329 95.378 38.1801 95.6423 37.5333L98.2463 31.3201C98.305 31.1829 98.3638 31.0947 98.4519 31.0947C98.54 31.0947 98.5987 31.1731 98.677 31.3397L101.252 37.8371C101.447 38.3271 101.633 38.6407 101.947 38.8171C102.26 38.9935 102.603 38.8857 102.603 39.0621C102.603 39.2385 102.524 39.1797 102.368 39.1797C102.015 39.1797 101.516 39.1797 100.889 39.1797C100.42 39.1797 99.9105 39.2483 99.4798 39.2483C99.284 39.2483 99.1763 39.2483 99.1763 39.1209C99.1763 38.9935 99.2938 39.0033 99.5189 38.9739C99.9595 38.9151 100.165 38.7975 100.165 38.5525C100.147 38.2963 100.088 38.0447 99.9888 37.8077L99.4504 36.3867H96.5136L95.936 37.6411ZM99.284 36.0143L97.982 32.6431L96.6212 36.0143H99.284Z" fill="#8CB5E1"/>
<path d="M104.845 38.8564C105.158 39.023 105.462 38.9152 105.462 39.1014C105.462 39.2876 105.383 39.2288 105.217 39.2288C105.051 39.2288 104.737 39.2288 104.13 39.2288C103.768 39.2288 103.445 39.2288 103.151 39.2288C102.858 39.2288 102.867 39.17 102.867 39.1014C102.867 39.0328 103.279 39.0034 103.582 38.8368C103.886 38.6702 103.983 38.3076 103.983 37.7196V32.2904C103.905 32.1518 103.799 32.0301 103.673 31.9325C103.547 31.835 103.403 31.7634 103.249 31.722C103.005 31.6534 102.75 31.722 102.75 31.5358C102.75 31.3496 102.858 31.4182 103.063 31.4182C103.269 31.4182 103.504 31.4182 103.915 31.4182H104.581C104.657 31.4157 104.733 31.4324 104.801 31.4666C104.87 31.5008 104.928 31.5515 104.972 31.6142L109.749 37.602V32.7804C109.749 31.9768 109.505 31.5848 108.771 31.5848C108.739 31.5829 108.709 31.5701 108.686 31.5487C108.663 31.5273 108.648 31.4985 108.643 31.4672C108.643 31.3986 108.712 31.3496 108.839 31.3496C109.123 31.3496 109.524 31.4084 110.063 31.4084C110.601 31.4084 110.817 31.4084 111.042 31.4084C111.267 31.4084 111.237 31.4084 111.237 31.5162C111.237 31.624 110.856 31.6142 110.542 31.771C110.229 31.9278 110.141 32.261 110.141 32.8196V39.0524C110.141 39.2778 110.141 39.4052 109.955 39.4052C109.769 39.4052 109.701 39.2876 109.573 39.121L104.365 32.6334V37.7098C104.355 38.3076 104.414 38.631 104.845 38.8564Z" fill="#8CB5E1"/>
<path d="M112.579 37.6411C112.491 37.853 112.441 38.0785 112.432 38.3075C112.419 38.4344 112.45 38.562 112.519 38.669C112.588 38.776 112.692 38.8559 112.814 38.8955C113.068 39.0033 113.323 38.9543 113.323 39.1307C113.323 39.3071 113.254 39.2385 113.097 39.2385C112.941 39.2385 112.579 39.1503 112.04 39.1503C111.502 39.1503 111.257 39.1503 111.061 39.1503C110.865 39.1503 110.768 39.1503 110.768 39.0229C110.768 38.8955 111.081 38.9249 111.463 38.7289C111.844 38.5329 111.991 38.1801 112.256 37.5333L114.86 31.3201C114.918 31.1829 114.977 31.0947 115.065 31.0947C115.153 31.0947 115.222 31.1731 115.29 31.3397L117.865 37.8371C118.061 38.3271 118.247 38.6407 118.56 38.8171C118.873 38.9935 119.216 38.8857 119.216 39.0621C119.216 39.2385 119.138 39.1797 118.981 39.1797C118.629 39.1797 118.129 39.1797 117.503 39.1797C117.033 39.1797 116.524 39.2483 116.093 39.2483C115.897 39.2483 115.79 39.2483 115.79 39.1209C115.79 38.9935 115.907 39.0033 116.132 38.9739C116.573 38.9151 116.778 38.7975 116.778 38.5525C116.761 38.2963 116.701 38.0447 116.602 37.8077L116.064 36.3867H113.127L112.579 37.6411ZM115.927 36.0143L114.625 32.6431L113.225 36.0143H115.927Z" fill="#8CB5E1"/>
<path d="M125.227 38.5233C124.429 39.0454 123.506 39.3433 122.554 39.3857C122.032 39.3984 121.512 39.3042 121.027 39.1087C120.542 38.9132 120.103 38.6206 119.735 38.2489C119.383 37.8909 119.109 37.4643 118.928 36.9956C118.748 36.527 118.666 36.0262 118.687 35.5245C118.645 34.961 118.721 34.3947 118.91 33.8624C119.1 33.3301 119.399 32.8436 119.789 32.4344C120.178 32.0251 120.649 31.7023 121.171 31.4868C121.693 31.2712 122.254 31.1678 122.818 31.1831C123.636 31.2238 124.437 31.4235 125.178 31.7711C125.354 31.7711 125.364 31.3987 125.501 31.3987C125.638 31.3987 125.618 31.4575 125.618 31.6241V31.7515L125.55 33.4665C125.55 33.5645 125.55 33.6037 125.442 33.6037C125.334 33.6037 125.325 33.3685 125.207 33.0549C125.085 32.5676 124.798 32.1378 124.394 31.8393C123.991 31.5407 123.496 31.3919 122.995 31.4183C121.125 31.4183 120.126 32.7707 120.126 35.3383C120.126 37.7197 121.164 39.0525 122.809 39.0525C124.218 39.0525 124.835 38.4351 124.835 37.0925C124.835 36.6025 124.669 36.2987 124.424 36.2007C124.179 36.1027 123.768 36.1419 123.768 35.9655C123.768 35.7891 123.866 35.8381 124.032 35.8381C124.199 35.8381 124.62 35.9067 125.374 35.9067C126.127 35.9067 126.617 35.8381 126.724 35.8381C126.832 35.8381 126.95 35.9067 126.95 35.9557C126.95 36.0047 126.656 36.0635 126.352 36.2497C126.049 36.4359 126.059 36.6809 126.059 37.2297V37.3571C126.055 37.6848 126.075 38.0122 126.118 38.3371C125.811 38.3395 125.508 38.4027 125.227 38.5233Z" fill="#8CB5E1"/>
<path d="M130.836 38.8954C131.815 38.8954 132.451 38.7484 132.794 38.1702C133.136 37.592 132.96 37.3666 133.156 37.3666C133.352 37.3666 133.283 37.4744 133.283 37.7194C133.283 37.9644 133.283 38.4936 133.283 38.8954C133.283 39.2972 133.283 39.2188 132.901 39.2188C132.676 39.2188 131.247 39.16 128.575 39.16C127.596 39.16 127.145 39.2188 127.047 39.2188C126.949 39.2188 126.842 39.2188 126.842 39.0914C126.842 38.964 127.273 38.9934 127.596 38.8366C127.919 38.6798 127.968 38.4054 127.968 37.8566V32.643C127.968 32.1432 127.968 31.8688 127.596 31.7218C127.224 31.5748 126.842 31.663 126.842 31.4964C126.842 31.3298 126.91 31.3788 127.047 31.3788C127.184 31.3788 127.782 31.3788 128.878 31.3788C129.72 31.3788 130.66 31.3788 131.756 31.3788H132.011C132.52 31.3788 132.706 31.3788 132.706 31.663C132.706 31.7708 132.706 31.9668 132.706 32.2902C132.706 32.6136 132.706 32.7802 132.706 32.8978C132.706 33.0154 132.706 33.084 132.578 33.084C132.451 33.084 132.5 32.6626 132.255 32.2804C131.903 31.7218 131.218 31.663 130.121 31.663H130.023C129.221 31.663 129.152 31.663 129.152 32.2902V34.9754C130.072 34.9754 130.562 34.8284 130.865 34.3286C131.169 33.8288 131.002 33.4368 131.208 33.4368C131.413 33.4368 131.345 33.5054 131.345 33.6328C131.345 33.7602 131.286 34.2894 131.286 34.8774C131.286 35.6712 131.355 36.1612 131.355 36.3572C131.355 36.5532 131.296 36.563 131.227 36.563C131.159 36.563 131.13 36.269 130.963 35.8966C130.718 35.3674 130.229 35.2204 129.367 35.2204H129.162V37.1804C129.123 38.5328 129.221 38.8954 130.836 38.8954Z" fill="#8CB5E1"/>
<path d="M135.095 32.0944C135.038 31.9734 134.95 31.8697 134.84 31.794C134.73 31.7182 134.601 31.6731 134.468 31.6632C134.125 31.5946 133.92 31.6632 133.92 31.477C133.92 31.2908 134.018 31.3496 134.165 31.3496C134.312 31.3496 134.772 31.3496 135.202 31.3496C135.633 31.3496 135.956 31.3496 136.034 31.3496C136.269 31.3496 136.328 31.4182 136.416 31.6436L138.844 37.3668L141.34 31.5554C141.364 31.491 141.409 31.4366 141.468 31.401C141.526 31.3654 141.595 31.3507 141.663 31.3594C141.791 31.3594 141.957 31.3594 142.192 31.3594C142.681 31.3594 143.093 31.3594 143.425 31.3594C143.611 31.3594 143.709 31.3594 143.709 31.4868C143.709 31.6142 143.269 31.4868 142.858 31.8004C142.727 31.9257 142.627 32.079 142.564 32.2487C142.501 32.4185 142.478 32.6003 142.495 32.7804V37.847C142.495 38.3468 142.495 38.631 142.858 38.827C143.22 39.023 143.572 38.8858 143.572 39.0818C143.572 39.2778 143.504 39.2092 143.377 39.2092C143.249 39.2092 142.819 39.1504 141.947 39.1504C141.076 39.1504 140.489 39.2092 140.401 39.2092C140.312 39.2092 140.195 39.2092 140.195 39.0818C140.195 38.9544 140.626 38.9838 140.949 38.827C141.272 38.6702 141.331 38.3958 141.331 37.847V32.4962L138.57 38.974C138.511 39.1014 138.443 39.17 138.404 39.17C138.364 39.17 138.296 39.1112 138.266 39.0328L135.496 32.4374V37.7098C135.496 38.3076 135.496 38.631 135.976 38.8564C136.455 39.0818 136.602 38.9152 136.602 39.1014C136.602 39.2876 136.504 39.2288 136.348 39.2288C136.191 39.2288 135.858 39.2288 135.369 39.2288C134.879 39.2288 134.723 39.2288 134.39 39.2288C134.057 39.2288 133.959 39.2288 133.959 39.0916C133.959 38.9544 134.37 38.9936 134.674 38.827C134.977 38.6604 135.075 38.2978 135.075 37.7098L135.095 32.0944Z" fill="#8CB5E1"/>
<path d="M148.467 38.8954C149.446 38.8954 150.082 38.7484 150.425 38.1702C150.767 37.592 150.591 37.3666 150.787 37.3666C150.983 37.3666 150.914 37.4744 150.914 37.7194C150.914 37.9644 150.914 38.4936 150.914 38.8954C150.914 39.2972 150.914 39.2188 150.532 39.2188C150.307 39.2188 148.878 39.16 146.205 39.16C145.226 39.16 144.776 39.2188 144.678 39.2188C144.58 39.2188 144.473 39.2188 144.473 39.0914C144.473 38.964 144.903 38.9934 145.226 38.8366C145.55 38.6798 145.598 38.4054 145.598 37.8566V32.643C145.598 32.1432 145.598 31.8688 145.226 31.7218C144.854 31.5748 144.473 31.663 144.473 31.4964C144.473 31.3298 144.541 31.3788 144.678 31.3788C144.815 31.3788 145.412 31.3788 146.509 31.3788C147.351 31.3788 148.291 31.3788 149.387 31.3788H149.641C150.151 31.3788 150.337 31.3788 150.337 31.663C150.337 31.7708 150.337 31.9668 150.337 32.2902C150.337 32.6136 150.337 32.7802 150.337 32.8978C150.337 33.0154 150.337 33.084 150.209 33.084C150.082 33.084 150.131 32.6626 149.886 32.2804C149.534 31.7218 148.849 31.663 147.752 31.663H147.654C146.851 31.663 146.783 31.663 146.783 32.2902V34.9754C147.703 34.9754 148.193 34.8284 148.496 34.3286C148.8 33.8288 148.633 33.4368 148.839 33.4368C149.044 33.4368 148.976 33.5054 148.976 33.6328C148.976 33.7602 148.917 34.2894 148.917 34.8774C148.917 35.6712 148.986 36.1612 148.986 36.3572C148.986 36.5532 148.927 36.563 148.858 36.563C148.79 36.563 148.76 36.269 148.594 35.8966C148.349 35.3674 147.86 35.2204 146.998 35.2204H146.793V37.1804C146.754 38.5328 146.842 38.8954 148.467 38.8954Z" fill="#8CB5E1"/>
<path d="M153.636 38.8564C153.949 39.023 154.253 38.9152 154.253 39.1014C154.253 39.2876 154.174 39.2288 154.008 39.2288C153.841 39.2288 153.528 39.2288 152.921 39.2288C152.559 39.2288 152.236 39.2288 151.942 39.2288C151.649 39.2288 151.737 39.1504 151.737 39.0818C151.737 39.0132 152.148 38.9838 152.451 38.8172C152.755 38.6506 152.853 38.288 152.853 37.7V32.2904C152.774 32.1518 152.668 32.0301 152.542 31.9325C152.416 31.835 152.272 31.7634 152.118 31.722C151.874 31.6534 151.619 31.722 151.619 31.5358C151.619 31.3496 151.727 31.4182 151.932 31.4182C152.138 31.4182 152.373 31.4182 152.784 31.4182H153.45C153.526 31.4157 153.602 31.4324 153.67 31.4666C153.739 31.5008 153.797 31.5515 153.841 31.6142L158.589 37.5824V32.7804C158.589 31.9768 158.345 31.5848 157.61 31.5848C157.579 31.5829 157.549 31.5701 157.526 31.5487C157.503 31.5273 157.487 31.4985 157.483 31.4672C157.483 31.3986 157.552 31.3496 157.679 31.3496C157.963 31.3496 158.364 31.4084 158.903 31.4084C159.441 31.4084 159.656 31.4084 159.881 31.4084C160.107 31.4084 160.077 31.4084 160.077 31.5162C160.077 31.624 159.695 31.6142 159.382 31.771C159.069 31.9278 158.981 32.261 158.981 32.8196V39.0524C158.981 39.2778 158.981 39.4052 158.795 39.4052C158.609 39.4052 158.54 39.2876 158.413 39.121L153.205 32.6334V37.7098C153.146 38.3076 153.205 38.631 153.636 38.8564Z" fill="#8CB5E1"/>
<path d="M165.627 38.8369C166.009 39.0133 166.469 38.8369 166.469 39.0917C166.469 39.3465 166.391 39.2191 166.234 39.2191C166.078 39.2191 165.608 39.1603 164.599 39.1603C163.591 39.1603 163.053 39.2191 162.955 39.2191C162.857 39.2191 162.73 39.1603 162.73 39.0917C162.73 39.0231 163.18 39.0133 163.572 38.8369C163.963 38.6605 163.992 38.4155 163.992 37.8569V31.9769C163.992 31.6535 163.806 31.6143 163.327 31.6143H162.857C161.878 31.6143 161.232 31.6143 160.899 32.0847C160.566 32.5551 160.733 33.0647 160.556 33.0647C160.38 33.0647 160.449 32.9961 160.449 32.8687V31.5849C160.449 31.3791 160.527 31.3203 160.791 31.3203C161.056 31.3203 162.24 31.3987 164.55 31.3987C166.861 31.3987 168.153 31.3105 168.378 31.3105C168.603 31.3105 168.701 31.3693 168.701 31.5751V32.8981C168.701 33.0255 168.701 33.0941 168.603 33.0941C168.505 33.0941 168.535 32.5257 168.251 32.1141C167.967 31.7025 167.272 31.6437 166.078 31.6437H165.882C165.392 31.6437 165.216 31.6437 165.216 32.0063V37.8863C165.206 38.4253 165.265 38.6899 165.627 38.8369Z" fill="#8CB5E1"/>
<path d="M172.442 38.9744C172.687 39.0822 172.971 38.9744 172.971 39.141C172.971 39.3076 172.971 39.2194 172.834 39.2194C172.696 39.2194 172.422 39.2194 171.796 39.2194C171.169 39.2194 170.817 39.2194 170.768 39.2194C170.719 39.2194 170.621 39.2194 170.621 39.141C170.621 39.0626 170.905 39.092 171.15 38.9744C171.394 38.8568 171.414 38.7 171.414 38.3766V35.0446C171.414 34.731 171.414 34.5546 171.169 34.4566C170.925 34.3586 170.611 34.4566 170.611 34.3194C170.611 34.1822 170.739 34.241 170.827 34.241C170.915 34.241 171.228 34.241 171.806 34.241C172.383 34.241 172.726 34.241 172.785 34.241C172.843 34.241 172.98 34.241 172.98 34.3096C172.98 34.3782 172.736 34.3684 172.491 34.437C172.246 34.5056 172.187 34.6918 172.187 35.0446V38.3766C172.178 38.7098 172.217 38.8764 172.442 38.9744Z" fill="#8CB5E1"/>
<path d="M174.654 38.9845C174.849 39.0923 175.045 38.9845 175.045 39.1413C175.045 39.2981 174.996 39.2197 174.889 39.2197C174.781 39.2197 174.585 39.2197 174.203 39.2197H173.596C173.479 39.2197 173.42 39.2197 173.42 39.1413C173.42 39.0629 173.675 39.0825 173.87 38.9747C174.066 38.8669 174.125 38.6415 174.125 38.2593V34.7901C174.075 34.7013 174.007 34.6235 173.927 34.5612C173.846 34.499 173.754 34.4535 173.655 34.4275C173.498 34.4275 173.342 34.4275 173.342 34.3099C173.342 34.1923 173.41 34.2315 173.538 34.2315C173.665 34.2315 173.821 34.2315 174.076 34.2315H174.497C174.547 34.2294 174.596 34.24 174.641 34.2623C174.685 34.2845 174.723 34.3178 174.751 34.3589L177.786 38.1613V35.1331C177.786 34.6235 177.63 34.3785 177.169 34.3785C177.149 34.3764 177.131 34.3674 177.116 34.3531C177.102 34.3389 177.093 34.3201 177.091 34.3001C177.091 34.3001 177.091 34.2217 177.218 34.2217C177.346 34.2217 177.659 34.2217 177.992 34.2217C178.325 34.2217 178.471 34.2217 178.589 34.2217C178.706 34.2217 178.716 34.2217 178.716 34.2903C178.716 34.3589 178.471 34.3491 178.276 34.4569C178.08 34.5647 178.021 34.7705 178.021 35.1233V39.0433C178.021 39.1805 178.021 39.2687 177.904 39.2687C177.786 39.2687 177.737 39.1903 177.659 39.0923L174.35 34.9763V38.2005C174.34 38.6317 174.379 38.8375 174.654 38.9845Z" fill="#8CB5E1"/>
<path d="M183.544 39.1014C183.416 39.1014 183.495 38.8172 183.299 38.8172C183.103 38.8172 183.083 38.9152 182.956 38.9838C182.558 39.2053 182.11 39.3201 181.654 39.317C181.004 39.3306 180.371 39.0999 179.882 38.6702C179.636 38.4348 179.442 38.1497 179.314 37.8338C179.186 37.5179 179.126 37.1784 179.138 36.8376C179.129 36.2831 179.282 35.7381 179.579 35.2696C179.816 34.9085 180.143 34.615 180.527 34.4176C180.912 34.2201 181.34 34.1254 181.772 34.1426C182.274 34.1606 182.766 34.2912 183.211 34.5248C183.338 34.5248 183.328 34.2406 183.426 34.2406C183.524 34.2406 183.504 34.2896 183.514 34.4072V35.495C183.512 35.5276 183.512 35.5604 183.514 35.593C183.514 35.6616 183.514 35.7008 183.436 35.7008C183.358 35.7008 183.367 35.5636 183.27 35.3284C183.179 35.013 182.987 34.7363 182.723 34.5413C182.459 34.3464 182.139 34.2441 181.811 34.2504C180.754 34.2504 180.039 35.1716 180.039 36.7592C180.039 38.3468 180.754 39.1014 181.84 39.1014C182.152 39.107 182.458 39.0158 182.715 38.8403C182.973 38.6648 183.17 38.4136 183.279 38.1214C183.475 37.651 183.475 37.4256 183.563 37.4256C183.572 37.4268 183.581 37.4298 183.589 37.4344C183.597 37.439 183.604 37.4452 183.609 37.4525C183.614 37.4598 183.618 37.4681 183.621 37.4769C183.623 37.4858 183.623 37.495 183.622 37.504V38.974C183.633 38.9866 183.639 39.0024 183.641 39.019C183.642 39.0356 183.638 39.0523 183.629 39.0665C183.621 39.0807 183.608 39.0918 183.592 39.098C183.577 39.1043 183.56 39.1055 183.544 39.1014Z" fill="#8CB5E1"/>
</g>
<defs>
<clipPath id="clip0_217_28449">
<rect width="186" height="49" fill="white" transform="translate(0 0.930664)"/>
</clipPath>
</defs>
</svg>
