<svg width="154" height="45" viewBox="0 0 154 45" fill="none" xmlns="http://www.w3.org/2000/svg">
<path d="M3.51689 5.12631C3.17953 5.43452 2.74844 5.58863 2.22365 5.58863C1.57391 5.58863 1.06369 5.38038 0.690924 4.96388C0.318154 4.54529 0.132812 3.97052 0.132812 3.24164C0.132812 2.45236 0.343142 1.84635 0.765891 1.41944C1.1345 1.04667 1.60098 0.861328 2.16951 0.861328C2.92962 0.861328 3.48565 1.11123 3.83552 1.60895C4.02919 1.88801 4.13332 2.16915 4.14789 2.45028H3.20452C3.14412 2.2337 3.06499 2.07127 2.96919 1.96089C2.79843 1.76514 2.54436 1.66726 2.20699 1.66726C1.86338 1.66726 1.59265 1.80471 1.39481 2.08168C1.19697 2.35866 1.09701 2.75017 1.09701 3.25622C1.09701 3.76227 1.20114 4.14128 1.41147 4.39535C1.6218 4.64733 1.88629 4.77437 2.20908 4.77437C2.5402 4.77437 2.79217 4.66608 2.96502 4.4495C3.06082 4.33288 3.13996 4.15795 3.20452 3.92471H4.13956C4.06043 4.41826 3.85218 4.8181 3.51689 5.12631Z" fill="#004890"/>
<path d="M14.2476 4.5353H12.5837L12.2713 5.4641H11.2842L12.896 0.949219H13.9623L15.5617 5.4641H14.5391L14.2476 4.5353ZM13.9852 3.75852L13.4208 1.98214L12.8398 3.75852H13.9852Z" fill="#004890"/>
<path d="M28.2737 5.4641H27.3304L25.4853 2.25704V5.4641H24.6064V0.949219H25.5956L27.3949 4.10214V0.949219H28.2737V5.4641Z" fill="#004890"/>
<path d="M38.5406 4.5353H36.8766L36.5643 5.4641H35.5771L37.189 0.949219H38.2553L39.8546 5.4641H38.8321L38.5406 4.5353ZM38.2782 3.75852L37.7138 1.98214L37.1328 3.75852H38.2782Z" fill="#004890"/>
<path d="M49.1179 5.4641H47.1729V0.949219H49.1179C49.397 0.953384 49.6302 0.986704 49.8156 1.0471C50.1321 1.15122 50.3882 1.34281 50.584 1.61979C50.7402 1.8447 50.8485 2.08835 50.9047 2.34867C50.9609 2.61106 50.9901 2.85888 50.9901 3.09629C50.9901 3.69605 50.8693 4.20626 50.6277 4.62276C50.3029 5.18296 49.7989 5.4641 49.1179 5.4641ZM49.8176 2.10085C49.6719 1.85511 49.3866 1.73224 48.9576 1.73224H48.0871V4.679H48.9576C49.4032 4.679 49.7135 4.46033 49.8885 4.02092C49.9842 3.77935 50.0321 3.49196 50.0321 3.16084C50.0321 2.70061 49.9613 2.34867 49.8176 2.10085Z" fill="#004890"/>
<path d="M58.6016 0.949219H59.5387V5.4641H58.6016V0.949219Z" fill="#004890"/>
<path d="M71.5484 4.5353H69.8844L69.5721 5.4641H68.585L70.1968 0.949219H71.2631L72.8624 5.4641H71.8399L71.5484 4.5353ZM71.286 3.75852L70.7216 1.98214L70.1406 3.75852H71.286Z" fill="#004890"/>
<path d="M83.8314 5.4641H82.888L81.0429 2.25704V5.4641H80.1641V0.949219H81.1533L82.9525 4.10214V0.949219H83.8314V5.4641Z" fill="#004890"/>
<path d="M0.842773 7.32324H3.07314V18.0628H0.842773V7.32324Z" fill="#004890"/>
<path d="M8.73525 11.6572C8.03136 11.6572 7.54821 11.955 7.28582 12.5527C7.15045 12.8692 7.08174 13.2711 7.08174 13.7626V18.0609H5.01172V10.1328H7.01509V11.2907C7.28165 10.8825 7.53572 10.5889 7.77313 10.4098C8.20004 10.0891 8.7415 9.92871 9.39749 9.92871C10.218 9.92871 10.8906 10.1432 11.4113 10.5743C11.934 11.0033 12.1943 11.7176 12.1943 12.713V18.0609H10.066V13.2295C10.066 12.8109 10.0097 12.4923 9.89937 12.2674C9.69529 11.8613 9.30794 11.6572 8.73525 11.6572Z" fill="#004890"/>
<path d="M19.5833 10.485C20.206 10.8828 20.5621 11.5679 20.6537 12.5404H18.5775C18.5483 12.2739 18.4733 12.0615 18.3526 11.9073C18.1235 11.6262 17.7361 11.4846 17.1864 11.4846C16.7344 11.4846 16.4137 11.5554 16.2201 11.6949C16.0285 11.8365 15.9327 12.0011 15.9327 12.1906C15.9327 12.428 16.0347 12.6008 16.2388 12.707C16.4429 12.8195 17.1634 13.0111 18.4025 13.2818C19.2293 13.4755 19.8478 13.7691 20.2601 14.1627C20.6683 14.5605 20.8724 15.0582 20.8724 15.6559C20.8724 16.4431 20.5788 17.0845 19.9936 17.5822C19.4084 18.0799 18.5046 18.3298 17.2801 18.3298C16.0326 18.3298 15.1101 18.0653 14.5145 17.5385C13.9189 17.0116 13.6211 16.3389 13.6211 15.5247H15.7265C15.7702 15.8933 15.864 16.1557 16.0097 16.3119C16.268 16.5888 16.7428 16.7263 17.4383 16.7263C17.8465 16.7263 18.1714 16.6659 18.4109 16.5451C18.6504 16.4243 18.7711 16.241 18.7711 15.9995C18.7711 15.7662 18.6733 15.5892 18.4796 15.4684C18.2859 15.3477 17.5633 15.1373 16.3159 14.8416C15.4162 14.6188 14.7831 14.3397 14.4145 14.0044C14.0459 13.6733 13.8606 13.1985 13.8606 12.5758C13.8606 11.8428 14.148 11.2118 14.7248 10.6849C15.3017 10.158 16.1097 9.89355 17.1551 9.89355C18.1485 9.89564 18.9565 10.0914 19.5833 10.485Z" fill="#004890"/>
<path d="M26.0471 16.5846V18.136L25.0642 18.1714C24.0833 18.2047 23.4128 18.0361 23.0525 17.6612C22.8192 17.4238 22.7026 17.0573 22.7026 16.5617V11.6719H21.5947V10.1933H22.7026V7.97754H24.7581V10.1933H26.0471V11.6719H24.7581V15.8682C24.7581 16.193 24.7997 16.3971 24.883 16.4763C24.9663 16.5554 25.2183 16.597 25.641 16.597C25.7035 16.597 25.7702 16.595 25.841 16.5929C25.9097 16.5929 25.9784 16.5887 26.0471 16.5846Z" fill="#004890"/>
<path d="M29.5146 7.25684V9.17274H27.4092V7.25684H29.5146ZM29.5146 10.1203V18.063H27.4092V10.1203H29.5146Z" fill="#004890"/>
<path d="M35.1624 16.5846V18.136L34.1794 18.1714C33.1986 18.2047 32.528 18.0361 32.1677 17.6612C31.9345 17.4238 31.8179 17.0573 31.8179 16.5617V11.6719H30.71V10.1933H31.8179V7.97754H33.8733V10.1933H35.1624V11.6719H33.8733V15.8682C33.8733 16.193 33.9149 16.3971 33.9982 16.4763C34.0815 16.5554 34.3335 16.597 34.7563 16.597C34.8188 16.597 34.8854 16.595 34.9562 16.5929C35.0249 16.5929 35.0936 16.5887 35.1624 16.5846Z" fill="#004890"/>
<path d="M41.5896 16.9403C41.5709 16.9653 41.5209 17.0382 41.4439 17.159C41.3668 17.2798 41.2731 17.3881 41.1669 17.4797C40.842 17.7713 40.5276 17.9712 40.2235 18.0774C39.9195 18.1836 39.5633 18.2377 39.1552 18.2377C37.9786 18.2377 37.1872 17.815 36.779 16.9695C36.55 16.503 36.4375 15.8158 36.4375 14.9078V10.1201H38.5658V14.9078C38.5658 15.3597 38.62 15.6992 38.7262 15.9282C38.9157 16.3322 39.2864 16.5322 39.8403 16.5322C40.5505 16.5322 41.0357 16.2448 41.2981 15.6721C41.4335 15.3618 41.5022 14.9515 41.5022 14.4413V10.1201H43.6076V18.0628H41.5896V16.9403Z" fill="#004890"/>
<path d="M49.2464 16.5846V18.136L48.2634 18.1714C47.2825 18.2047 46.612 18.0361 46.2517 17.6612C46.0185 17.4238 45.9018 17.0573 45.9018 16.5617V11.6719H44.7939V10.1933H45.9018V7.97754H47.9573V10.1933H49.2464V11.6719H47.9573V15.8682C47.9573 16.193 47.9989 16.3971 48.0822 16.4763C48.1655 16.5554 48.4175 16.597 48.8403 16.597C48.9027 16.597 48.9694 16.595 49.0402 16.5929C49.1089 16.5929 49.1776 16.5887 49.2464 16.5846Z" fill="#004890"/>
<path d="M52.7138 7.25684V9.17274H50.6084V7.25684H52.7138ZM52.7138 10.1203V18.063H50.6084V10.1203H52.7138Z" fill="#004890"/>
<path d="M61.3481 11.1261C62.0187 11.9675 62.354 12.9608 62.354 14.1062C62.354 15.2724 62.0187 16.2699 61.3481 17.0967C60.6775 17.9255 59.6592 18.3399 58.2951 18.3399C56.929 18.3399 55.9127 17.9255 55.2422 17.0967C54.5716 16.2678 54.2363 15.2724 54.2363 14.1062C54.2363 12.9608 54.5716 11.9675 55.2422 11.1261C55.9127 10.2848 56.929 9.86621 58.2951 9.86621C59.6613 9.86621 60.6796 10.2848 61.3481 11.1261ZM58.2889 11.6218C57.6808 11.6218 57.2143 11.8363 56.8853 12.2673C56.5583 12.6963 56.3938 13.3107 56.3938 14.1062C56.3938 14.9038 56.5583 15.5181 56.8853 15.9492C57.2122 16.3824 57.6808 16.5969 58.2889 16.5969C58.897 16.5969 59.3614 16.3803 59.6883 15.9492C60.0132 15.5161 60.1756 14.9017 60.1756 14.1062C60.1756 13.3086 60.0132 12.6963 59.6883 12.2673C59.3614 11.8363 58.8949 11.6218 58.2889 11.6218Z" fill="#004890"/>
<path d="M67.579 11.6572C66.8751 11.6572 66.392 11.955 66.1296 12.5527C65.9942 12.8692 65.9255 13.2711 65.9255 13.7626V18.0609H63.8555V10.1328H65.8589V11.2907C66.1254 10.8825 66.3795 10.5889 66.6169 10.4098C67.0438 10.0891 67.5853 9.92871 68.2412 9.92871C69.0618 9.92871 69.7344 10.1432 70.255 10.5743C70.7777 11.0033 71.0381 11.7176 71.0381 12.713V18.0609H68.9097V13.2295C68.9097 12.8109 68.8535 12.4923 68.7431 12.2674C68.5411 11.8613 68.1517 11.6572 67.579 11.6572Z" fill="#004890"/>
<path d="M73.2533 10.9802C73.8031 10.2805 74.7444 9.93066 76.0814 9.93066C76.9498 9.93066 77.7224 10.1035 78.3992 10.4471C79.0739 10.7928 79.4113 11.4426 79.4113 12.4005V16.0428C79.4113 16.2948 79.4155 16.6009 79.4259 16.9612C79.4404 17.234 79.4821 17.4173 79.5487 17.5152C79.6175 17.613 79.7195 17.6922 79.8549 17.7547V18.0608H77.5953C77.5329 17.9004 77.4891 17.7505 77.4641 17.6089C77.4392 17.4673 77.4204 17.3069 77.4058 17.1278C77.1184 17.4381 76.7894 17.7026 76.4146 17.9213C75.9668 18.1795 75.4629 18.3065 74.8985 18.3065C74.18 18.3065 73.5865 18.1004 73.118 17.6901C72.6494 17.2798 72.4141 16.6988 72.4141 15.945C72.4141 14.9683 72.791 14.2623 73.5428 13.825C73.9551 13.5875 74.5632 13.4168 75.365 13.3147L76.0709 13.2273C76.4541 13.1794 76.729 13.119 76.8935 13.0461C77.1893 12.9191 77.3371 12.7233 77.3371 12.4567C77.3371 12.1319 77.2247 11.907 76.9977 11.782C76.7728 11.6571 76.4395 11.5967 76.0022 11.5967C75.5108 11.5967 75.1651 11.7175 74.961 11.9611C74.8152 12.1402 74.7173 12.3839 74.6694 12.69H72.6661C72.716 11.9986 72.9097 11.428 73.2533 10.9802ZM74.7985 16.5614C74.9922 16.7217 75.2317 16.8009 75.5128 16.8009C75.9606 16.8009 76.3708 16.6697 76.7478 16.4073C77.1247 16.1449 77.3205 15.6659 77.335 14.9724V14.1998C77.2038 14.2831 77.0705 14.3498 76.9373 14.3997C76.804 14.4497 76.6207 14.4976 76.3875 14.5413L75.921 14.6288C75.4837 14.7059 75.1713 14.8017 74.9818 14.912C74.6611 15.1015 74.5007 15.3952 74.5007 15.7929C74.5007 16.1511 74.6007 16.4052 74.7985 16.5614Z" fill="#004890"/>
<path d="M81.2988 7.32324H83.3751V18.0628H81.2988V7.32324Z" fill="#004890"/>
<path d="M85.8574 7.15723H87.234V17.8613H85.8574V7.15723Z" fill="#004890"/>
<path d="M89.2832 10.0557H90.4536V11.1636C90.8014 10.7075 91.1679 10.3784 91.5552 10.1806C91.9426 9.98069 92.3757 9.88281 92.8505 9.88281C93.8918 9.88281 94.5957 10.2681 94.9601 11.0407C95.1601 11.4634 95.2621 12.0674 95.2621 12.8546V17.8609H94.0084V12.942C94.0084 12.4651 93.9418 12.0819 93.8106 11.7904C93.5919 11.3052 93.1942 11.0615 92.6194 11.0615C92.3278 11.0615 92.0883 11.0928 91.9009 11.1573C91.5636 11.2635 91.2658 11.478 91.0096 11.7987C90.8034 12.057 90.6702 12.3214 90.6098 12.5963C90.5494 12.8712 90.5181 13.2627 90.5181 13.7729V17.8609H89.2853V10.0557H89.2832Z" fill="#004890"/>
<path d="M97.6904 10.0557L99.6501 16.4094L101.691 10.0557H103.04L100.279 17.8588H98.9649L96.2598 10.0557H97.6904Z" fill="#004890"/>
<path d="M108.628 10.2702C109.113 10.5305 109.484 10.8658 109.738 11.2802C109.984 11.6738 110.146 12.132 110.227 12.6567C110.3 13.017 110.336 13.5897 110.336 14.3769H105C105.023 15.1703 105.198 15.8076 105.523 16.2866C105.848 16.7655 106.354 17.0071 107.039 17.0071C107.678 17.0071 108.189 16.7801 108.568 16.3261C108.78 16.0616 108.932 15.7576 109.02 15.4119H110.232C110.2 15.6993 110.094 16.0179 109.913 16.3699C109.732 16.7218 109.532 17.0092 109.309 17.2341C108.936 17.6235 108.478 17.8838 107.928 18.0213C107.633 18.0983 107.301 18.1379 106.929 18.1379C106.021 18.1379 105.252 17.7839 104.621 17.0779C103.99 16.3719 103.676 15.3807 103.676 14.1083C103.676 12.8546 103.994 11.8383 104.63 11.0553C105.265 10.2723 106.096 9.88284 107.12 9.88284C107.641 9.88075 108.143 10.0119 108.628 10.2702ZM109.069 13.3356C109.02 12.7671 108.905 12.3131 108.724 11.9737C108.389 11.3427 107.83 11.0261 107.047 11.0261C106.485 11.0261 106.014 11.2427 105.635 11.678C105.254 12.1132 105.054 12.6651 105.031 13.3356H109.069Z" fill="#004890"/>
<path d="M112.63 15.4119C112.668 15.8492 112.772 16.1845 112.945 16.4177C113.261 16.8405 113.811 17.0508 114.594 17.0508C115.061 17.0508 115.471 16.9446 115.825 16.7343C116.179 16.5239 116.356 16.197 116.356 15.7534C116.356 15.4181 116.214 15.164 115.931 14.9891C115.75 14.8829 115.394 14.758 114.859 14.6184L113.863 14.356C113.228 14.1915 112.76 14.0062 112.458 13.8021C111.92 13.4481 111.65 12.9566 111.65 12.3297C111.65 11.5925 111.904 10.9949 112.41 10.5367C112.916 10.0806 113.597 9.85156 114.455 9.85156C115.575 9.85156 116.381 10.1973 116.877 10.8866C117.187 11.3239 117.337 11.7945 117.329 12.3006H116.164C116.142 12.0049 116.042 11.7383 115.862 11.4967C115.573 11.1531 115.071 10.9824 114.355 10.9824C113.878 10.9824 113.518 11.0761 113.272 11.2656C113.026 11.4551 112.903 11.7029 112.903 12.0132C112.903 12.3527 113.064 12.6234 113.386 12.8275C113.572 12.9483 113.847 13.0545 114.209 13.1482L115.04 13.3585C115.942 13.5876 116.548 13.8083 116.854 14.0207C117.333 14.356 117.572 14.8829 117.572 15.6014C117.572 16.2969 117.322 16.8967 116.82 17.4007C116.319 17.9067 115.554 18.1587 114.53 18.1587C113.424 18.1587 112.643 17.8942 112.183 17.3673C111.722 16.8405 111.477 16.1886 111.443 15.4119H112.63Z" fill="#004890"/>
<path d="M119.159 7.87793H120.407V10.0562H121.577V11.1266H120.407V16.2205C120.407 16.4933 120.494 16.6745 120.667 16.7661C120.763 16.8202 120.923 16.8452 121.146 16.8452C121.206 16.8452 121.269 16.8431 121.338 16.8411C121.406 16.8369 121.485 16.8306 121.577 16.8161V17.8573C121.435 17.9011 121.288 17.9323 121.136 17.9531C120.981 17.9719 120.817 17.9823 120.64 17.9823C120.065 17.9823 119.674 17.8261 119.47 17.5116C119.263 17.1993 119.161 16.7911 119.161 16.2913V11.1246H118.168V10.0542H119.161V7.87793H119.159Z" fill="#004890"/>
<path d="M122.81 10.0557H124.028V11.1636C124.319 10.7804 124.584 10.5013 124.823 10.3264C125.229 10.0307 125.692 9.88281 126.206 9.88281C126.791 9.88281 127.262 10.0348 127.618 10.341C127.818 10.5159 128.001 10.7741 128.166 11.1136C128.441 10.695 128.761 10.3868 129.132 10.1848C129.503 9.98278 129.917 9.88281 130.379 9.88281C131.367 9.88281 132.037 10.2618 132.393 11.0199C132.585 11.428 132.681 11.9778 132.681 12.6671V17.863H131.4V12.4422C131.4 11.9216 131.277 11.5655 131.033 11.3718C130.79 11.1781 130.492 11.0803 130.14 11.0803C129.657 11.0803 129.24 11.2531 128.891 11.5967C128.541 11.9424 128.366 12.5172 128.366 13.3231V17.863H127.112V12.7671C127.112 12.2381 127.052 11.8508 126.933 11.6092C126.746 11.2448 126.396 11.0636 125.885 11.0636C125.419 11.0636 124.996 11.2552 124.615 11.6384C124.234 12.0215 124.042 12.7171 124.042 13.723V17.8609H122.81V10.0557Z" fill="#004890"/>
<path d="M139.023 10.2702C139.509 10.5305 139.879 10.8658 140.133 11.2802C140.379 11.6738 140.542 12.132 140.623 12.6567C140.696 13.017 140.731 13.5897 140.731 14.3769H135.396C135.419 15.1703 135.594 15.8076 135.918 16.2866C136.245 16.7655 136.749 17.0071 137.435 17.0071C138.074 17.0071 138.582 16.7801 138.963 16.3261C139.176 16.0616 139.328 15.7576 139.415 15.4119H140.627C140.596 15.6993 140.49 16.0179 140.308 16.3699C140.127 16.7218 139.927 17.0092 139.704 17.2341C139.332 17.6235 138.874 17.8838 138.324 18.0213C138.03 18.0983 137.697 18.1379 137.324 18.1379C136.416 18.1379 135.648 17.7839 135.017 17.0779C134.386 16.3719 134.071 15.3807 134.071 14.1083C134.071 12.8546 134.39 11.8383 135.025 11.0553C135.66 10.2723 136.491 9.88284 137.516 9.88284C138.036 9.88075 138.538 10.0119 139.023 10.2702ZM139.465 13.3356C139.415 12.7671 139.3 12.3131 139.119 11.9737C138.784 11.3427 138.226 11.0261 137.441 11.0261C136.879 11.0261 136.408 11.2427 136.029 11.678C135.648 12.1132 135.448 12.6651 135.425 13.3356H139.465Z" fill="#004890"/>
<path d="M142.296 10.0557H143.466V11.1636C143.814 10.7075 144.181 10.3784 144.568 10.1806C144.955 9.98069 145.388 9.88281 145.863 9.88281C146.904 9.88281 147.608 10.2681 147.973 11.0407C148.173 11.4634 148.275 12.0674 148.275 12.8546V17.8609H147.021V12.942C147.021 12.4651 146.954 12.0819 146.823 11.7904C146.605 11.3052 146.207 11.0615 145.632 11.0615C145.341 11.0615 145.101 11.0928 144.914 11.1573C144.576 11.2635 144.278 11.478 144.022 11.7987C143.816 12.057 143.683 12.3214 143.622 12.5963C143.562 12.8712 143.531 13.2627 143.531 13.7729V17.8609H142.298V10.0557H142.296Z" fill="#004890"/>
<path d="M150.343 7.87793H151.59V10.0562H152.761V11.1266H151.59V16.2205C151.59 16.4933 151.678 16.6745 151.851 16.7661C151.946 16.8202 152.107 16.8452 152.33 16.8452C152.388 16.8452 152.452 16.8431 152.521 16.8411C152.59 16.8369 152.669 16.8306 152.761 16.8161V17.8573C152.619 17.9011 152.471 17.9323 152.319 17.9531C152.167 17.9719 152.001 17.9823 151.824 17.9823C151.249 17.9823 150.857 17.8261 150.653 17.5116C150.447 17.1993 150.345 16.7911 150.345 16.2913V11.1246H149.352V10.0542H150.345V7.87793H150.343Z" fill="#004890"/>
<path d="M14.3099 42.9001L5.2197 27.0897V42.9001H0.850586V20.5693H5.75907L14.6222 36.1049V20.5693H18.9893V42.9001H14.3099Z" fill="#004890"/>
<path d="M18.5732 20.9863V42.4841H14.5498L6.35723 28.2355L4.8016 25.5304V28.65V42.482H1.26757V20.9863H5.5159L13.4815 34.9496L15.0371 37.6776V34.5372V20.9884H18.5732M19.4062 20.1533H14.2062V34.5351L6.00112 20.1533H0.43457V43.3171H5.6346V28.652L14.0667 43.3171H19.4042V20.1533H19.4062Z" fill="#004890"/>
<path d="M21.7803 42.9001V20.5693H38.1634V24.5428H26.3597V29.2555H37.195V33.1539H26.3597V38.8642H38.709V42.9001H21.7803Z" fill="#004890"/>
<path d="M37.7474 20.9863V24.1288H26.7767H25.9437V24.9618V28.8395V29.6725H26.7767H36.779V32.7379H26.7767H25.9437V33.5709V38.4482V39.2812H26.7767H38.2909V42.4841H22.1952V20.9863H37.7474ZM38.5804 20.1533H21.3643V43.3171H39.126V38.4482H26.7788V33.5709H37.6141V28.8395H26.7788V24.9618H38.5825V20.1533H38.5804Z" fill="#004890"/>
<path d="M47.1587 42.9001V24.5428H40.4551V20.5693H58.5479V24.5428H51.8756V42.9001H47.1587Z" fill="#004890"/>
<path d="M58.1309 20.9863V24.1288H52.2895H51.4565V24.9618V42.4841H47.5726V24.9618V24.1288H46.7396H40.8711V20.9863H58.1309ZM58.9639 20.1533H40.0381V24.9618H46.7417V43.3171H52.2916V24.9618H58.966V20.1533H58.9639Z" fill="#004890"/>
<path d="M77.8975 42.9001L75.2027 29.8448L74.428 25.6007L73.6533 29.8448L70.9585 42.9001H66.6103L60.2773 20.5693H65.2525L68.2075 33.3622L68.8281 36.84L69.4675 33.4268L71.9811 20.5693H76.9208L79.5697 33.3518L80.2382 36.8442L80.9067 33.4872L83.8909 20.5693H88.6536L82.3665 42.9001H77.8975Z" fill="#004890"/>
<path d="M88.104 20.9863L82.0522 42.4841H78.2391L75.6131 29.7704L75.2486 27.7711L74.4281 23.2812L73.6097 27.7711L73.2473 29.762L70.6213 42.4841H66.9269L60.8314 20.9863H64.9235L67.8016 33.446L68.0202 34.6726L68.822 39.1583L69.6592 34.6809L69.8778 33.5147L72.3269 20.9905H76.5835L79.1637 33.4335L79.4324 34.8329L80.2341 39.0229L81.0672 34.8392L81.3171 33.5855L84.2263 20.9905H88.104M89.2035 20.1533H83.5599L80.4986 33.4064L80.2466 34.6726L79.978 33.2669L77.2582 20.1533H71.6376L69.0573 33.3502L68.8387 34.5247L68.6158 33.2794L65.5837 20.1533H59.7256L66.2938 43.3171H71.296L74.0616 29.9203L74.426 27.9211L74.7925 29.9307L77.556 43.3171H82.679L89.2035 20.1533Z" fill="#004890"/>
<path d="M99.2406 44.2025C96.0648 44.2025 93.6012 43.3258 91.9227 41.5952C89.6673 39.4711 88.5303 36.3764 88.5303 32.3864C88.5303 28.3213 89.6694 25.2267 91.9144 23.1858L91.9331 23.1692C93.6116 21.4448 96.071 20.5723 99.2427 20.5723C102.414 20.5723 104.872 21.4469 106.552 23.1692L106.569 23.1858C108.806 25.2267 109.938 28.3234 109.938 32.3884C109.938 36.3785 108.801 39.4773 106.561 41.5973C104.876 43.3299 102.419 44.2025 99.2406 44.2025ZM99.2406 24.5436C97.3809 24.5436 95.9378 25.21 94.8319 26.5824C93.7386 27.936 93.1847 29.8873 93.1847 32.3864C93.1847 34.8833 93.7386 36.8367 94.8319 38.1903C95.9398 39.5627 97.3809 40.2291 99.2406 40.2291C101.1 40.2291 102.537 39.5627 103.635 38.1903C104.707 36.8367 105.251 34.8833 105.251 32.3864C105.251 29.8998 104.705 27.9485 103.626 26.5907C102.535 25.2142 101.1 24.5436 99.2406 24.5436Z" fill="#004890"/>
<path d="M99.2411 20.9863C102.294 20.9863 104.654 21.8172 106.253 23.4583L106.27 23.4749L106.288 23.4916C108.433 25.4512 109.522 28.4438 109.522 32.386C109.522 36.2574 108.429 39.2541 106.274 41.2929L106.261 41.3054L106.249 41.3179C104.66 42.9547 102.302 43.7857 99.2432 43.7857C96.184 43.7857 93.8224 42.9506 92.223 41.3054L92.2106 41.2929L92.196 41.2804C90.0406 39.2499 88.9473 36.2574 88.9473 32.3881C88.9473 28.4459 90.0406 25.4533 92.196 23.4957L92.2147 23.4791L92.2314 23.4603C93.8287 21.8172 96.1881 20.9863 99.2411 20.9863ZM99.2411 40.6431C101.207 40.6431 102.796 39.9039 103.962 38.4461C105.093 37.0175 105.668 34.9787 105.668 32.386C105.668 29.8037 105.091 27.7649 103.954 26.3321C102.794 24.8702 101.209 24.1288 99.2411 24.1288C97.2752 24.1288 95.6821 24.866 94.5076 26.3217C93.3538 27.7503 92.7687 29.7912 92.7687 32.386C92.7687 34.9808 93.3538 37.0217 94.5076 38.4503C95.6842 39.9059 97.2752 40.6431 99.2411 40.6431ZM99.2411 20.1533C95.9549 20.1533 93.3934 21.0696 91.6337 22.8772C89.2971 25.0014 88.1143 28.2001 88.1143 32.386C88.1143 36.4948 89.2992 39.6956 91.6254 41.8864C93.3851 43.7003 95.9487 44.6187 99.2432 44.6187C102.536 44.6187 105.099 43.7003 106.846 41.8989C109.175 39.6956 110.355 36.4948 110.355 32.386C110.355 28.2001 109.177 24.9993 106.851 22.8772C105.089 21.0696 102.529 20.1533 99.2411 20.1533ZM99.2411 39.8101C97.5147 39.8101 96.1798 39.1937 95.1552 37.9276C94.1244 36.651 93.6017 34.785 93.6017 32.386C93.6017 29.9869 94.1244 28.121 95.1552 26.8444C96.1777 25.5762 97.5147 24.9618 99.239 24.9618C100.963 24.9618 102.29 25.5803 103.3 26.8507C104.318 28.1335 104.835 29.9973 104.835 32.3881C104.835 34.7892 104.32 36.6551 103.31 37.9317C102.298 39.1958 100.965 39.8101 99.2411 39.8101Z" fill="#004890"/>
<path d="M125.527 42.9001L125.524 42.8918C125.383 42.4003 125.281 41.9984 125.22 41.6943C125.1 41.0717 125.033 40.4219 125.023 39.7701L124.991 37.6959C124.97 36.284 124.71 35.3302 124.217 34.8595C123.721 34.391 122.78 34.1515 121.418 34.1515H116.618V42.898H112.038V20.5693H122.992C124.569 20.6006 125.753 20.788 126.605 21.1462C127.444 21.4981 128.167 22.025 128.75 22.7081C129.233 23.2704 129.621 23.9034 129.902 24.5886C130.183 25.2737 130.327 26.063 130.327 26.9397C130.327 27.9956 130.056 29.0493 129.523 30.0697C129.117 30.8465 128.5 31.4609 127.688 31.894L127.036 32.2418L127.669 32.6208C128.286 32.9894 128.754 33.4517 129.061 33.9953C129.494 34.7658 129.706 35.9091 129.706 37.4897V38.9871C129.706 39.0162 129.708 41.8339 129.796 42.2233C129.85 42.4794 129.937 42.7064 130.056 42.9043H125.527V42.9001ZM116.62 30.4363H121.888C122.946 30.4363 123.717 30.3176 124.244 30.0739C125.162 29.6553 125.629 28.814 125.629 27.5728C125.629 26.2317 125.177 25.3195 124.289 24.8593C123.783 24.5948 123.042 24.4678 122.026 24.4678H116.62V30.4363Z" fill="#004890"/>
<path d="M122.986 20.9863C124.515 21.0155 125.646 21.1946 126.447 21.5299C127.226 21.8568 127.897 22.3441 128.438 22.9793C128.892 23.5082 129.255 24.1018 129.521 24.7453C129.781 25.3804 129.915 26.1176 129.915 26.9381C129.915 27.9273 129.661 28.9144 129.159 29.8766C128.792 30.5784 128.234 31.1323 127.499 31.5259L126.197 32.2194L127.464 32.9753C128.018 33.3065 128.434 33.7167 128.705 34.1957C129.096 34.8933 129.296 36.0012 129.296 37.4861V38.9834C129.296 39.2791 129.298 41.8781 129.394 42.3008C129.407 42.3633 129.421 42.4237 129.438 42.482H125.846C125.75 42.1342 125.679 41.8427 125.633 41.6157C125.516 41.0138 125.452 40.3912 125.444 39.7622L125.412 37.6881C125.389 36.1366 125.094 35.112 124.506 34.556C123.923 34.002 122.915 33.7334 121.422 33.7334H117.039H116.206V34.5664V42.4799H112.459V20.9863H122.986ZM116.203 30.8533H117.036H121.889C123.007 30.8533 123.836 30.7221 124.415 30.4534C125.762 29.8391 126.045 28.5479 126.045 27.5733C126.045 26.0656 125.519 25.0285 124.481 24.4912C123.913 24.1955 123.109 24.0518 122.024 24.0518H117.034H116.201V24.8848V30.0203V30.8533M122.995 20.1533H111.624V43.3171H117.036V34.5705H121.42C122.98 34.5705 123.646 34.8933 123.932 35.1641C124.213 35.4327 124.554 36.0908 124.577 37.7047L124.608 39.7789C124.619 40.4557 124.688 41.1284 124.813 41.7781C124.875 42.0926 124.979 42.507 125.123 43.0068L125.212 43.3171H131.096L131.064 43.2546L130.86 43.1297C130.519 42.9193 130.304 42.5945 130.206 42.1301C130.156 41.9031 130.127 40.2079 130.127 38.9834V37.4861C130.127 35.8325 129.898 34.6226 129.429 33.7875C129.086 33.1773 128.569 32.6671 127.891 32.261C128.778 31.7883 129.45 31.1198 129.898 30.2639C130.462 29.1831 130.75 28.0648 130.75 26.9402C130.75 26.0114 130.596 25.1659 130.294 24.4308C129.994 23.7061 129.584 23.0355 129.073 22.4399C128.447 21.7048 127.674 21.1425 126.772 20.7635C125.868 20.3845 124.636 20.1846 122.995 20.1533ZM117.036 30.0203V24.8848H122.026C122.961 24.8848 123.657 25.0014 124.098 25.2305C124.848 25.6178 125.212 26.3842 125.212 27.5733C125.212 28.65 124.84 29.3455 124.069 29.6954C123.603 29.9099 122.87 30.0203 121.889 30.0203H117.036Z" fill="#004890"/>
<path d="M146.287 42.9001L139.406 33.1623L137.195 35.4322V42.9001H132.584V20.5693H137.195V29.7345L145.787 20.5693H151.847L142.693 29.7678L152.31 42.9001H146.287Z" fill="#004890"/>
<path d="M150.844 20.9863L142.649 29.2227L142.147 29.7266L142.568 30.3014L151.489 42.482H146.502L140.036 33.3294L139.457 32.5109L138.757 33.2294L137.014 35.0204L136.779 35.2619V35.6014V42.4841H133.001V20.9863H136.779V28.6833V30.7908L138.22 29.2539L145.969 20.9884H150.844M152.849 20.1533H145.608L137.614 28.6833V20.1533H132.17V43.3171H137.614V35.6014L139.357 33.8104L146.073 43.315H153.132L143.241 29.8078L152.849 20.1533Z" fill="#004890"/>
<path d="M129.352 41.783C129.754 41.783 129.754 41.1582 129.352 41.1582C128.95 41.1582 128.95 41.783 129.352 41.783Z" fill="#004890"/>
</svg>
