<svg width="12" height="13" viewBox="0 0 12 13" fill="none" xmlns="http://www.w3.org/2000/svg">
<path d="M10.8667 3.27803H8.21419V2.39208C8.20174 2.05246 8.05514 1.73163 7.80653 1.49993C7.55792 1.26822 7.22758 1.14454 6.88792 1.156H5.29641C4.95675 1.14454 4.62641 1.26822 4.3778 1.49993C4.12919 1.73163 3.98259 2.05246 3.97014 2.39208V3.27803H1.31761C1.17692 3.27803 1.04198 3.33392 0.942491 3.43341C0.843002 3.5329 0.787109 3.66783 0.787109 3.80853C0.787109 3.94923 0.843002 4.08417 0.942491 4.18366C1.04198 4.28314 1.17692 4.33904 1.31761 4.33904H1.84812V10.1746C1.84812 10.5967 2.0158 11.0015 2.31426 11.3C2.61273 11.5984 3.01754 11.7661 3.43964 11.7661H8.74469C9.16679 11.7661 9.5716 11.5984 9.87006 11.3C10.1685 11.0015 10.3362 10.5967 10.3362 10.1746V4.33904H10.8667C11.0074 4.33904 11.1423 4.28314 11.2418 4.18366C11.3413 4.08417 11.3972 3.94923 11.3972 3.80853C11.3972 3.66783 11.3413 3.5329 11.2418 3.43341C11.1423 3.33392 11.0074 3.27803 10.8667 3.27803ZM5.03115 2.39208C5.03115 2.3072 5.14256 2.21702 5.29641 2.21702H6.88792C7.04177 2.21702 7.15318 2.3072 7.15318 2.39208V3.27803H5.03115V2.39208ZM9.2752 10.1746C9.2752 10.3153 9.21931 10.4502 9.11982 10.5497C9.02033 10.6492 8.88539 10.7051 8.74469 10.7051H3.43964C3.29894 10.7051 3.164 10.6492 3.06451 10.5497C2.96502 10.4502 2.90913 10.3153 2.90913 10.1746V4.33904H9.2752V10.1746Z" fill="#DADADA" stroke="#DADADA" stroke-width="0.5"/>
</svg>
