<svg width="11" height="12" viewBox="0 0 11 12" fill="none" xmlns="http://www.w3.org/2000/svg">
<path d="M10.4452 2.89324L8.61858 1.06657C8.38018 0.842636 8.06778 0.714144 7.7408 0.70554C7.41383 0.696935 7.0951 0.808818 6.84525 1.01991L0.84525 7.01991C0.62976 7.23722 0.495586 7.52204 0.46525 7.82657L0.178583 10.6066C0.169603 10.7042 0.182273 10.8026 0.215691 10.8948C0.249109 10.987 0.302451 11.0707 0.371917 11.1399C0.43421 11.2017 0.508087 11.2506 0.589312 11.2838C0.670537 11.3169 0.757512 11.3337 0.84525 11.3332H0.90525L3.68525 11.0799C3.98978 11.0496 4.27461 10.9154 4.49192 10.6999L10.4919 4.69991C10.7248 4.45388 10.8506 4.12558 10.8419 3.78693C10.8332 3.44828 10.6905 3.12691 10.4452 2.89324ZM3.56525 9.74657L1.56525 9.93324L1.74525 7.93324L5.51192 4.21324L7.31192 6.01324L3.56525 9.74657ZM8.17858 5.11991L6.39192 3.33324L7.69192 1.99991L9.51192 3.81991L8.17858 5.11991Z" fill="#DADADA"/>
</svg>
