<svg width="11" height="11" viewBox="0 0 11 11" fill="none" xmlns="http://www.w3.org/2000/svg">
<path d="M10.5527 2.35613L8.72601 0.529462C8.4876 0.305526 8.1752 0.177035 7.84823 0.168431C7.52125 0.159826 7.20253 0.271709 6.95267 0.482796L0.952672 6.4828C0.737182 6.70011 0.603008 6.98493 0.572672 7.28946L0.286005 10.0695C0.277024 10.1671 0.289695 10.2655 0.323113 10.3577C0.35653 10.4499 0.409873 10.5336 0.479338 10.6028C0.541632 10.6646 0.615509 10.7135 0.696734 10.7466C0.777959 10.7798 0.864934 10.7966 0.952672 10.7961H1.01267L3.79267 10.5428C4.0972 10.5125 4.38203 10.3783 4.59934 10.1628L10.5993 4.1628C10.8322 3.91677 10.9581 3.58847 10.9493 3.24982C10.9406 2.91117 10.7979 2.5898 10.5527 2.35613ZM3.67267 9.20946L1.67267 9.39613L1.85267 7.39613L5.61934 3.67613L7.41934 5.47613L3.67267 9.20946ZM8.28601 4.5828L6.49934 2.79613L7.79934 1.4628L9.61934 3.2828L8.28601 4.5828Z" fill="#004890"/>
</svg>
