<svg width="24" height="24" viewBox="0 0 24 24" fill="none" xmlns="http://www.w3.org/2000/svg">
<path fill-rule="evenodd" clip-rule="evenodd" d="M4.75 2.75V21.25H19.25V6.75H16.6C15.8544 6.75 15.25 6.14558 15.25 5.4V2.75H4.75ZM16.3049 1.25106C16.2871 1.25035 16.2693 1.25 16.2515 1.25H4.6C3.85442 1.25 3.25 1.85441 3.25 2.6V21.4C3.25 22.1456 3.85441 22.75 4.6 22.75H19.4C20.1456 22.75 20.75 22.1456 20.75 21.4V5.74853C20.75 5.73069 20.7496 5.71289 20.7489 5.69514C20.7496 5.679 20.75 5.66276 20.75 5.64645C20.75 5.35377 20.6337 5.07307 20.4268 4.86612L20.3553 4.79461C20.355 4.79439 20.3548 4.79416 20.3546 4.79393L17.2061 1.64541L17.1339 1.57322C16.9269 1.36627 16.6462 1.25 16.3536 1.25C16.3372 1.25 16.321 1.25035 16.3049 1.25106Z" fill="#004890"/>
</svg>
