<svg width="113" height="52" viewBox="0 0 113 52" fill="none" xmlns="http://www.w3.org/2000/svg">
<g clip-path="url(#clip0_217_28524)">
<path d="M56.4941 12.0387L60.7448 16.3533L56.4941 20.6781L60.7448 24.9927L69.2563 16.3533L60.7549 7.71387L56.4941 12.0387Z" fill="#005191"/>
<path d="M56.4971 3.40408L43.7305 16.3672L47.9804 20.6795L60.747 7.7164L56.4971 3.40408Z" fill="url(#paint0_linear_217_28524)"/>
<path d="M56.5009 12.0342L47.9883 20.6748L52.2375 24.9879L60.75 16.3473L56.5009 12.0342Z" fill="url(#paint1_linear_217_28524)"/>
<path d="M60.7458 24.9923L56.4951 29.3069L52.2344 24.9923L56.4951 20.6777L60.7458 24.9923Z" fill="url(#paint2_linear_217_28524)"/>
<path d="M57.6306 48.0542C57.5603 48.3704 57.4899 48.4622 57.0779 48.6152C55.8581 49.0561 54.5743 49.2871 53.2794 49.2986C51.7017 49.3416 50.1543 48.8539 48.878 47.9114C48.1587 47.3173 47.5842 46.5627 47.199 45.7065C46.8138 44.8503 46.6284 43.9154 46.6572 42.9746C46.6379 41.9891 46.8491 41.0129 47.2736 40.1264C47.6981 39.2398 48.3237 38.4681 49.0991 37.8746C50.4447 36.9496 52.0477 36.4883 53.6713 36.5588C54.8026 36.5578 55.9241 36.7724 56.9774 37.1912C57.4296 37.385 57.5804 37.538 57.5804 37.9154V40.1084H57.098C57.0257 39.6585 56.8797 39.2241 56.6659 38.8232C56.3363 38.3088 55.8802 37.8906 55.3427 37.6098C54.8053 37.329 54.2049 37.1952 53.601 37.2218C50.9682 37.2218 49.3202 39.3536 49.3202 42.8624C49.2428 44.448 49.7157 46.0109 50.6567 47.279C51.0227 47.7036 51.4761 48.0415 51.9848 48.2689C52.4936 48.4962 53.0453 48.6075 53.601 48.5948C54.2043 48.6132 54.8039 48.4935 55.3554 48.2445C55.9068 47.9955 56.396 47.6237 56.7865 47.1566C57.127 46.7448 57.4172 46.2927 57.6507 45.8102H58.113L57.6306 48.0542Z" fill="#B2B2B2"/>
<path d="M74.4227 38.6711H69.0264V39.1301H69.3179C70.0615 39.2015 70.2524 39.2423 70.3227 39.4871C70.3897 39.7846 70.41 40.091 70.383 40.3949V47.3411C70.4098 47.6451 70.3895 47.9514 70.3227 48.2489C70.2122 48.4733 70.0213 48.5651 69.3179 48.6059H69.2174C68.4637 48.4937 68.1321 48.0959 67.4186 46.2701L64.4039 38.5283H63.3086L59.9824 46.5863C59.3393 48.1469 58.9072 48.6263 58.043 48.6263V49.0853H61.1983V48.6263C60.6255 48.6263 60.3844 48.3611 60.3844 47.9429C60.3819 47.7993 60.4093 47.6568 60.4648 47.5247L61.1179 45.8111H64.9868L65.65 47.5655C65.7248 47.7257 65.7691 47.8987 65.7806 48.0755C65.7806 48.4733 65.5395 48.6365 64.8762 48.6671V49.1261H74.0911V48.6569H73.7997C73.046 48.6569 72.8651 48.5243 72.7948 48.2999C72.7224 48.0033 72.6986 47.6966 72.7244 47.3921V39.2627H73.5886C73.9012 39.2287 74.2174 39.2675 74.513 39.376C74.8087 39.4845 75.0761 39.66 75.295 39.889C75.5139 40.1181 75.6785 40.3948 75.7763 40.698C75.8742 41.0013 75.9027 41.3232 75.8597 41.6393C75.8851 42.0399 75.8184 42.441 75.6649 42.811C75.5115 43.1809 75.2754 43.5096 74.9754 43.7711C74.5192 44.1374 73.9488 44.3256 73.3676 44.3015V44.6687C73.959 44.6918 74.5512 44.6576 75.1362 44.5667C77.0957 44.2097 78.2513 43.0673 78.2513 41.5067C78.2513 39.9461 76.8847 38.6711 74.4227 38.6711ZM61.3591 45.0767L63.178 40.7111L64.7355 45.1073L61.3591 45.0767Z" fill="#B2B2B2"/>
<path d="M78.6035 49.0851V48.6261C79.9702 48.5343 80.0003 48.4935 80.0003 47.3307V40.4559C80.0003 39.2829 80.0003 39.2421 78.6035 39.1503V38.6709H83.6782V39.1197C82.2915 39.2115 82.2814 39.3237 82.2814 40.4253V47.3409C82.2814 48.4935 82.2814 48.5445 83.6782 48.6363V49.0953L78.6035 49.0851Z" fill="#B2B2B2"/>
<path d="M94.2286 40.9761C94.0317 40.648 93.817 40.3313 93.5855 40.0275C93.3859 39.7769 93.1307 39.5779 92.8408 39.4467C92.5508 39.3155 92.2344 39.2558 91.9174 39.2727H90.5608V47.3409C90.5608 48.4935 90.5608 48.5445 91.9575 48.6363V49.0953H86.8828V48.6363C88.2495 48.5445 88.2997 48.5037 88.2997 47.3409V39.2625H86.9431C86.6144 39.2421 86.2858 39.3039 85.9861 39.4426C85.6865 39.5814 85.4251 39.7927 85.2248 40.0581C85.009 40.348 84.811 40.6512 84.6319 40.9659H84.1797L84.6319 38.6709H94.2286L94.6607 40.9455L94.2286 40.9761Z" fill="#B2B2B2"/>
<path d="M112.548 46.4023C111.744 48.1567 111.151 48.5239 109.282 48.5239C107.946 48.5239 107.624 48.2689 107.624 47.3101V40.4557C107.624 39.2827 107.624 39.2419 109.011 39.1501V38.6707H103.936V39.1195C105.303 39.2113 105.333 39.2521 105.333 40.4251V47.3407C105.333 48.4219 105.333 48.5341 104.177 48.6157C103.394 48.5035 103.062 48.1261 102.349 46.2799L99.3339 38.5381H98.2386L94.9124 46.5961C94.2692 48.1567 93.8371 48.6361 92.9629 48.6361V49.0951H96.1283V48.6361C95.5455 48.6361 95.3043 48.3709 95.3043 47.9527C95.3018 47.8091 95.3292 47.6666 95.3847 47.5345L96.0579 45.8107H99.9268L100.59 47.5651C100.665 47.7253 100.709 47.8983 100.721 48.0751C100.721 48.4729 100.479 48.6361 99.8263 48.6667V49.1257H112.548L113.031 46.4431L112.548 46.4023ZM96.3092 45.1069L98.118 40.7107L99.6756 45.1069H96.3092Z" fill="#B2B2B2"/>
<path d="M4.01956 42.6791H5.79822C7.00409 42.6791 7.51658 42.2303 7.55678 41.1389H8.03913V44.9231H7.53668C7.5595 44.6874 7.5288 44.4495 7.44693 44.2276C7.36506 44.0058 7.23421 43.806 7.06441 43.6435C6.89461 43.481 6.69038 43.3601 6.46741 43.2902C6.24443 43.2203 6.00864 43.2032 5.77812 43.2401H4.01956V46.8305C4.01956 48.4829 3.93917 48.3911 5.66759 48.5849V49.0439H0V48.5849C1.72841 48.3911 1.64802 48.4829 1.64802 46.8305V38.8745C1.64802 37.2323 1.72841 37.3139 0 37.1201V36.6611H9.04402V39.5171H8.54157C8.29035 38.2013 7.96879 37.2323 6.59209 37.2323H4.01956V42.6791Z" fill="#005191"/>
<path d="M13.5456 47.3307C13.5285 47.6347 13.5487 47.9396 13.6059 48.2385C13.6763 48.5139 14.2189 48.5853 14.9424 48.6261V49.0851H9.91797V48.6261C10.6415 48.6261 11.1942 48.5139 11.2545 48.2385C11.3108 47.9395 11.331 47.6347 11.3148 47.3307V40.4253C11.3311 40.1213 11.3109 39.8165 11.2545 39.5175C11.1942 39.2523 10.6415 39.1707 9.91797 39.1299V38.6709H14.9424V39.1299C14.2189 39.1299 13.6662 39.2523 13.6059 39.5175C13.5486 39.8164 13.5284 40.1213 13.5456 40.4253V47.3307Z" fill="#005191"/>
<path d="M16.168 48.6261C16.8814 48.6261 17.4341 48.5139 17.5045 48.2385C17.565 47.94 17.5887 47.6351 17.5748 47.3307V40.4253C17.589 40.1209 17.5654 39.8159 17.5045 39.5175C17.4341 39.2523 16.8814 39.1707 16.168 39.1299V38.6709H24.1167V41.0679H23.6846C23.4434 40.0479 23.0615 39.2319 21.926 39.2319H19.9162V43.3935H21.2527C21.4452 43.4192 21.641 43.4003 21.8253 43.3382C22.0096 43.2761 22.1776 43.1725 22.3169 43.0351C22.4561 42.8977 22.5629 42.7301 22.6292 42.5449C22.6955 42.3596 22.7196 42.1616 22.6998 41.9655H23.1118V45.4233H22.6797C22.6797 44.6073 22.3079 43.9341 21.2326 43.9341H19.8459V47.3103C19.8459 48.4425 20.4388 48.5241 21.7652 48.5241C23.775 48.5241 24.1167 47.7081 24.7799 46.3821H25.212L24.7296 49.0749H16.168V48.6261Z" fill="#005191"/>
<path d="M44.6675 47.3001C44.0846 45.8925 42.2055 41.0679 41.2006 38.6709H40.1957C38.8592 41.8941 36.9298 46.6575 36.357 47.7489C36.1753 48.1009 35.8761 48.3757 35.5129 48.5241C34.9147 47.9173 34.37 47.2586 33.885 46.5555L32.247 44.2197C32.9003 44.0653 33.4861 43.699 33.9159 43.1762C34.3456 42.6535 34.5958 42.0029 34.6286 41.3229C34.6286 39.5073 33.0208 38.6913 31.1818 38.6913H25.4941V39.1503C26.2076 39.1503 26.7603 39.2727 26.8306 39.5379C26.8876 39.8368 26.9079 40.1417 26.8909 40.4457V47.3409C26.9075 47.6449 26.8872 47.9497 26.8306 48.2487C26.7603 48.5139 26.1976 48.5853 25.4941 48.6363V49.0953H30.5186V48.6363C29.8152 48.6363 29.2424 48.5241 29.1821 48.2487C29.1255 47.9497 29.1053 47.6449 29.1218 47.3409V39.2625H30.2473C31.3527 39.2625 32.1465 39.8133 32.1465 41.4147C32.1465 42.8121 31.6642 43.9239 30.2473 43.9239H29.6343C30.9105 45.9639 32.5585 49.0851 33.5132 49.0851H37.995V48.6261C37.2614 48.6261 37.0403 48.1773 37.2614 47.6061L37.9548 45.8109H41.8236L42.4768 47.5245C42.728 48.1671 42.5873 48.6159 41.7131 48.6159V49.0749H46.1446V48.6159C45.4613 48.6261 44.989 48.0753 44.6675 47.3001ZM38.2462 45.1581L39.9545 40.8843L41.5222 45.1581H38.2462Z" fill="#005191"/>
</g>
<defs>
<linearGradient id="paint0_linear_217_28524" x1="46.5089" y1="17.8548" x2="60.8587" y2="3.71755" gradientUnits="userSpaceOnUse">
<stop stop-color="#B2B2B2"/>
<stop offset="1" stop-color="#F4F3F3"/>
</linearGradient>
<linearGradient id="paint1_linear_217_28524" x1="50.1106" y1="22.8264" x2="58.7491" y2="14.3159" gradientUnits="userSpaceOnUse">
<stop stop-color="#B2B2B2"/>
<stop offset="1" stop-color="#F4F3F3"/>
</linearGradient>
<linearGradient id="paint2_linear_217_28524" x1="54.3647" y1="27.1445" x2="58.6789" y2="22.8943" gradientUnits="userSpaceOnUse">
<stop stop-color="#B2B2B2"/>
<stop offset="1" stop-color="#F4F3F3"/>
</linearGradient>
<clipPath id="clip0_217_28524">
<rect width="113" height="51" fill="white" transform="translate(0 0.930664)"/>
</clipPath>
</defs>
</svg>
