<svg width="12" height="14" viewBox="0 0 12 14" fill="none" xmlns="http://www.w3.org/2000/svg">
<path d="M9.33366 4.33292H8.66699V3.07292C8.66699 2.36567 8.38604 1.6874 7.88594 1.1873C7.38585 0.687202 6.70757 0.40625 6.00033 0.40625C5.29308 0.40625 4.6148 0.687202 4.11471 1.1873C3.61461 1.6874 3.33366 2.36567 3.33366 3.07292V4.33292H2.66699C2.13656 4.33292 1.62785 4.54363 1.25278 4.9187C0.877706 5.29378 0.666992 5.80248 0.666992 6.33292V11.6662C0.666992 12.1967 0.877706 12.7054 1.25278 13.0805C1.62785 13.4555 2.13656 13.6662 2.66699 13.6662H9.33366C9.86409 13.6662 10.3728 13.4555 10.7479 13.0805C11.1229 12.7054 11.3337 12.1967 11.3337 11.6662V6.33292C11.3337 5.80248 11.1229 5.29378 10.7479 4.9187C10.3728 4.54363 9.86409 4.33292 9.33366 4.33292ZM4.66699 3.07292C4.65802 2.70978 4.79329 2.35788 5.04318 2.09425C5.29307 1.83061 5.63723 1.67672 6.00033 1.66625C6.36342 1.67672 6.70758 1.83061 6.95747 2.09425C7.20736 2.35788 7.34263 2.70978 7.33366 3.07292V4.33292H4.66699V3.07292ZM10.0003 11.6662C10.0003 11.8431 9.93009 12.0126 9.80506 12.1377C9.68004 12.2627 9.51047 12.3329 9.33366 12.3329H2.66699C2.49018 12.3329 2.32061 12.2627 2.19559 12.1377C2.07056 12.0126 2.00033 11.8431 2.00033 11.6662V6.33292C2.00033 6.15611 2.07056 5.98654 2.19559 5.86151C2.32061 5.73649 2.49018 5.66625 2.66699 5.66625H9.33366C9.51047 5.66625 9.68004 5.73649 9.80506 5.86151C9.93009 5.98654 10.0003 6.15611 10.0003 6.33292V11.6662Z" fill="#004890"/>
</svg>
