<svg width="24" height="24" viewBox="0 0 24 24" fill="none" xmlns="http://www.w3.org/2000/svg">
<path fill-rule="evenodd" clip-rule="evenodd" d="M4.75 21.25V2.75H15.25V5.4C15.25 6.14558 15.8544 6.75 16.6 6.75H19.25V21.25H4.75ZM16.2515 1.25C16.2693 1.25 16.2871 1.25035 16.3049 1.25106C16.321 1.25035 16.3372 1.25 16.3536 1.25C16.6462 1.25 16.9269 1.36627 17.1339 1.57322L17.2061 1.64541L20.3546 4.79393L20.3553 4.79461L20.4268 4.86612C20.6337 5.07307 20.75 5.35377 20.75 5.64645C20.75 5.66276 20.7496 5.679 20.7489 5.69514C20.7496 5.71289 20.75 5.73069 20.75 5.74853V21.4C20.75 22.1456 20.1456 22.75 19.4 22.75H4.6C3.85441 22.75 3.25 22.1456 3.25 21.4V2.6C3.25 1.85441 3.85442 1.25 4.6 1.25H16.2515ZM8 9.25C7.58579 9.25 7.25 9.58579 7.25 10C7.25 10.4142 7.58579 10.75 8 10.75L16 10.75C16.4142 10.75 16.75 10.4142 16.75 10C16.75 9.58579 16.4142 9.25 16 9.25L8 9.25ZM7.25 18C7.25 17.5858 7.58579 17.25 8 17.25H16C16.4142 17.25 16.75 17.5858 16.75 18C16.75 18.4142 16.4142 18.75 16 18.75H8C7.58579 18.75 7.25 18.4142 7.25 18ZM8 13.25C7.58579 13.25 7.25 13.5858 7.25 14C7.25 14.4142 7.58579 14.75 8 14.75H12C12.4142 14.75 12.75 14.4142 12.75 14C12.75 13.5858 12.4142 13.25 12 13.25H8Z" fill="#004890"/>
</svg>
