<svg width="186" height="50" viewBox="0 0 186 50" fill="none" xmlns="http://www.w3.org/2000/svg">
<g clip-path="url(#clip0_217_28480)">
<path d="M3.91579 15.4149V19.3937C3.84702 19.9384 3.94247 20.4913 4.18989 20.9813C4.33612 21.1353 4.51477 21.2548 4.71289 21.3311C4.91101 21.4074 5.12362 21.4385 5.33526 21.4223H5.87368V21.8143H0V21.4223H0.518842C0.755158 21.4441 0.993069 21.404 1.20929 21.3061C1.42551 21.2082 1.61262 21.0557 1.75232 20.8637C1.93307 20.3961 2.00343 19.893 1.95789 19.3937V10.5737C2.02006 10.0323 1.92488 9.48448 1.68379 8.9959C1.53424 8.8402 1.35246 8.71916 1.15121 8.64128C0.94996 8.56341 0.734118 8.53058 0.518842 8.5451H0V8.1531H5.00242C5.9757 8.11838 6.94805 8.24419 7.88053 8.5255C8.57979 8.77356 9.19427 9.21538 9.65242 9.7995C10.137 10.4006 10.3936 11.1539 10.3768 11.9261C10.3971 12.432 10.3099 12.9365 10.1208 13.4062C9.93184 13.8758 9.64538 14.2999 9.28042 14.6505C8.42428 15.3955 7.30915 15.7723 6.17716 15.6991C5.82371 15.6966 5.4707 15.6737 5.11989 15.6305C4.73811 15.5815 4.32695 15.5031 3.91579 15.4149ZM3.91579 14.8367C4.26821 14.902 4.59453 14.951 4.89474 14.9837C5.12847 15.0144 5.36385 15.0308 5.59958 15.0327C5.93976 15.0355 6.27658 14.9652 6.58731 14.8266C6.89804 14.6879 7.17546 14.4842 7.40084 14.2291C7.91732 13.6562 8.18806 12.9029 8.15463 12.1319C8.15915 11.5628 8.03533 11 7.79242 10.4855C7.59017 10.0151 7.24844 9.61827 6.81347 9.3487C6.35726 9.0897 5.84008 8.95773 5.31568 8.9665C4.84287 8.97518 4.37284 9.04099 3.91579 9.1625V14.8367Z" fill="#77777A"/>
<path d="M13.2547 16.6894H17.6795V13.9454C17.7004 13.6162 17.6707 13.2857 17.5914 12.9654C17.5309 12.8337 17.4273 12.7265 17.2977 12.6616C17.1039 12.5512 16.8844 12.4938 16.6614 12.495H16.3286V12.2402H20.401V12.495H20.0681C19.8454 12.496 19.6265 12.5533 19.4318 12.6616C19.3609 12.6956 19.2975 12.7434 19.2454 12.8023C19.1932 12.8612 19.1534 12.93 19.1284 13.0046C19.0554 13.3258 19.029 13.6559 19.05 13.9846V20.1488C19.0288 20.4781 19.0586 20.8087 19.1381 21.1288C19.1962 21.2591 19.2961 21.366 19.422 21.4326C19.6193 21.5434 19.842 21.6008 20.0681 21.5992H20.401V21.854H16.3188V21.511H16.6418C16.8018 21.5268 16.9632 21.5028 17.1117 21.4413C17.2603 21.3797 17.3914 21.2825 17.4935 21.1582C17.6481 20.8178 17.7089 20.4423 17.6697 20.0704V17.1304H13.2547V20.0704C13.2335 20.3997 13.2632 20.7303 13.3428 21.0504C13.4033 21.1822 13.5069 21.2894 13.6365 21.3542C13.83 21.4655 14.0496 21.523 14.2728 21.5208H14.6154V21.7756H10.5332V21.511H10.866C11.026 21.5268 11.1874 21.5028 11.336 21.4413C11.4845 21.3797 11.6156 21.2825 11.7177 21.1582C11.8658 20.816 11.9232 20.4413 11.8842 20.0704V13.9454C11.9054 13.6162 11.8756 13.2856 11.796 12.9654C11.738 12.8352 11.6381 12.7282 11.5122 12.6616C11.3146 12.5517 11.0921 12.4943 10.866 12.495H10.5332V12.2402H14.6056V12.495H14.263C14.0402 12.4956 13.8212 12.5529 13.6267 12.6616C13.4847 12.7319 13.3758 12.855 13.3232 13.0046C13.2454 13.3251 13.2157 13.6554 13.2351 13.9846L13.2547 16.6894Z" fill="#77777A"/>
<path d="M25.4534 21.511V21.7658H21.3418V21.511H21.6746C21.8346 21.5268 21.996 21.5028 22.1446 21.4413C22.2931 21.3797 22.4242 21.2825 22.5263 21.1582C22.674 20.8159 22.7313 20.4413 22.6927 20.0704V13.9454C22.7136 13.6162 22.6839 13.2857 22.6046 12.9654C22.5466 12.8352 22.4467 12.7282 22.3207 12.6616C22.1232 12.5517 21.9007 12.4943 21.6746 12.495H21.3418V12.2402H25.4534V12.495H25.1107C24.9523 12.481 24.7929 12.5057 24.6462 12.5672C24.4995 12.6287 24.37 12.725 24.2689 12.8478C24.1138 13.1881 24.053 13.5638 24.0926 13.9356V20.0998C24.0721 20.4291 24.1018 20.7596 24.1807 21.0798C24.2406 21.2121 24.3444 21.3194 24.4744 21.3836C24.6679 21.4949 24.8876 21.5524 25.1107 21.5502L25.4534 21.511Z" fill="#77777A"/>
<path d="M34.3319 19.159H34.5668L33.7543 21.756H26.373V21.511H26.7255C26.8905 21.5239 27.056 21.4947 27.2067 21.4261C27.3573 21.3576 27.4882 21.2519 27.5869 21.119C27.7154 20.7887 27.7657 20.4332 27.7338 20.0802V13.9454C27.779 13.5587 27.711 13.1671 27.538 12.8184C27.4359 12.7069 27.3094 12.6206 27.1685 12.5662C27.0275 12.5118 26.8759 12.4908 26.7255 12.5048H26.373V12.25H30.6608V12.5048C30.3059 12.4767 29.9491 12.5234 29.6134 12.642C29.4387 12.7167 29.2939 12.8478 29.2022 13.0144C29.1035 13.3646 29.0671 13.7295 29.0945 14.0924V20.09C29.0772 20.3631 29.1172 20.6369 29.212 20.8936C29.2714 20.9949 29.3652 21.0714 29.4763 21.1092C29.8377 21.1761 30.2058 21.1991 30.5727 21.1778H31.2678C31.7856 21.2026 32.3042 21.1464 32.8047 21.0112C33.1173 20.8904 33.3937 20.6913 33.6075 20.433C33.9138 20.0487 34.1583 19.6189 34.3319 19.159Z" fill="#77777A"/>
<path d="M42.2715 19.159H42.5064L41.6939 21.756H34.2637V21.511H34.6161C34.7795 21.5222 34.9431 21.4922 35.0919 21.4237C35.2406 21.3552 35.3699 21.2504 35.4678 21.119C35.5959 20.7887 35.6462 20.4332 35.6146 20.0802V13.9454C35.6593 13.5587 35.5913 13.1673 35.4188 12.8184C35.3168 12.7069 35.1903 12.6206 35.0493 12.5662C34.9084 12.5118 34.7567 12.4908 34.6063 12.5048H34.2637V12.25H38.5515V12.5048C38.1966 12.4767 37.8397 12.5234 37.504 12.642C37.3293 12.7167 37.1846 12.8478 37.0928 13.0144C36.9941 13.3646 36.9577 13.7295 36.9851 14.0924V20.09C36.9678 20.3631 37.0078 20.6369 37.1026 20.8936C37.1621 20.9949 37.2559 21.0714 37.3669 21.1092C37.7283 21.1762 38.0965 21.1992 38.4634 21.1778H39.1584C39.6763 21.2028 40.1948 21.1466 40.6954 21.0112C41.0115 20.8919 41.2914 20.6927 41.5079 20.433C41.8285 20.0517 42.0863 19.6216 42.2715 19.159Z" fill="#77777A"/>
<path d="M46.088 21.511V21.7658H42.0156V21.511H42.3485C42.5085 21.5268 42.6698 21.5028 42.8184 21.4413C42.9669 21.3797 43.098 21.2825 43.2002 21.1582C43.3474 20.8158 43.4047 20.4413 43.3666 20.0704V13.9454C43.3873 13.6162 43.3576 13.2857 43.2785 12.9654C43.2198 12.8356 43.12 12.7288 42.9946 12.6616C42.797 12.5517 42.5745 12.4943 42.3485 12.495H42.0156V12.2402H46.0978V12.495H45.7552C45.5968 12.481 45.4374 12.5057 45.2907 12.5672C45.144 12.6287 45.0145 12.725 44.9133 12.8478C44.7588 13.1882 44.6979 13.5638 44.7371 13.9356V20.0998C44.7154 20.4291 44.7451 20.7597 44.8252 21.0798C44.885 21.2121 44.9888 21.3194 45.1189 21.3836C45.3126 21.4945 45.5321 21.5519 45.7552 21.5502L46.088 21.511Z" fill="#77777A"/>
<path d="M49.7019 17.346V20.1096C49.6538 20.4964 49.722 20.8888 49.8977 21.2366C49.9987 21.3467 50.1236 21.4322 50.2628 21.4866C50.4019 21.5409 50.5516 21.5627 50.7004 21.5502H51.0627V21.805H46.9902V21.511H47.3427C47.5085 21.5228 47.6746 21.4921 47.8254 21.4218C47.9761 21.3515 48.1064 21.2439 48.2041 21.1092C48.3269 20.7776 48.3738 20.4226 48.3412 20.0704V13.9454C48.3877 13.5597 48.3232 13.1686 48.1552 12.8184C48.0531 12.7069 47.9266 12.6206 47.7857 12.5662C47.6447 12.5118 47.4931 12.4908 47.3427 12.5048H46.9902V12.25H50.4753C51.1575 12.2257 51.839 12.3151 52.4919 12.5146C52.9815 12.6897 53.4122 12.9986 53.7352 13.4064C54.0737 13.8281 54.2538 14.3551 54.2442 14.896C54.2579 15.2503 54.197 15.6036 54.0655 15.9328C53.9339 16.262 53.7347 16.5599 53.4807 16.807C53.1868 17.0759 52.8425 17.2837 52.4677 17.4183C52.093 17.5529 51.6952 17.6116 51.2976 17.591C51.0488 17.59 50.8004 17.5737 50.5536 17.542C50.2893 17.4636 50.0054 17.4146 49.7019 17.346ZM49.7019 16.9442L50.3578 17.052C50.5208 17.0619 50.6843 17.0619 50.8473 17.052C51.0831 17.052 51.3162 17.0013 51.5307 16.9032C51.7452 16.8051 51.9361 16.662 52.0905 16.4836C52.4502 16.0806 52.6397 15.5536 52.6192 15.0136C52.621 14.614 52.5341 14.219 52.3647 13.8572C52.2178 13.5257 51.9715 13.2482 51.6598 13.0634C51.3403 12.8837 50.9788 12.7924 50.6123 12.7988C50.3046 12.8098 49.9992 12.8558 49.7019 12.936V16.9442Z" fill="#77777A"/>
<path d="M60.4987 12.0438V15.3464H60.2442C60.1909 14.8149 60.0346 14.2989 59.784 13.8274C59.5494 13.4427 59.2097 13.1332 58.8051 12.9356C58.4194 12.7185 57.9847 12.6038 57.5423 12.6024C57.0945 12.5889 56.6591 12.7506 56.3284 13.0532C56.1848 13.1742 56.068 13.3238 55.9854 13.4926C55.9028 13.6613 55.8562 13.8454 55.8487 14.0332C55.8493 14.326 55.9573 14.6085 56.1521 14.827C56.7667 15.4068 57.4708 15.8834 58.2373 16.2382C58.8747 16.5566 59.4867 16.9235 60.0679 17.3358C60.3795 17.5774 60.6337 17.8854 60.8119 18.2373C60.9848 18.5739 61.0754 18.9467 61.0763 19.3252C61.0775 19.6778 61.0029 20.0266 60.8576 20.3478C60.7124 20.6691 60.4998 20.9553 60.2344 21.1872C59.6404 21.7232 58.8601 22.0047 58.0611 21.9711C57.7989 21.9728 57.537 21.9532 57.2779 21.9124C56.9699 21.8448 56.6659 21.7597 56.3675 21.6575C56.0864 21.55 55.7942 21.4744 55.4963 21.4322C55.4456 21.4305 55.3952 21.4392 55.3481 21.4577C55.301 21.4763 55.2581 21.5043 55.2221 21.54C55.1329 21.6703 55.082 21.8231 55.0753 21.981H54.8208V18.747H55.0753C55.1461 19.2848 55.3118 19.8058 55.5648 20.2856C55.8072 20.6515 56.146 20.9431 56.5437 21.1284C56.9747 21.3573 57.4558 21.4752 57.9436 21.4713C58.4537 21.5035 58.9561 21.3346 59.3435 21.0009C59.5028 20.8659 59.6308 20.6978 59.7188 20.5083C59.8067 20.3187 59.8523 20.1123 59.8526 19.9034C59.8478 19.6523 59.7805 19.4064 59.6568 19.1879C59.5067 18.9263 59.3033 18.6992 59.0596 18.5216C58.5835 18.1855 58.0901 17.8748 57.5814 17.5906C56.9632 17.2842 56.3678 16.9337 55.7997 16.542C55.4762 16.2993 55.2063 15.9923 55.0068 15.6404C54.8275 15.3062 54.7365 14.9318 54.7425 14.5526C54.7401 14.2173 54.8097 13.8855 54.9465 13.5794C55.0833 13.2734 55.2841 13.0004 55.5354 12.7788C56.0841 12.2755 56.8083 12.008 57.552 12.034C58.1102 12.0465 58.6599 12.1732 59.1673 12.4064C59.3418 12.4968 59.5306 12.5564 59.7253 12.5828C59.8367 12.5885 59.9459 12.5497 60.0288 12.475C60.1311 12.3485 60.1956 12.1956 60.2148 12.034L60.4987 12.0438Z" fill="#77777A"/>
<path d="M62.0851 24.1954V23.8818C62.5227 23.75 62.9113 23.4907 63.2011 23.137C63.4506 22.8367 63.589 22.4594 63.5927 22.0688C63.597 21.9894 63.5765 21.9106 63.5339 21.8434C63.5245 21.8248 63.5106 21.8089 63.4935 21.7969C63.4765 21.7849 63.4567 21.7774 63.4361 21.7748C63.3174 21.804 63.2047 21.8538 63.1032 21.9218C63.0208 21.9614 62.9303 21.9815 62.8389 21.9806C62.7383 21.9858 62.6377 21.9702 62.5434 21.9348C62.4491 21.8994 62.3631 21.8449 62.2907 21.7748C62.2201 21.6987 62.1655 21.6092 62.1302 21.5115C62.0949 21.4139 62.0795 21.3101 62.0851 21.2064C62.0836 21.0936 62.1064 20.9818 62.152 20.8786C62.1977 20.7755 62.265 20.6834 62.3494 20.6086C62.5243 20.4451 62.7564 20.3571 62.9955 20.3636C63.1535 20.3667 63.309 20.4042 63.451 20.4736C63.593 20.543 63.7182 20.6426 63.8178 20.7654C64.0708 21.0657 64.2003 21.4511 64.18 21.8434C64.1785 22.3391 64.0016 22.8182 63.6808 23.1958C63.2564 23.6762 62.7022 24.0234 62.0851 24.1954Z" fill="#77777A"/>
<path d="M70.7283 14.494H77.0621V10.574C77.0898 10.116 77.0469 9.65659 76.9348 9.21175C76.8507 9.01979 76.7016 8.86365 76.5139 8.77075C76.2354 8.616 75.922 8.53504 75.6035 8.53555H75.1238V8.14355H80.9975V8.53555H80.5178C80.2006 8.53574 79.8881 8.61309 79.6074 8.76095C79.5073 8.80829 79.4176 8.87514 79.3437 8.9576C79.2697 9.04005 79.2129 9.13645 79.1766 9.24115C79.0757 9.67113 79.0361 10.1133 79.0592 10.5544V19.3744C79.032 19.829 79.0749 20.2852 79.1864 20.7268C79.2719 20.9121 79.4166 21.0638 79.5976 21.158C79.8804 21.3108 80.1964 21.3915 80.5178 21.3932H80.9975V21.7852H75.1238V21.3932H75.6035C75.8301 21.4134 76.0583 21.3795 76.2693 21.2943C76.4803 21.2091 76.6681 21.0751 76.8174 20.9032C77.039 20.4226 77.127 19.891 77.0719 19.3646V15.229H70.7283V19.3842C70.701 19.8388 70.7439 20.295 70.8556 20.7366C70.9409 20.9253 71.09 21.078 71.2765 21.1678C71.5547 21.3233 71.8683 21.4043 72.1869 21.403H72.6764V21.795H66.8027V21.403H67.2824C67.5129 21.4284 67.7461 21.398 67.9625 21.3144C68.1788 21.2309 68.372 21.0966 68.5257 20.9228C68.7408 20.4403 68.8252 19.9096 68.7704 19.3842V10.5642C68.7979 10.1062 68.755 9.64682 68.6432 9.20195C68.5639 9.01879 68.4262 8.86713 68.2516 8.77075C67.9688 8.61794 67.6527 8.53716 67.3314 8.53555H66.8517V8.14355H72.7254V8.53555H72.2359C71.9184 8.53332 71.6054 8.61081 71.3255 8.76095C71.1246 8.85834 70.9699 9.03077 70.8947 9.24115C70.7916 9.67078 70.7521 10.1132 70.7773 10.5544L70.7283 14.494Z" fill="#77777A"/>
<path d="M86.7639 18.5709H83.0341L82.388 20.0703C82.2601 20.3315 82.1805 20.6137 82.153 20.9033C82.1549 20.9787 82.1745 21.0526 82.2102 21.119C82.2459 21.1854 82.2968 21.2424 82.3586 21.2855C82.6195 21.43 82.9121 21.5075 83.2103 21.5109V21.7657H80.2734V21.5109C80.5506 21.488 80.8171 21.3935 81.0468 21.2365C81.3941 20.8252 81.6629 20.3535 81.8398 19.8449L85.2367 12.0049H85.4716L88.8001 19.9429C88.9576 20.4013 89.2038 20.8242 89.5245 21.1875C89.784 21.393 90.1041 21.5067 90.4349 21.5109V21.7657H86.6464V21.5109C86.9166 21.5233 87.1848 21.4588 87.4198 21.3247C87.4837 21.2791 87.5357 21.2188 87.5715 21.1489C87.6073 21.079 87.6258 21.0014 87.6253 20.9229C87.5875 20.5823 87.4915 20.2508 87.3414 19.9429L86.7639 18.5709ZM86.5485 18.0417L84.9332 14.1805L83.2592 18.0417H86.5485Z" fill="#77777A"/>
<path d="M98.5011 12.0439L98.7556 15.0525H98.5011C98.315 14.42 97.9792 13.8417 97.5221 13.3669C97.2303 13.0932 96.887 12.8803 96.5122 12.7407C96.1374 12.601 95.7387 12.5374 95.3391 12.5535C94.7939 12.5279 94.2516 12.6467 93.7669 12.8979C93.2822 13.1492 92.8723 13.5239 92.5784 13.9843C92.0352 14.845 91.7592 15.8478 91.7855 16.8655C91.7757 17.7211 91.9562 18.568 92.3141 19.3449C92.6022 20.0153 93.0826 20.5849 93.6944 20.9815C94.2189 21.3145 94.8258 21.4944 95.4468 21.5009C95.7771 21.5 96.1061 21.4572 96.4257 21.3735C96.7678 21.2865 97.097 21.1547 97.4047 20.9815V18.2669C97.4288 17.9364 97.3923 17.6043 97.297 17.2869C97.2255 17.1399 97.1089 17.0197 96.9641 16.9439C96.7084 16.8464 96.4343 16.8063 96.1614 16.8263V16.6107H99.852V16.8655H99.6758C99.5278 16.8495 99.3783 16.876 99.2448 16.9419C99.1113 17.0079 98.9993 17.1106 98.922 17.2379C98.8039 17.5741 98.7572 17.9313 98.785 18.2865V21.2265C98.2808 21.5028 97.745 21.7167 97.1893 21.8635C96.6194 22.0054 96.0339 22.0745 95.4468 22.0693C94.6586 22.1207 93.8694 21.9871 93.142 21.6792C92.4145 21.3712 91.769 20.8974 91.2569 20.2955C90.5481 19.432 90.1668 18.3457 90.18 17.2281C90.1885 16.3151 90.4293 15.4193 90.8798 14.6254C91.3303 13.8314 91.9756 13.1656 92.7547 12.6907C93.8021 12.136 95.0053 11.9496 96.1712 12.1615C96.581 12.2565 96.9834 12.381 97.3753 12.5339C97.5401 12.61 97.7148 12.6628 97.8941 12.6907C97.9383 12.6908 97.9819 12.6801 98.0211 12.6596C98.0603 12.6391 98.094 12.6095 98.1193 12.5731C98.1988 12.4258 98.2392 12.2604 98.2368 12.0929L98.5011 12.0439Z" fill="#77777A"/>
<path d="M102.79 12.7792V16.5326H104.846C105.231 16.5743 105.62 16.4883 105.952 16.2876C106.092 16.1384 106.2 15.9626 106.271 15.7707C106.341 15.5788 106.373 15.3747 106.363 15.1704H106.618V18.473H106.363C106.335 18.1688 106.269 17.8692 106.167 17.5812C106.072 17.4112 105.924 17.277 105.746 17.199C105.462 17.0914 105.159 17.0447 104.855 17.0618H102.79V20.2076C102.775 20.4671 102.795 20.7275 102.849 20.9818C102.888 21.0738 102.957 21.1498 103.044 21.1974C103.212 21.2642 103.393 21.291 103.573 21.2758H105.178C105.57 21.292 105.962 21.2557 106.343 21.168C106.607 21.079 106.846 20.9277 107.038 20.727C107.395 20.3348 107.692 19.8923 107.92 19.4138H108.233L107.41 21.805H100.078V21.511H100.411C100.634 21.5109 100.853 21.4535 101.047 21.3444C101.118 21.3105 101.182 21.2626 101.234 21.2037C101.286 21.1448 101.326 21.076 101.351 21.0014C101.424 20.6803 101.451 20.3501 101.429 20.0214V13.9258C101.474 13.5369 101.409 13.1433 101.243 12.789C101.131 12.6844 100.998 12.6049 100.853 12.5559C100.708 12.5069 100.554 12.4895 100.401 12.5048H100.068V12.25H107.41L107.508 14.3472H107.234C107.185 13.9854 107.076 13.6343 106.911 13.3084C106.784 13.1134 106.599 12.9628 106.383 12.8772C106.064 12.7908 105.734 12.7544 105.404 12.7694L102.79 12.7792Z" fill="#77777A"/>
<path d="M118.031 21.8047H115.515L112.265 17.3359H111.697H111.296V20.1191C111.248 20.5059 111.316 20.8982 111.492 21.2461C111.592 21.3548 111.715 21.4395 111.852 21.4938C111.99 21.5481 112.137 21.5706 112.285 21.5597H112.578V21.8145H108.496V21.5107H108.849C109.014 21.5224 109.18 21.4917 109.331 21.4214C109.482 21.3511 109.612 21.2436 109.71 21.1089C109.839 20.7787 109.889 20.423 109.857 20.0701V13.9451C109.905 13.5583 109.837 13.1659 109.661 12.8181C109.559 12.7066 109.432 12.6202 109.292 12.5658C109.151 12.5114 108.999 12.4904 108.849 12.5045H108.496V12.2497H111.971C112.725 12.2221 113.48 12.2979 114.213 12.4751C114.692 12.6199 115.118 12.9028 115.437 13.2885C115.77 13.6818 115.948 14.1839 115.936 14.6997C115.944 15.2642 115.738 15.8107 115.359 16.2285C114.876 16.7128 114.252 17.0318 113.577 17.1399L115.535 19.8839C115.846 20.3707 116.24 20.7987 116.7 21.1481C117.085 21.3766 117.516 21.514 117.963 21.5499L118.031 21.8047ZM111.257 16.9047H111.648C112.375 16.9582 113.098 16.7497 113.685 16.3167C113.904 16.1347 114.08 15.9053 114.199 15.6456C114.318 15.386 114.376 15.1028 114.37 14.8173C114.378 14.5525 114.332 14.2888 114.233 14.0431C114.134 13.7975 113.984 13.5752 113.795 13.3907C113.605 13.2061 113.378 13.0634 113.13 12.9715C112.882 12.8796 112.617 12.8407 112.353 12.8573C111.986 12.8713 111.622 12.9239 111.267 13.0141L111.257 16.9047Z" fill="#77777A"/>
<path d="M127.724 15.6307H130.661V15.9051C130.342 15.9087 130.03 16.0002 129.76 16.1697C129.386 16.5599 129.076 17.0063 128.84 17.4927C128.428 18.2169 127.956 18.9053 127.43 19.5507C127.75 19.9323 128.126 20.2628 128.546 20.5307C128.841 20.7138 129.178 20.8152 129.525 20.8247C129.821 20.8336 130.112 20.7401 130.347 20.5601C130.588 20.3617 130.756 20.0897 130.827 19.7859L131.091 19.9721C130.973 20.5416 130.678 21.0592 130.249 21.4519C129.874 21.7676 129.398 21.938 128.908 21.9321C128.497 21.9261 128.093 21.8184 127.734 21.6185C127.245 21.3315 126.805 20.9675 126.432 20.5405C125.968 20.9852 125.436 21.3525 124.855 21.6283C124.386 21.8315 123.879 21.9349 123.367 21.9321C122.698 21.9674 122.04 21.7467 121.527 21.3147C121.316 21.1319 121.147 20.9063 121.031 20.6528C120.914 20.3992 120.853 20.1238 120.852 19.8447C120.871 19.2281 121.087 18.6338 121.468 18.1493C122.102 17.4074 122.886 16.8094 123.769 16.3951C123.591 16.0089 123.443 15.6091 123.328 15.1995C123.252 14.9084 123.212 14.6088 123.211 14.3077C123.191 13.9526 123.262 13.5984 123.416 13.278C123.57 12.9575 123.802 12.6813 124.092 12.4751C124.549 12.1496 125.097 11.978 125.658 11.9851C126.159 11.9713 126.646 12.1502 127.019 12.4849C127.189 12.6374 127.325 12.8249 127.416 13.0347C127.507 13.2444 127.552 13.4714 127.548 13.7001C127.553 14.1841 127.37 14.6513 127.039 15.0035C126.504 15.5103 125.888 15.9243 125.218 16.2285C125.788 17.2415 126.412 18.223 127.087 19.1685C127.779 18.5175 128.228 17.6498 128.36 16.7087C128.362 16.5006 128.289 16.2987 128.155 16.1403C128.042 16.0133 127.883 15.9358 127.714 15.9247L127.724 15.6307ZM126.089 20.1681C125.469 19.3319 125.041 18.721 124.807 18.3355C124.572 17.9501 124.311 17.4731 124.023 16.9047C123.529 17.1676 123.095 17.5315 122.751 17.9729C122.487 18.3476 122.353 18.7985 122.369 19.2567C122.362 19.7433 122.537 20.2148 122.858 20.5797C123.02 20.7677 123.222 20.9166 123.449 21.015C123.676 21.1135 123.923 21.159 124.17 21.1481C124.463 21.149 124.753 21.089 125.022 20.9717C125.411 20.7592 125.773 20.4992 126.099 20.1975L126.089 20.1681ZM124.993 15.8169C125.496 15.5907 125.944 15.2561 126.304 14.8369C126.584 14.509 126.736 14.0918 126.735 13.6609C126.745 13.3497 126.633 13.047 126.422 12.8181C126.322 12.7103 126.201 12.6249 126.066 12.5675C125.931 12.51 125.785 12.4819 125.639 12.4849C125.46 12.4738 125.281 12.5074 125.119 12.5827C124.957 12.6579 124.816 12.7725 124.709 12.9161C124.517 13.1527 124.407 13.4449 124.395 13.7491C124.399 14.0114 124.438 14.2719 124.513 14.5233C124.649 14.9737 124.813 15.4155 125.002 15.8463L124.993 15.8169Z" fill="#77777A"/>
<path d="M133.705 8.15332H137.425L145.785 18.3257V10.5641C145.85 10.0185 145.751 9.46588 145.501 8.97652C145.347 8.8228 145.161 8.70459 144.957 8.63012C144.752 8.55565 144.534 8.52671 144.317 8.54532H143.837V8.15332H148.614V8.54532H148.125C147.891 8.52121 147.656 8.55716 147.44 8.64976C147.224 8.74236 147.035 8.88856 146.892 9.07452C146.695 9.54482 146.617 10.0566 146.666 10.5641V22.0203H146.294L137.259 11.0345V19.3939C137.194 19.9417 137.29 20.4964 137.533 20.9913C137.688 21.144 137.874 21.2615 138.078 21.3359C138.283 21.4103 138.501 21.4398 138.717 21.4225H139.207V21.8145H134.43V21.4225H134.909C135.144 21.4465 135.381 21.4105 135.599 21.318C135.816 21.2255 136.007 21.0794 136.152 20.8933C136.348 20.4226 136.425 19.9112 136.378 19.4037V9.94672C136.109 9.61592 135.807 9.31378 135.477 9.04512C135.199 8.86309 134.896 8.7243 134.576 8.63352C134.288 8.56353 133.992 8.53385 133.695 8.54532L133.705 8.15332Z" fill="#77777A"/>
<path d="M153.498 12.0443C154.103 12.041 154.701 12.1649 155.254 12.408C155.807 12.6511 156.303 13.008 156.709 13.4555C157.157 13.9229 157.508 14.4744 157.742 15.0783C157.975 15.6822 158.087 16.3264 158.07 16.9737C158.091 17.6357 157.98 18.2951 157.745 18.9141C157.51 19.5331 157.154 20.0993 156.7 20.5801C156.273 21.0284 155.759 21.3853 155.191 21.6291C154.622 21.873 154.009 21.9987 153.391 21.9987C152.772 21.9987 152.16 21.873 151.591 21.6291C151.022 21.3853 150.509 21.0284 150.082 20.5801C149.632 20.0935 149.283 19.5226 149.054 18.9003C148.826 18.278 148.723 17.6166 148.751 16.9541C148.728 16.2618 148.854 15.5726 149.121 14.9335C149.388 14.2943 149.789 13.7201 150.297 13.2497C151.168 12.4476 152.316 12.0154 153.498 12.0443ZM153.361 12.5539C152.967 12.5439 152.576 12.6275 152.221 12.7979C151.865 12.9682 151.555 13.2205 151.315 13.5339C150.602 14.5402 150.256 15.7619 150.336 16.9933C150.248 18.2684 150.593 19.536 151.315 20.5899C151.55 20.9017 151.855 21.1532 152.206 21.3236C152.556 21.494 152.942 21.5784 153.332 21.5699C153.757 21.5772 154.177 21.4864 154.561 21.3045C154.944 21.1227 155.281 20.8547 155.544 20.5213C156.204 19.5526 156.511 18.387 156.416 17.2187C156.507 15.928 156.162 14.6441 155.437 13.5731C155.195 13.2544 154.883 12.9964 154.524 12.8195C154.166 12.6426 153.771 12.5517 153.371 12.5539H153.361Z" fill="#77777A"/>
<path d="M168.086 21.8047H165.531L162.28 17.3359H161.713H161.311V20.1191C161.263 20.5059 161.331 20.8982 161.507 21.2461C161.607 21.3548 161.73 21.4395 161.868 21.4938C162.005 21.5481 162.153 21.5706 162.3 21.5597H162.672V21.8145H158.59V21.5107H158.942C159.108 21.5224 159.274 21.4917 159.425 21.4214C159.576 21.3511 159.706 21.2436 159.804 21.1089C159.933 20.7787 159.983 20.423 159.951 20.0701V13.9451C159.999 13.5583 159.931 13.1659 159.755 12.8181C159.654 12.7079 159.529 12.6224 159.39 12.5681C159.251 12.5137 159.101 12.492 158.952 12.5045H158.59V12.2497H162.065C162.819 12.2221 163.573 12.2979 164.307 12.4751C164.786 12.6199 165.211 12.9028 165.531 13.2885C165.863 13.6823 166.041 14.1841 166.03 14.6997C166.038 15.2642 165.832 15.8107 165.452 16.2285C164.972 16.7115 164.352 17.0305 163.68 17.1399L165.638 19.8839C165.951 20.3696 166.345 20.7974 166.803 21.1481C167.188 21.3766 167.62 21.514 168.066 21.5499L168.086 21.8047ZM161.311 16.9047H161.703C162.43 16.9591 163.153 16.7504 163.739 16.3167C163.96 16.1352 164.136 15.9059 164.255 15.6461C164.373 15.3863 164.431 15.1029 164.424 14.8173C164.433 14.5525 164.386 14.2888 164.287 14.0431C164.188 13.7975 164.039 13.5752 163.849 13.3907C163.659 13.2061 163.433 13.0634 163.185 12.9715C162.937 12.8796 162.672 12.8407 162.408 12.8573C162.041 12.8713 161.677 12.9239 161.321 13.0141L161.311 16.9047Z" fill="#77777A"/>
<path d="M175.418 12.259L175.516 14.5032H175.232C175.21 14.2129 175.14 13.9281 175.026 13.6604C174.898 13.4076 174.697 13.1993 174.449 13.0626C174.145 12.9137 173.807 12.8461 173.47 12.8666H172.128V20.1578C172.081 20.5372 172.146 20.9221 172.314 21.2652C172.425 21.3702 172.556 21.4508 172.699 21.5014C172.843 21.5521 172.995 21.5718 173.147 21.5592H173.479V21.814H169.456V21.5102H169.799C169.962 21.5253 170.126 21.4991 170.277 21.4341C170.427 21.369 170.559 21.2671 170.66 21.1378C170.797 20.8133 170.851 20.4595 170.817 20.1088V12.8568H169.671C169.342 12.8389 169.012 12.872 168.692 12.9548C168.435 13.0539 168.215 13.2324 168.066 13.4644C167.881 13.7594 167.773 14.0965 167.753 14.4444H167.488L167.586 12.2002L175.418 12.259Z" fill="#77777A"/>
<path d="M178.854 16.6894H183.279V13.9454C183.299 13.6162 183.269 13.2859 183.191 12.9654C183.131 12.8337 183.027 12.7265 182.897 12.6616C182.703 12.5521 182.484 12.4947 182.261 12.495H181.928V12.2402H186.001V12.495H185.668C185.439 12.5033 185.216 12.5708 185.022 12.691C184.951 12.7254 184.888 12.7734 184.836 12.8323C184.784 12.8911 184.744 12.9597 184.718 13.034C184.647 13.3555 184.62 13.6853 184.64 14.014V20.1782C184.619 20.5075 184.648 20.8381 184.728 21.1582C184.786 21.2885 184.886 21.3954 185.012 21.462C185.209 21.5724 185.432 21.6298 185.658 21.6286H186.001V21.8834H181.918V21.511H182.251C182.411 21.5268 182.573 21.5028 182.721 21.4413C182.87 21.3797 183.001 21.2825 183.103 21.1582C183.257 20.8177 183.318 20.4423 183.279 20.0704V17.1304H178.854V20.0704C178.833 20.3997 178.862 20.7303 178.942 21.0504C179.002 21.1827 179.106 21.29 179.236 21.3542C179.43 21.4651 179.649 21.5225 179.872 21.5208H180.215V21.7756H176.143V21.511H176.475C176.637 21.5284 176.8 21.5053 176.951 21.4437C177.101 21.3821 177.234 21.284 177.337 21.1582C177.484 20.8158 177.541 20.4413 177.503 20.0704V13.9454C177.525 13.6162 177.495 13.2856 177.415 12.9654C177.358 12.8348 177.258 12.7276 177.131 12.6616C176.934 12.5513 176.711 12.4939 176.485 12.495H176.152V12.2402H180.225V12.495H179.882C179.659 12.4956 179.44 12.5529 179.246 12.6616C179.175 12.696 179.112 12.744 179.06 12.8029C179.008 12.8617 178.968 12.9303 178.942 13.0046C178.864 13.3249 178.834 13.6554 178.854 13.9846V16.6894Z" fill="#77777A"/>
<path d="M1.95703 40.6989V33.8389H2.85766V40.6989H1.95703Z" fill="#77777A"/>
<path d="M6.13867 40.6989V35.7989H6.8533V36.5045C7.02065 36.2437 7.25331 36.0314 7.52813 35.8887C7.80294 35.746 8.11031 35.6778 8.41962 35.6911C8.70152 35.6869 8.98131 35.7402 9.24193 35.8479C9.45303 35.919 9.64196 36.044 9.79015 36.2105C9.92071 36.3953 10.0108 36.6057 10.0545 36.8279C10.0773 37.0985 10.0773 37.3706 10.0545 37.6413V40.6695H9.30067V37.7099C9.31231 37.4513 9.27919 37.1927 9.20278 36.9455C9.13706 36.7767 9.01633 36.6351 8.86015 36.5437C8.68449 36.4432 8.48484 36.3923 8.28257 36.3967C7.94371 36.3914 7.61526 36.5138 7.36236 36.7397C7.21222 36.9151 7.09994 37.1197 7.03256 37.3406C6.96517 37.5615 6.94414 37.794 6.97078 38.0235V40.7185L6.13867 40.6989Z" fill="#77777A"/>
<path d="M14.194 40.6991L12.3242 35.7991H13.2151L14.2723 38.7391C14.3898 39.0527 14.4975 39.3859 14.5856 39.7191C14.6639 39.4545 14.7618 39.1507 14.8989 38.7391L15.9953 35.7305H16.8567L14.987 40.6305L14.194 40.6991Z" fill="#77777A"/>
<path d="M22.3893 39.1504L23.2508 39.2582C23.1397 39.7243 22.874 40.1389 22.497 40.4342C22.0868 40.7273 21.5909 40.8756 21.0873 40.8556C20.7682 40.8631 20.4511 40.8023 20.1574 40.6772C19.8636 40.5521 19.5999 40.3657 19.3839 40.1304C18.9336 39.6148 18.7049 38.9421 18.7476 38.2586C18.6952 37.547 18.9236 36.8433 19.3839 36.2986C19.5948 36.0726 19.8515 35.8945 20.1369 35.7762C20.4223 35.6579 20.7297 35.6021 21.0384 35.6126C21.3403 35.6026 21.6408 35.6579 21.9196 35.7746C22.1983 35.8912 22.4486 36.0666 22.6536 36.2888C23.098 36.815 23.3224 37.4925 23.2801 38.1802C23.2801 38.2292 23.2801 38.3076 23.2801 38.4056H19.5797C19.5779 38.8625 19.7413 39.3046 20.0398 39.6502C20.1714 39.7901 20.3309 39.9008 20.508 39.9751C20.6851 40.0494 20.8758 40.0856 21.0677 40.0814C21.3486 40.0885 21.624 40.0024 21.8509 39.8364C22.0901 39.6618 22.2764 39.4244 22.3893 39.1504ZM19.6483 37.798H22.3991C22.3911 37.4631 22.2819 37.1385 22.0858 36.867C21.9617 36.712 21.8035 36.5881 21.6234 36.5047C21.4433 36.4214 21.2464 36.381 21.0481 36.3868C20.8675 36.3801 20.6875 36.4106 20.5191 36.4763C20.3507 36.542 20.1976 36.6416 20.0692 36.769C19.813 37.0365 19.6633 37.3885 19.6483 37.7588V37.798Z" fill="#77777A"/>
<path d="M26.0504 40.4151C26.4811 40.7099 26.9982 40.8513 27.5188 40.8169C27.8785 40.822 28.2352 40.7519 28.5663 40.6111C28.8514 40.4942 29.0963 40.2967 29.2711 40.0427C29.4286 39.8115 29.5138 39.5386 29.5159 39.2587C29.5267 39.0056 29.4582 38.7555 29.3201 38.5433C29.1827 38.3473 28.9926 38.1944 28.7719 38.1023C28.3657 37.9494 27.9505 37.8218 27.5286 37.7201L26.7846 37.5045C26.6584 37.4602 26.5467 37.3823 26.4616 37.2791C26.3952 37.1958 26.3606 37.0916 26.3637 36.9851C26.3663 36.8974 26.3898 36.8115 26.4324 36.7348C26.475 36.6581 26.5354 36.5927 26.6084 36.5441C26.8597 36.3969 27.1505 36.3319 27.4405 36.3579C27.7121 36.3414 27.9812 36.4174 28.2041 36.5735C28.294 36.6453 28.3689 36.7342 28.4244 36.8352C28.4798 36.9361 28.5147 37.047 28.5271 37.1615L29.3397 37.0537C29.3038 36.7792 29.2031 36.5172 29.046 36.2893C28.8785 36.0798 28.6542 35.9233 28.3999 35.8385C28.0854 35.7278 27.7543 35.6714 27.4209 35.6719C27.1761 35.6706 26.9322 35.7036 26.6965 35.7699C26.5046 35.8208 26.3226 35.9036 26.1581 36.0149C25.9862 36.1374 25.8454 36.2985 25.7469 36.4853C25.6479 36.6723 25.5975 36.8813 25.6001 37.0929C25.6012 37.3165 25.664 37.5355 25.7814 37.7257C25.8989 37.9159 26.0665 38.0699 26.2658 38.1709C26.6812 38.3408 27.1102 38.4752 27.5482 38.5727C27.8458 38.632 28.1351 38.7274 28.4097 38.8569C28.4852 38.9028 28.5475 38.9676 28.5904 39.045C28.6333 39.1223 28.6553 39.2095 28.6544 39.2979C28.6525 39.4051 28.6259 39.5104 28.5767 39.6056C28.5274 39.7008 28.4569 39.7833 28.3705 39.8467C28.1193 40.0228 27.8148 40.1059 27.509 40.0819C27.1905 40.0994 26.8757 40.0059 26.6182 39.8173C26.3967 39.6247 26.2567 39.3549 26.2266 39.0627L25.4043 39.1901C25.4543 39.6664 25.6857 40.1052 26.0504 40.4151Z" fill="#77777A"/>
<path d="M33.7439 39.9641L33.8516 40.6991C33.6426 40.7464 33.4295 40.7727 33.2153 40.7775C32.9717 40.7891 32.7291 40.7385 32.5104 40.6305C32.3534 40.5464 32.2293 40.4117 32.158 40.2483C32.0673 39.9301 32.0309 39.5987 32.0503 39.2683V36.4263H31.4336V35.7795H32.0503V34.5447L32.8824 34.0449V35.7697H33.7341V36.4165H32.8922V39.3565C32.8674 39.509 32.8674 39.6646 32.8922 39.8171C32.9214 39.8874 32.973 39.946 33.0391 39.9837C33.1301 40.0288 33.2314 40.0491 33.3328 40.0425L33.7439 39.9641Z" fill="#77777A"/>
<path d="M36.5645 40.6989V35.7989H37.3085V36.5045C37.4632 36.2612 37.6749 36.0594 37.9252 35.9165C38.1936 35.7642 38.4978 35.6864 38.8062 35.6911C39.122 35.677 39.4349 35.7553 39.7069 35.9165C39.9401 36.0666 40.116 36.291 40.2061 36.5535C40.3636 36.2883 40.5871 36.0685 40.8548 35.9157C41.1224 35.7628 41.4251 35.682 41.7333 35.6813C41.94 35.6671 42.1473 35.6955 42.3426 35.7646C42.5379 35.8337 42.717 35.9421 42.8689 36.0831C43.1587 36.4336 43.2993 36.8841 43.2605 37.3375V40.7185H42.4283V37.6021C42.4416 37.3577 42.4151 37.1128 42.35 36.8769C42.2948 36.7294 42.1913 36.605 42.0563 36.5241C41.9024 36.4326 41.7263 36.3852 41.5473 36.3869C41.3863 36.3812 41.2259 36.4087 41.0761 36.4677C40.9262 36.5267 40.79 36.616 40.676 36.7299C40.4201 37.0392 40.2969 37.4373 40.3334 37.8373V40.6989H39.5013V37.5041C39.5208 37.2118 39.4489 36.9207 39.2957 36.6711C39.2153 36.5747 39.1127 36.4994 38.9967 36.4516C38.8807 36.4038 38.7549 36.385 38.63 36.3967C38.3981 36.3948 38.1705 36.4594 37.9741 36.5829C37.7739 36.7087 37.6221 36.8987 37.5434 37.1219C37.4333 37.4601 37.3836 37.815 37.3966 38.1705V40.7283L36.5645 40.6989Z" fill="#77777A"/>
<path d="M49.2604 39.1504L50.1218 39.2582C50.0108 39.7243 49.745 40.1389 49.3681 40.4342C48.9579 40.7273 48.462 40.8756 47.9584 40.8556C47.6392 40.8631 47.3222 40.8023 47.0284 40.6772C46.7347 40.5521 46.471 40.3657 46.255 40.1304C45.8082 39.6133 45.5831 38.9407 45.6285 38.2586C45.576 37.547 45.8045 36.8433 46.2648 36.2986C46.4757 36.0726 46.7324 35.8945 47.0178 35.7762C47.3031 35.6579 47.6105 35.6021 47.9192 35.6126C48.2212 35.6026 48.5217 35.6579 48.8004 35.7746C49.0791 35.8912 49.3295 36.0666 49.5345 36.2888C49.9788 36.815 50.2032 37.4925 50.161 38.1802C50.161 38.2292 50.161 38.3076 50.161 38.4056H46.4802C46.4774 38.8626 46.641 39.305 46.9403 39.6502C47.0674 39.799 47.225 39.9189 47.4023 40.0017C47.5796 40.0846 47.7725 40.1284 47.9682 40.1304C48.249 40.1368 48.5241 40.0507 48.7513 39.8854C48.9871 39.6935 49.1636 39.4387 49.2604 39.1504ZM46.5193 37.798H49.2702C49.261 37.4633 49.1519 37.139 48.9569 36.867C48.8419 36.7114 48.6932 36.5838 48.522 36.4939C48.3507 36.404 48.1614 36.3539 47.9682 36.3476C47.7876 36.3409 47.6075 36.3714 47.4391 36.4371C47.2707 36.5028 47.1176 36.6024 46.9892 36.7298C46.7088 37.0004 46.5439 37.3692 46.5291 37.7588L46.5193 37.798Z" fill="#77777A"/>
<path d="M52.6191 40.6989V35.7989H53.3631V36.5045C53.5305 36.2437 53.7631 36.0314 54.038 35.8887C54.3128 35.746 54.6201 35.6778 54.9295 35.6911C55.2114 35.6866 55.4912 35.74 55.7518 35.8479C55.9732 35.9339 56.1663 36.0798 56.3098 36.2693C56.4398 36.4544 56.5298 36.6647 56.5741 36.8867C56.5966 37.1573 56.5966 37.4294 56.5741 37.7001V40.7283H55.8007V37.7099C55.8118 37.4513 55.7787 37.1928 55.7028 36.9455C55.6371 36.7767 55.5164 36.6351 55.3602 36.5437C55.1847 36.4427 54.9849 36.3918 54.7826 36.3967C54.4438 36.3914 54.1153 36.5138 53.8624 36.7397C53.7123 36.9151 53.6 37.1197 53.5326 37.3406C53.4652 37.5615 53.4442 37.794 53.4708 38.0235V40.7185L52.6191 40.6989Z" fill="#77777A"/>
<path d="M61.1541 39.9641L61.2618 40.6991C61.0528 40.7466 60.8396 40.7728 60.6254 40.7775C60.3819 40.7887 60.1394 40.7381 59.9206 40.6305C59.764 40.5458 59.6401 40.4113 59.5682 40.2483C59.4774 39.9301 59.441 39.5987 59.4605 39.2683V36.4263H58.8438V35.7795H59.4605V34.5447L60.2926 34.0449V35.7697H61.1443V36.4165H60.3024V39.3565C60.278 39.5091 60.278 39.6646 60.3024 39.8171C60.3315 39.8874 60.3832 39.946 60.4492 39.9837C60.5403 40.0288 60.6416 40.0491 60.7429 40.0425L61.1541 39.9641Z" fill="#77777A"/>
<path d="M67.5469 40.6989V33.8389H68.8978L70.4837 38.7095C70.6306 39.1603 70.7382 39.4935 70.8068 39.6895C70.8851 39.4445 71.0026 39.0819 71.169 38.6017L72.794 33.8585H73.9981V40.7185H73.1367V34.9953L71.1788 40.6989H70.3662L68.4083 34.8973V40.6989H67.5469Z" fill="#77777A"/>
<path d="M79.8328 40.0813C79.5701 40.3173 79.2687 40.5063 78.9419 40.6399C78.6481 40.7519 78.3361 40.8083 78.0217 40.8065C77.5698 40.8373 77.1227 40.6975 76.7687 40.4145C76.6304 40.2915 76.5196 40.1406 76.4437 39.9717C76.3678 39.8028 76.3284 39.6197 76.3281 39.4345C76.3271 39.2051 76.3843 38.9791 76.4946 38.7779C76.5983 38.586 76.7459 38.4215 76.9253 38.2977C77.1112 38.1735 77.3163 38.0808 77.5322 38.0233C77.7773 37.965 78.0258 37.9225 78.2762 37.8959C78.7804 37.8505 79.2788 37.7553 79.7642 37.6117C79.7642 37.4941 79.7642 37.4255 79.7642 37.3961C79.7791 37.2654 79.7658 37.1331 79.7252 37.008C79.6847 36.8829 79.6179 36.768 79.5293 36.6709C79.2502 36.4564 78.9007 36.3549 78.5503 36.3867C78.2456 36.3629 77.941 36.4348 77.6791 36.5925C77.4592 36.7782 77.3104 37.0345 77.2581 37.3177L76.475 37.1903C76.5303 36.8838 76.6578 36.5949 76.847 36.3475C77.0422 36.1132 77.3004 35.9398 77.591 35.8477C77.9503 35.7259 78.3277 35.6662 78.707 35.6713C79.0392 35.6658 79.37 35.7155 79.6859 35.8183C79.9128 35.895 80.1154 36.0302 80.2733 36.2103C80.4063 36.3754 80.497 36.5705 80.5376 36.7787C80.5577 37.0364 80.5577 37.2952 80.5376 37.5529V38.6701C80.548 39.1587 80.5872 39.6463 80.6551 40.1303C80.6908 40.3394 80.7603 40.5413 80.8607 40.7281H79.9894C79.9018 40.5227 79.8489 40.3041 79.8328 40.0813ZM79.7642 38.2291C79.324 38.385 78.8675 38.4902 78.4035 38.5427C78.153 38.5685 77.9064 38.6244 77.6693 38.7093C77.5334 38.7654 77.4175 38.861 77.3365 38.9837C77.2333 39.1348 77.1902 39.319 77.2156 39.5003C77.2409 39.6815 77.3329 39.8468 77.4735 39.9637C77.6848 40.129 77.9501 40.2093 78.2175 40.1891C78.5186 40.1943 78.8157 40.1199 79.079 39.9735C79.3212 39.8445 79.5165 39.6421 79.637 39.3953C79.7426 39.1309 79.7893 38.8466 79.774 38.5623L79.7642 38.2291Z" fill="#77777A"/>
<path d="M83.5234 40.6989V35.7989H84.2674V36.5045C84.4348 36.2437 84.6674 36.0314 84.9423 35.8887C85.2171 35.746 85.5244 35.6778 85.8338 35.6911C86.1157 35.6869 86.3954 35.7402 86.6561 35.8479C86.8777 35.9334 87.071 36.0794 87.2141 36.2693C87.3444 36.4543 87.4344 36.6646 87.4784 36.8867C87.5003 37.1574 87.5003 37.4294 87.4784 37.7001V40.7283H86.6463V37.7099C86.6581 37.4513 86.625 37.1927 86.5484 36.9455C86.4827 36.7767 86.3619 36.6351 86.2058 36.5437C86.0303 36.4427 85.8305 36.3918 85.6282 36.3967C85.2893 36.3914 84.9609 36.5138 84.708 36.7397C84.5578 36.9151 84.4456 37.1197 84.3782 37.3406C84.3108 37.5615 84.2897 37.794 84.3164 38.0235V40.7185L83.5234 40.6989Z" fill="#77777A"/>
<path d="M93.45 40.0813C93.1841 40.318 92.8794 40.507 92.5494 40.6399C92.2556 40.7521 91.9436 40.8086 91.6292 40.8065C91.1771 40.8383 90.7297 40.6984 90.3761 40.4145C90.2378 40.2915 90.1271 40.1406 90.0511 39.9717C89.9752 39.8028 89.9358 39.6197 89.9356 39.4345C89.9337 39.205 89.991 38.9788 90.102 38.7779C90.2051 38.5856 90.3528 38.421 90.5328 38.2977C90.7155 38.1742 90.9172 38.0815 91.1299 38.0233C91.3749 37.9649 91.6234 37.9224 91.8739 37.8959C92.378 37.8503 92.8764 37.7551 93.3619 37.6117C93.3619 37.4941 93.3619 37.4255 93.3619 37.3961C93.3767 37.2655 93.3634 37.1331 93.3229 37.0081C93.2824 36.883 93.2156 36.768 93.127 36.6709C92.8479 36.4564 92.4984 36.355 92.148 36.3867C91.8433 36.3635 91.5389 36.4354 91.2767 36.5925C91.0568 36.7782 90.9081 37.0345 90.8558 37.3177L90.0629 37.1903C90.1182 36.8838 90.2457 36.5949 90.4349 36.3475C90.6278 36.1152 90.8823 35.9419 91.1691 35.8477C91.5284 35.7263 91.9058 35.6666 92.2851 35.6713C92.6173 35.6657 92.9481 35.7153 93.264 35.8183C93.4852 35.891 93.6841 36.0192 93.8416 36.1907C93.9742 36.3561 94.0649 36.5511 94.1059 36.7591C94.1259 37.0168 94.1259 37.2757 94.1059 37.5333V38.6505C94.1308 39.1468 94.1864 39.641 94.2723 40.1303C94.3067 40.3398 94.3762 40.5419 94.4779 40.7281H93.6066C93.518 40.5231 93.465 40.3043 93.45 40.0813ZM93.3815 38.2291C92.938 38.3853 92.4782 38.4905 92.011 38.5427C91.7604 38.5683 91.5139 38.6243 91.2767 38.7093C91.1409 38.7654 91.0249 38.861 90.9439 38.9837C90.8408 39.1348 90.7977 39.319 90.823 39.5003C90.8484 39.6815 90.9403 39.8468 91.081 39.9637C91.2927 40.1281 91.5577 40.2084 91.825 40.1891C92.1261 40.1943 92.4232 40.12 92.6864 39.9735C92.9254 39.8434 93.1173 39.641 93.2346 39.3953C93.3402 39.1309 93.387 38.8467 93.3717 38.5623L93.3815 38.2291Z" fill="#77777A"/>
<path d="M96.7878 41.1108L97.6003 41.2186C97.6078 41.326 97.6368 41.4308 97.6856 41.5267C97.7344 41.6227 97.8019 41.7078 97.8842 41.7772C98.1344 41.9475 98.4338 42.0302 98.7359 42.0124C99.0502 42.0303 99.3621 41.9479 99.6267 41.7772C99.8424 41.6195 99.995 41.3903 100.057 41.1304C100.113 40.7772 100.133 40.4193 100.116 40.0622C99.9531 40.2661 99.7459 40.4303 99.5102 40.5423C99.2744 40.6544 99.0164 40.7113 98.7554 40.709C98.4528 40.7242 98.151 40.6653 97.8763 40.5372C97.6016 40.4091 97.3624 40.2157 97.1793 39.974C96.7928 39.4545 96.5959 38.818 96.6213 38.1708C96.6347 37.7341 96.7346 37.3044 96.915 36.9066C97.067 36.5328 97.3258 36.2124 97.659 35.9854C97.9953 35.7632 98.3918 35.6502 98.7946 35.662C99.0741 35.6577 99.3505 35.7204 99.6009 35.8448C99.8512 35.9693 100.068 36.1519 100.234 36.3774V35.76H100.997V40.0328C101.033 40.5887 100.953 41.146 100.762 41.6694C100.601 41.9937 100.34 42.258 100.018 42.424C99.6316 42.624 99.2003 42.7218 98.7652 42.7082C98.258 42.7317 97.7568 42.5908 97.336 42.3064C97.1505 42.1703 97.0028 41.989 96.9069 41.7798C96.8109 41.5706 96.7699 41.3403 96.7878 41.1108ZM97.473 38.1708C97.4273 38.6748 97.5627 39.1787 97.8548 39.5918C97.9723 39.7373 98.1218 39.8537 98.2916 39.9319C98.4614 40.0101 98.6469 40.0479 98.8338 40.0426C99.0196 40.0477 99.2041 40.0106 99.3737 39.9343C99.5432 39.8579 99.6933 39.7442 99.8127 39.6016C100.107 39.2004 100.246 38.706 100.204 38.21C100.24 37.7222 100.097 37.2382 99.8029 36.8478C99.6854 36.7016 99.5362 36.5841 99.3666 36.5043C99.1969 36.4245 99.0114 36.3844 98.824 36.3872C98.6371 36.3818 98.4516 36.4197 98.2818 36.4979C98.112 36.5761 97.9625 36.6924 97.845 36.838C97.5715 37.2258 97.4433 37.6977 97.4828 38.1708H97.473Z" fill="#77777A"/>
<path d="M107.018 39.1503L107.88 39.2581C107.769 39.7242 107.503 40.1388 107.126 40.4341C106.716 40.728 106.22 40.8763 105.716 40.8555C105.4 40.8719 105.084 40.821 104.788 40.7062C104.493 40.5913 104.225 40.4151 104.003 40.1891C103.553 39.6736 103.324 39.0008 103.367 38.3173C103.314 37.6058 103.543 36.902 104.003 36.3573C104.214 36.1309 104.47 35.9524 104.756 35.834C105.041 35.7157 105.349 35.6602 105.657 35.6713C105.959 35.6614 106.26 35.7166 106.539 35.8333C106.817 35.95 107.068 36.1254 107.273 36.3475C107.717 36.8737 107.942 37.5512 107.899 38.2389C107.899 38.2879 107.899 38.3663 107.899 38.4643H104.228C104.226 38.9214 104.389 39.3638 104.688 39.7089C104.822 39.8483 104.983 39.9579 105.162 40.0306C105.341 40.1032 105.533 40.1372 105.726 40.1303C106.007 40.1367 106.282 40.0506 106.509 39.8853C106.745 39.6935 106.921 39.4386 107.018 39.1503ZM104.277 37.7979H107.028C107.02 37.463 106.911 37.1384 106.715 36.8669C106.591 36.712 106.432 36.588 106.252 36.5047C106.072 36.4213 105.875 36.381 105.677 36.3867C105.496 36.38 105.316 36.4105 105.148 36.4762C104.98 36.542 104.827 36.6416 104.698 36.7689C104.442 37.0364 104.292 37.3884 104.277 37.7587V37.7979Z" fill="#77777A"/>
<path d="M110.367 40.6988V35.7988H111.111V36.5044C111.271 36.253 111.493 36.047 111.755 35.9062C112.017 35.7655 112.311 35.6947 112.609 35.7008C112.925 35.6867 113.238 35.765 113.51 35.9262C113.739 36.078 113.911 36.3022 113.999 36.5632C114.156 36.2974 114.379 36.0771 114.647 35.9241C114.915 35.7712 115.218 35.6908 115.526 35.691C115.733 35.6769 115.94 35.7052 116.136 35.7743C116.331 35.8434 116.51 35.9518 116.662 36.0928C116.956 36.4414 117.1 36.8924 117.063 37.3472V40.7282H116.231V37.602C116.242 37.3571 116.213 37.112 116.143 36.8768C116.088 36.729 115.985 36.6044 115.849 36.524C115.695 36.4326 115.519 36.3851 115.34 36.3868C115.179 36.3812 115.019 36.4087 114.869 36.4677C114.719 36.5267 114.583 36.6159 114.469 36.7298C114.213 37.0391 114.09 37.4373 114.126 37.8372V40.6988H113.294V37.504C113.314 37.2118 113.242 36.9206 113.089 36.671C113.008 36.5747 112.906 36.4994 112.79 36.4516C112.674 36.4038 112.548 36.3849 112.423 36.3966C112.191 36.3953 111.964 36.4598 111.767 36.5828C111.567 36.7093 111.416 36.899 111.336 37.1218C111.233 37.4613 111.19 37.8162 111.209 38.1704V40.7282L110.367 40.6988Z" fill="#77777A"/>
<path d="M123.073 39.1511L123.944 39.2589C123.832 39.7248 123.567 40.1391 123.19 40.435C122.78 40.7274 122.284 40.8756 121.781 40.8564C121.464 40.8721 121.148 40.8209 120.853 40.7061C120.558 40.5913 120.29 40.4154 120.068 40.19C119.622 39.6724 119.397 39.0002 119.441 38.3182C119.389 37.6066 119.617 36.9029 120.077 36.3582C120.288 36.1322 120.545 35.9541 120.83 35.8357C121.116 35.7174 121.423 35.6616 121.732 35.6721C122.034 35.6622 122.334 35.7175 122.613 35.8341C122.892 35.9508 123.142 36.1262 123.347 36.3483C123.792 36.874 124.017 37.5519 123.974 38.2397C123.974 38.2887 123.974 38.3671 123.974 38.4651H120.302C120.3 38.9222 120.463 39.3646 120.763 39.7097C120.894 39.8497 121.054 39.9604 121.231 40.0347C121.408 40.109 121.599 40.1452 121.79 40.1409C122.071 40.1473 122.346 40.0613 122.574 39.8959C122.807 39.7001 122.98 39.4418 123.073 39.1511ZM120.342 37.7987H123.092C123.084 37.4639 122.975 37.1395 122.779 36.8677C122.655 36.7128 122.497 36.5888 122.317 36.5055C122.137 36.4222 121.94 36.3818 121.742 36.3875C121.561 36.3809 121.381 36.4113 121.212 36.4771C121.044 36.5428 120.891 36.6424 120.763 36.7697C120.506 37.0372 120.357 37.3893 120.342 37.7596V37.7987Z" fill="#77777A"/>
<path d="M126.432 40.6989V35.7989H127.176V36.5045C127.343 36.2437 127.576 36.0314 127.85 35.8887C128.125 35.746 128.433 35.6778 128.742 35.6911C129.021 35.6882 129.297 35.7415 129.554 35.8479C129.776 35.9334 129.969 36.0794 130.112 36.2693C130.243 36.454 130.333 36.6644 130.377 36.8867C130.4 37.1573 130.4 37.4294 130.377 37.7001V40.7283H129.545V37.7099C129.555 37.4514 129.522 37.1929 129.447 36.9455C129.38 36.7771 129.26 36.6357 129.104 36.5437C128.929 36.4427 128.729 36.3918 128.527 36.3967C128.188 36.3914 127.859 36.5138 127.606 36.7397C127.457 36.9156 127.347 37.1205 127.281 37.3415C127.215 37.5624 127.196 37.7947 127.225 38.0235V40.7185L126.432 40.6989Z" fill="#77777A"/>
<path d="M134.967 39.9641L135.074 40.6991C134.865 40.7464 134.652 40.7726 134.438 40.7775C134.194 40.7887 133.952 40.7381 133.733 40.6305C133.577 40.5458 133.453 40.4113 133.381 40.2483C133.294 39.9293 133.261 39.5982 133.283 39.2683V36.4263H132.666V35.7795H133.283V34.5447L134.115 34.0449V35.7697H134.967V36.4165H134.115V39.3565C134.091 39.5091 134.091 39.6645 134.115 39.8171C134.145 39.887 134.196 39.9455 134.262 39.9837C134.353 40.0293 134.454 40.0496 134.555 40.0425L134.967 39.9641Z" fill="#77777A"/>
<path d="M185.912 27.2734H0V27.7046H185.912V27.2734Z" fill="#002856"/>
<path d="M140.333 34.4462C140.348 34.8532 140.242 35.2555 140.027 35.6013C139.812 35.9471 139.498 36.2206 139.127 36.3864C138.755 36.5522 138.343 36.6028 137.942 36.5316C137.542 36.4604 137.171 36.2708 136.88 35.9871C136.588 35.7034 136.387 35.3387 136.304 34.9399C136.222 34.5412 136.26 34.1268 136.414 33.75C136.569 33.3733 136.833 33.0516 137.172 32.8263C137.511 32.6011 137.909 32.4826 138.316 32.4862C138.578 32.4784 138.839 32.5232 139.083 32.6182C139.328 32.7132 139.55 32.8563 139.739 33.0391C139.927 33.2219 140.076 33.4406 140.178 33.6823C140.28 33.9241 140.333 34.1838 140.333 34.4462ZM136.769 34.4462C136.763 34.6532 136.798 34.8594 136.873 35.0524C136.948 35.2454 137.061 35.4213 137.205 35.5695C137.35 35.7178 137.522 35.8353 137.713 35.9151C137.904 35.9949 138.109 36.0353 138.316 36.0338C138.519 36.0327 138.721 35.9906 138.908 35.91C139.094 35.8294 139.263 35.712 139.404 35.5648C139.545 35.4176 139.654 35.2436 139.726 35.0531C139.798 34.8626 139.831 34.6596 139.824 34.456C139.824 34.0506 139.663 33.6617 139.376 33.375C139.09 33.0883 138.701 32.9272 138.296 32.9272C137.891 32.9272 137.503 33.0883 137.217 33.375C136.93 33.6617 136.769 34.0506 136.769 34.456V34.4462ZM137.983 35.4262H137.523V33.4662C137.776 33.4303 138.031 33.4107 138.287 33.4074C138.523 33.3754 138.764 33.4312 138.962 33.5642C139.029 33.6117 139.083 33.6751 139.119 33.7487C139.154 33.8223 139.171 33.9038 139.168 33.9856C139.161 34.0986 139.117 34.2062 139.043 34.2913C138.968 34.3765 138.868 34.4345 138.757 34.456C138.952 34.5148 139.05 34.6716 139.109 34.946C139.137 35.1117 139.186 35.2731 139.256 35.4262H138.766C138.691 35.2748 138.638 35.113 138.61 34.946C138.61 34.7402 138.453 34.6422 138.199 34.6422H138.032L137.983 35.4262ZM137.983 34.309H138.199C138.453 34.309 138.659 34.2208 138.659 34.015C138.659 33.8092 138.522 33.7112 138.238 33.7112C138.153 33.7024 138.068 33.7024 137.983 33.7112V34.309Z" fill="#77777A"/>
</g>
<defs>
<clipPath id="clip0_217_28480">
<rect width="186" height="49" fill="white" transform="translate(0 0.930664)"/>
</clipPath>
</defs>
</svg>
