<svg width="28" height="29" viewBox="0 0 28 29" fill="none" xmlns="http://www.w3.org/2000/svg">
<g clip-path="url(#clip0_217_28433)">
<path d="M19.25 8.15625C14.9082 8.15625 11.375 11.8148 11.375 16.3125C11.375 20.5039 14.4436 23.9622 18.375 24.4153V25.375C18.375 25.8752 17.9821 26.2812 17.5 26.2812H3.5C3.01787 26.2812 2.625 25.8752 2.625 25.375V9.0625H6.125C7.57225 9.0625 8.75 7.84269 8.75 6.34375V2.71875H17.5C17.9821 2.71875 18.375 3.12475 18.375 3.625V6.34375C18.375 6.84491 18.767 7.25 19.25 7.25C19.733 7.25 20.125 6.84491 20.125 6.34375V3.625C20.125 2.12606 18.9473 0.90625 17.5 0.90625H7.875C7.75863 0.90625 7.644 0.930719 7.53813 0.976031C7.43225 1.02225 7.336 1.08931 7.2555 1.17269L1.13225 7.51462C1.05175 7.598 0.987 7.69678 0.94325 7.80734C0.898625 7.91609 0.875 8.03481 0.875 8.15625V25.375C0.875 26.8739 2.05275 28.0938 3.5 28.0938H17.5C18.9473 28.0938 20.125 26.8739 20.125 25.375V24.4153C24.0564 23.9622 27.125 20.5039 27.125 16.3125C27.125 11.8148 23.5917 8.15625 19.25 8.15625ZM7 4.00019V6.34375C7 6.844 6.60712 7.25 6.125 7.25H3.86225L7 4.00019ZM25.305 15.4062H21.3622L24.1483 12.5198C24.7485 13.35 25.1562 14.3342 25.305 15.4062ZM19.25 9.96875C20.6238 9.96875 21.889 10.4445 22.911 11.2384L19.25 15.0311L15.589 11.2384C16.611 10.4445 17.8762 9.96875 19.25 9.96875ZM19.25 22.6562C15.8725 22.6562 13.125 19.8097 13.125 16.3125C13.125 14.8906 13.5853 13.5792 14.3518 12.5198L18.6314 16.9523C18.7119 17.0366 18.809 17.1028 18.9166 17.149C19.0225 17.1952 19.1362 17.2188 19.25 17.2188H25.305C24.878 20.2882 22.33 22.6562 19.25 22.6562Z" fill="#004890"/>
<path d="M8.75 10.875H5.25C4.767 10.875 4.375 11.2801 4.375 11.7812C4.375 12.2824 4.767 12.6875 5.25 12.6875H8.75C9.233 12.6875 9.625 12.2824 9.625 11.7812C9.625 11.2801 9.233 10.875 8.75 10.875ZM8.75 14.5H5.25C4.767 14.5 4.375 14.9051 4.375 15.4062C4.375 15.9074 4.767 16.3125 5.25 16.3125H8.75C9.233 16.3125 9.625 15.9074 9.625 15.4062C9.625 14.9051 9.233 14.5 8.75 14.5ZM8.75 18.125H5.25C4.767 18.125 4.375 18.5301 4.375 19.0312C4.375 19.5324 4.767 19.9375 5.25 19.9375H8.75C9.233 19.9375 9.625 19.5324 9.625 19.0312C9.625 18.5301 9.233 18.125 8.75 18.125Z" fill="#004890"/>
</g>
<defs>
<clipPath id="clip0_217_28433">
<rect width="28" height="29" fill="white"/>
</clipPath>
</defs>
</svg>
