<svg width="14" height="12" viewBox="0 0 14 12" fill="none" xmlns="http://www.w3.org/2000/svg">
<path d="M8.6448 11.3335H8.5048C8.22264 11.3055 7.95675 11.1883 7.74575 10.9988C7.53475 10.8094 7.38963 10.5577 7.33147 10.2802L5.54481 2.00015L3.7048 6.26682C3.65276 6.38607 3.56696 6.48748 3.45797 6.55856C3.34899 6.62964 3.22158 6.66727 3.09147 6.66682H1.09147C0.91466 6.66682 0.745091 6.59658 0.620067 6.47155C0.495043 6.34653 0.424805 6.17696 0.424805 6.00015C0.424805 5.82334 0.495043 5.65377 0.620067 5.52875C0.745091 5.40372 0.91466 5.33348 1.09147 5.33348H2.65147L4.3248 1.47348C4.43745 1.21446 4.62944 0.997897 4.8731 0.855024C5.11676 0.712151 5.39949 0.650349 5.68054 0.678528C5.96159 0.706707 6.22643 0.823412 6.43688 1.01181C6.64732 1.20022 6.7925 1.45058 6.85147 1.72682L8.63814 10.0001L10.4781 5.74682C10.5282 5.62507 10.6131 5.52085 10.7222 5.4473C10.8314 5.37374 10.9599 5.33414 11.0915 5.33348H13.0915C13.2683 5.33348 13.4379 5.40372 13.5629 5.52875C13.6879 5.65377 13.7581 5.82334 13.7581 6.00015C13.7581 6.17696 13.6879 6.34653 13.5629 6.47155C13.4379 6.59658 13.2683 6.66682 13.0915 6.66682H11.5315L9.85814 10.5268C9.75596 10.7645 9.58684 10.9673 9.3714 11.1105C9.15596 11.2538 8.9035 11.3312 8.6448 11.3335Z" fill="#004890"/>
</svg>
