<svg width="21" height="18" viewBox="0 0 21 18" fill="none" xmlns="http://www.w3.org/2000/svg">
<path d="M17.042 4H14.042V2.5C14.042 1.83696 13.7786 1.20107 13.3098 0.732233C12.8409 0.263392 12.205 0 11.542 0H8.54199C7.87895 0 7.24307 0.263392 6.77423 0.732233C6.30538 1.20107 6.04199 1.83696 6.04199 2.5V4H3.04199C2.24634 4 1.48328 4.31607 0.920672 4.87868C0.358063 5.44129 0.0419922 6.20435 0.0419922 7V15C0.0419922 15.7956 0.358063 16.5587 0.920672 17.1213C1.48328 17.6839 2.24634 18 3.04199 18H17.042C17.8376 18 18.6007 17.6839 19.1633 17.1213C19.7259 16.5587 20.042 15.7956 20.042 15V7C20.042 6.20435 19.7259 5.44129 19.1633 4.87868C18.6007 4.31607 17.8376 4 17.042 4ZM13.042 6V16H7.04199V6H13.042ZM8.04199 2.5C8.04199 2.36739 8.09467 2.24021 8.18844 2.14645C8.28221 2.05268 8.40938 2 8.54199 2H11.542C11.6746 2 11.8018 2.05268 11.8955 2.14645C11.9893 2.24021 12.042 2.36739 12.042 2.5V4H8.04199V2.5ZM2.04199 15V7C2.04199 6.73478 2.14735 6.48043 2.33489 6.29289C2.52242 6.10536 2.77678 6 3.04199 6H5.04199V16H3.04199C2.77678 16 2.52242 15.8946 2.33489 15.7071C2.14735 15.5196 2.04199 15.2652 2.04199 15ZM18.042 15C18.042 15.2652 17.9366 15.5196 17.7491 15.7071C17.5616 15.8946 17.3072 16 17.042 16H15.042V6H17.042C17.3072 6 17.5616 6.10536 17.7491 6.29289C17.9366 6.48043 18.042 6.73478 18.042 7V15Z" fill="#023D78"/>
</svg>
