<svg width="21" height="19" viewBox="0 0 21 19" fill="none" xmlns="http://www.w3.org/2000/svg">
<path d="M12.3522 14.38L11.0422 15.64V10C11.0422 9.73478 10.9368 9.48043 10.7493 9.29289C10.5617 9.10536 10.3074 9 10.0422 9C9.77696 9 9.52261 9.10536 9.33507 9.29289C9.14753 9.48043 9.04218 9.73478 9.04218 10V15.59L7.75218 14.29C7.65894 14.1968 7.54825 14.1228 7.42643 14.0723C7.30461 14.0219 7.17404 13.9959 7.04218 13.9959C6.91032 13.9959 6.77975 14.0219 6.65793 14.0723C6.53611 14.1228 6.42542 14.1968 6.33218 14.29C6.23894 14.3832 6.16498 14.4939 6.11452 14.6158C6.06406 14.7376 6.03809 14.8681 6.03809 15C6.03809 15.1319 6.06406 15.2624 6.11452 15.3842C6.16498 15.5061 6.23894 15.6168 6.33218 15.71L9.33218 18.71C9.42562 18.8027 9.53643 18.876 9.65827 18.9258C9.78011 18.9755 9.91057 19.0008 10.0422 19C10.2996 18.999 10.5468 18.8987 10.7322 18.72L13.7322 15.82C13.8383 15.7324 13.9252 15.6239 13.9875 15.5013C14.0497 15.3786 14.086 15.2444 14.094 15.107C14.102 14.9697 14.0816 14.8322 14.0341 14.7031C13.9866 14.574 13.9129 14.4561 13.8177 14.3568C13.7225 14.2575 13.6079 14.1788 13.4809 14.1259C13.354 14.0729 13.2174 14.0466 13.0799 14.0488C12.9423 14.051 12.8067 14.0815 12.6815 14.1385C12.5563 14.1955 12.4442 14.2777 12.3522 14.38Z" fill="#023D78"/>
<path d="M15.7124 5.00047C15.3043 3.82152 14.5389 2.79909 13.5227 2.07543C12.5065 1.35177 11.2899 0.962891 10.0424 0.962891C8.79481 0.962891 7.57828 1.35177 6.56204 2.07543C5.54581 2.79909 4.78042 3.82152 4.37238 5.00047C3.47393 5.1208 2.62509 5.48312 1.91668 6.04866C1.20826 6.6142 0.666911 7.36169 0.350542 8.21116C0.0341728 9.06063 -0.0453144 9.98013 0.120583 10.8713C0.28648 11.7624 0.691521 12.5917 1.29238 13.2705C1.36495 13.3983 1.46483 13.5086 1.58488 13.5934C1.70494 13.6783 1.84223 13.7356 1.98696 13.7613C2.1317 13.7871 2.28034 13.7806 2.42228 13.7423C2.56422 13.704 2.69598 13.6349 2.80818 13.54C2.92037 13.445 3.01024 13.3264 3.07139 13.1927C3.13254 13.059 3.16346 12.9135 3.16195 12.7665C3.16044 12.6195 3.12654 12.4746 3.06266 12.3422C2.99878 12.2098 2.9065 12.0931 2.79238 12.0005C2.40549 11.5679 2.15236 11.0325 2.06366 10.459C1.97497 9.88546 2.05451 9.29855 2.29265 8.76934C2.53079 8.24014 2.91731 7.79136 3.40537 7.4774C3.89342 7.16344 4.46206 6.99777 5.04238 7.00047H5.14238C5.37632 7.00519 5.60452 6.92772 5.78723 6.78154C5.96995 6.63537 6.09563 6.42974 6.14238 6.20047C6.32599 5.29624 6.81656 4.48329 7.53097 3.89937C8.24538 3.31544 9.13969 2.99646 10.0624 2.99646C10.9851 2.99646 11.8794 3.31544 12.5938 3.89937C13.3082 4.48329 13.7988 5.29624 13.9824 6.20047C14.0291 6.42974 14.1548 6.63537 14.3375 6.78154C14.5202 6.92772 14.7484 7.00519 14.9824 7.00047H15.0424C15.6227 6.99777 16.1913 7.16344 16.6794 7.4774C17.1674 7.79136 17.554 8.24014 17.7921 8.76934C18.0302 9.29855 18.1098 9.88546 18.0211 10.459C17.9324 11.0325 17.6793 11.5679 17.2924 12.0005C17.2043 12.0993 17.1367 12.2145 17.0935 12.3396C17.0503 12.4647 17.0324 12.5972 17.0407 12.7293C17.0491 12.8614 17.0836 12.9905 17.1423 13.1091C17.2009 13.2278 17.2825 13.3336 17.3824 13.4205C17.5647 13.5812 17.7993 13.6701 18.0424 13.6705C18.1844 13.6703 18.3247 13.6399 18.454 13.5813C18.5833 13.5226 18.6987 13.4371 18.7924 13.3305C19.4099 12.6529 19.8293 11.8186 20.0046 10.9188C20.1799 10.019 20.1045 9.08829 19.7866 8.22844C19.4687 7.36859 18.9205 6.6127 18.2019 6.0434C17.4834 5.4741 16.6221 5.11331 15.7124 5.00047Z" fill="#023D78"/>
</svg>
