<svg width="17" height="20" viewBox="0 0 17 20" fill="none" xmlns="http://www.w3.org/2000/svg">
<path d="M15.782 6.33018L10.342 0.33018C10.2485 0.226587 10.1344 0.143709 10.0069 0.0868754C9.87947 0.0300414 9.74154 0.000509805 9.60199 0.000179976H2.60199C2.26974 -0.00378312 1.93996 0.05774 1.63149 0.181236C1.32302 0.304732 1.0419 0.487783 0.804174 0.719934C0.566451 0.952085 0.376786 1.22879 0.24601 1.53425C0.115234 1.8397 0.0459086 2.16793 0.0419922 2.50018V17.5002C0.0459086 17.8324 0.115234 18.1607 0.24601 18.4661C0.376786 18.7716 0.566451 19.0483 0.804174 19.2804C1.0419 19.5126 1.32302 19.6956 1.63149 19.8191C1.93996 19.9426 2.26974 20.0041 2.60199 20.0002H13.482C13.8142 20.0041 14.144 19.9426 14.4525 19.8191C14.761 19.6956 15.0421 19.5126 15.2798 19.2804C15.5175 19.0483 15.7072 18.7716 15.838 18.4661C15.9688 18.1607 16.0381 17.8324 16.042 17.5002V7.00018C16.0413 6.75234 15.9487 6.51358 15.782 6.33018ZM13.692 7.00018H9.75199C9.54584 6.97988 9.3559 6.87942 9.2231 6.72043C9.0903 6.56144 9.02526 6.35666 9.04199 6.15018V2.00018H9.15199L13.692 7.00018ZM13.482 18.0002H2.60199C2.53237 18.0042 2.46263 17.9945 2.39677 17.9715C2.33091 17.9486 2.27023 17.9129 2.2182 17.8664C2.16618 17.82 2.12384 17.7637 2.0936 17.7009C2.06336 17.638 2.04582 17.5698 2.04199 17.5002V2.50018C2.04582 2.43054 2.06336 2.36234 2.0936 2.2995C2.12384 2.23665 2.16618 2.18039 2.2182 2.13394C2.27023 2.08749 2.33091 2.05176 2.39677 2.02881C2.46263 2.00586 2.53237 1.99613 2.60199 2.00018H7.04199V6.15018C7.02585 6.8868 7.30174 7.59991 7.80946 8.13385C8.31718 8.6678 9.01549 8.97923 9.75199 9.00018H14.042V17.5002C14.0382 17.5698 14.0206 17.638 13.9904 17.7009C13.9601 17.7637 13.9178 17.82 13.8658 17.8664C13.8138 17.9129 13.7531 17.9486 13.6872 17.9715C13.6214 17.9945 13.5516 18.0042 13.482 18.0002Z" fill="#023D78"/>
</svg>
