<svg width="19" height="21" viewBox="0 0 19 21" fill="none" xmlns="http://www.w3.org/2000/svg">
<path d="M17.4621 8.18166L9.75211 0.301658C9.65914 0.207929 9.54854 0.133535 9.42668 0.0827663C9.30482 0.0319976 9.17412 0.00585938 9.04211 0.00585938C8.9101 0.00585937 8.77939 0.0319976 8.65753 0.0827663C8.53567 0.133535 8.42507 0.207929 8.33211 0.301658L0.622107 8.19166C0.435544 8.37973 0.288202 8.60298 0.188636 8.84847C0.089069 9.09395 0.0392624 9.35677 0.0421076 9.62166V18.0017C0.0413327 18.5136 0.236881 19.0063 0.588482 19.3784C0.940083 19.7504 1.42097 19.9735 1.93211 20.0017H16.1521C16.6632 19.9735 17.1441 19.7504 17.4957 19.3784C17.8473 19.0063 18.0429 18.5136 18.0421 18.0017V9.62166C18.0429 9.08459 17.8349 8.56824 17.4621 8.18166ZM7.04211 18.0017V12.0017H11.0421V18.0017H7.04211ZM16.0421 18.0017H13.0421V11.0017C13.0421 10.7364 12.9368 10.4821 12.7492 10.2946C12.5617 10.107 12.3073 10.0017 12.0421 10.0017H6.04211C5.77689 10.0017 5.52254 10.107 5.335 10.2946C5.14746 10.4821 5.04211 10.7364 5.04211 11.0017V18.0017H2.04211V9.58166L9.04211 2.43166L16.0421 9.62166V18.0017Z" fill="#023D78"/>
</svg>
