<svg width="18" height="16" viewBox="0 0 18 16" fill="none" xmlns="http://www.w3.org/2000/svg">
<path d="M3.04199 2C3.30721 2 3.56156 1.89464 3.7491 1.70711C3.93664 1.51957 4.04199 1.26522 4.04199 1C4.04199 0.734784 3.93664 0.48043 3.7491 0.292893C3.56156 0.105357 3.30721 0 3.04199 0H1.04199C0.776776 0 0.522422 0.105357 0.334886 0.292893C0.147349 0.48043 0.0419922 0.734784 0.0419922 1V15C0.0419922 15.2652 0.147349 15.5196 0.334886 15.7071C0.522422 15.8946 0.776776 16 1.04199 16H3.04199C3.30721 16 3.56156 15.8946 3.7491 15.7071C3.93664 15.5196 4.04199 15.2652 4.04199 15C4.04199 14.7348 3.93664 14.4804 3.7491 14.2929C3.56156 14.1054 3.30721 14 3.04199 14H2.04199V2H3.04199ZM16.862 7.42L14.042 3.42C13.8891 3.20441 13.657 3.05814 13.3965 3.01317C13.136 2.9682 12.8684 3.02818 12.652 3.18C12.5438 3.25579 12.4518 3.35224 12.3811 3.46381C12.3104 3.57537 12.2626 3.69982 12.2402 3.82998C12.2179 3.96015 12.2216 4.09344 12.2511 4.22217C12.2806 4.3509 12.3353 4.47252 12.412 4.58L14.132 7H6.04199C5.77678 7 5.52242 7.10536 5.33489 7.29289C5.14735 7.48043 5.04199 7.73478 5.04199 8C5.04199 8.26522 5.14735 8.51957 5.33489 8.70711C5.52242 8.89464 5.77678 9 6.04199 9H14.042L12.242 11.4C12.1632 11.5051 12.1059 11.6246 12.0733 11.7518C12.0407 11.879 12.0335 12.0114 12.052 12.1414C12.0706 12.2714 12.1146 12.3965 12.1815 12.5095C12.2484 12.6225 12.3369 12.7212 12.442 12.8C12.6151 12.9298 12.8256 13 13.042 13C13.1972 13 13.3504 12.9639 13.4892 12.8944C13.6281 12.825 13.7488 12.7242 13.842 12.6L16.842 8.6C16.9701 8.43087 17.041 8.22539 17.0446 8.01326C17.0482 7.80114 16.9843 7.59338 16.862 7.42Z" fill="#023D78"/>
</svg>
