<svg width="17" height="17" viewBox="0 0 17 17" fill="none" xmlns="http://www.w3.org/2000/svg">
<path d="M4.04199 7.00037C4.73423 7.00037 5.41092 6.7951 5.98649 6.41052C6.56206 6.02593 7.01066 5.47931 7.27557 4.83977C7.54048 4.20022 7.60979 3.49649 7.47474 2.81756C7.33969 2.13862 7.00635 1.51498 6.51687 1.0255C6.02738 0.536017 5.40374 0.202674 4.72481 0.0676258C4.04588 -0.0674225 3.34214 0.00188917 2.7026 0.266796C2.06306 0.531703 1.51643 0.980306 1.13185 1.55588C0.747265 2.13145 0.541993 2.80814 0.541993 3.50037C0.541993 4.42863 0.910742 5.31887 1.56712 5.97525C2.2235 6.63162 3.11374 7.00037 4.04199 7.00037ZM4.04199 2.00037C4.33867 2.00037 4.62867 2.08835 4.87535 2.25317C5.12202 2.41799 5.31428 2.65226 5.42781 2.92635C5.54134 3.20044 5.57105 3.50204 5.51317 3.79301C5.45529 4.08398 5.31243 4.35126 5.10265 4.56103C4.89287 4.77081 4.6256 4.91367 4.33463 4.97155C4.04366 5.02943 3.74206 4.99972 3.46797 4.88619C3.19388 4.77266 2.95961 4.5804 2.79479 4.33373C2.62997 4.08706 2.54199 3.79705 2.54199 3.50037C2.54199 3.10255 2.70003 2.72102 2.98133 2.43971C3.26264 2.15841 3.64417 2.00037 4.04199 2.00037ZM12.042 10.0004C11.3498 10.0004 10.6731 10.2056 10.0975 10.5902C9.52192 10.9748 9.07332 11.5214 8.80841 12.161C8.54351 12.8005 8.4742 13.5043 8.60924 14.1832C8.74429 14.8621 9.07764 15.4858 9.56712 15.9752C10.0566 16.4647 10.6802 16.7981 11.3592 16.9331C12.0381 17.0682 12.7418 16.9989 13.3814 16.734C14.0209 16.469 14.5676 16.0204 14.9521 15.4449C15.3367 14.8693 15.542 14.1926 15.542 13.5004C15.542 12.5721 15.1732 11.6819 14.5169 11.0255C13.8605 10.3691 12.9703 10.0004 12.042 10.0004ZM12.042 15.0004C11.7453 15.0004 11.4553 14.9124 11.2086 14.7476C10.962 14.5828 10.7697 14.3485 10.6562 14.0744C10.5426 13.8003 10.5129 13.4987 10.5708 13.2077C10.6287 12.9168 10.7716 12.6495 10.9813 12.4397C11.1911 12.2299 11.4584 12.0871 11.7494 12.0292C12.0403 11.9713 12.3419 12.001 12.616 12.1146C12.8901 12.2281 13.1244 12.4203 13.2892 12.667C13.454 12.9137 13.542 13.2037 13.542 13.5004C13.542 13.8982 13.384 14.2797 13.1027 14.561C12.8213 14.8423 12.4398 15.0004 12.042 15.0004ZM15.782 0.260374C15.6993 0.177528 15.6011 0.1118 15.493 0.0669534C15.3849 0.0221072 15.269 -0.000976562 15.152 -0.000976562C15.035 -0.000976562 14.9191 0.0221072 14.811 0.0669534C14.7029 0.1118 14.6047 0.177528 14.522 0.260374L0.301993 14.4804C0.13699 14.6488 0.0437793 14.8746 0.0419932 15.1104C0.0417256 15.2866 0.093778 15.4589 0.191554 15.6055C0.28933 15.7521 0.428429 15.8664 0.591221 15.9339C0.754014 16.0014 0.933174 16.019 1.10599 15.9846C1.27882 15.9501 1.43752 15.8651 1.56199 15.7404L15.782 1.52037C15.8648 1.43771 15.9306 1.33951 15.9754 1.2314C16.0203 1.1233 16.0433 1.00741 16.0433 0.890374C16.0433 0.773337 16.0203 0.657449 15.9754 0.549345C15.9306 0.441241 15.8648 0.343043 15.782 0.260374Z" fill="#023D78"/>
</svg>
