<svg width="19" height="19" viewBox="0 0 19 19" fill="none" xmlns="http://www.w3.org/2000/svg">
<path d="M17.9571 16.6806L14.5571 13.2906C15.6541 11.8931 16.2493 10.1673 16.2471 8.39063C16.2471 6.80838 15.7779 5.26166 14.8988 3.94607C14.0198 2.63047 12.7704 1.60509 11.3085 0.999592C9.84673 0.394091 8.2382 0.235665 6.68635 0.544346C5.1345 0.853028 3.70904 1.61495 2.59022 2.73377C1.4714 3.85259 0.709473 5.27806 0.400792 6.82991C0.0921099 8.38175 0.250537 9.99029 0.856038 11.4521C1.46154 12.9139 2.48692 14.1633 3.80251 15.0424C5.1181 15.9214 6.66482 16.3906 8.24707 16.3906C10.0237 16.3928 11.7495 15.7976 13.1471 14.7006L16.5371 18.1006C16.63 18.1944 16.7406 18.2688 16.8625 18.3195C16.9844 18.3703 17.1151 18.3964 17.2471 18.3964C17.3791 18.3964 17.5098 18.3703 17.6317 18.3195C17.7535 18.2688 17.8641 18.1944 17.9571 18.1006C18.0508 18.0077 18.1252 17.8971 18.176 17.7752C18.2267 17.6533 18.2529 17.5226 18.2529 17.3906C18.2529 17.2586 18.2267 17.1279 18.176 17.0061C18.1252 16.8842 18.0508 16.7736 17.9571 16.6806ZM2.24707 8.39063C2.24707 7.20394 2.59897 6.0439 3.25826 5.05721C3.91754 4.07051 4.85462 3.30148 5.95097 2.84735C7.04733 2.39323 8.25373 2.27441 9.41762 2.50592C10.5815 2.73743 11.6506 3.30887 12.4897 4.14799C13.3288 4.9871 13.9003 6.0562 14.1318 7.22009C14.3633 8.38397 14.2445 9.59037 13.7904 10.6867C13.3362 11.7831 12.5672 12.7202 11.5805 13.3794C10.5938 14.0387 9.43376 14.3906 8.24707 14.3906C6.65578 14.3906 5.12965 13.7585 4.00443 12.6333C2.87922 11.5081 2.24707 9.98193 2.24707 8.39063Z" fill="#023D78"/>
</svg>
