<svg width="25" height="25" viewBox="0 0 25 25" fill="none" xmlns="http://www.w3.org/2000/svg">
<g clip-path="url(#clip0_988_45783)">
<path d="M4.04199 9.09492H17.042L15.442 10.2949C15.3369 10.3737 15.2484 10.4724 15.1815 10.5854C15.1146 10.6984 15.0706 10.8235 15.052 10.9535C15.0335 11.0835 15.0407 11.2159 15.0733 11.3431C15.1059 11.4703 15.1632 11.5899 15.242 11.6949C15.3351 11.8191 15.4559 11.9199 15.5948 11.9893C15.7336 12.0588 15.8867 12.0949 16.042 12.0949C16.2584 12.0949 16.4689 12.0247 16.642 11.8949L20.642 8.89492C20.7643 8.80159 20.8634 8.68131 20.9317 8.54342C20.9999 8.40553 21.0354 8.25376 21.0354 8.09992C21.0354 7.94607 20.9999 7.7943 20.9317 7.65641C20.8634 7.51853 20.7643 7.39824 20.642 7.30492L16.782 4.30492C16.5725 4.14181 16.3067 4.06861 16.0432 4.10143C15.7798 4.13425 15.5401 4.27039 15.377 4.47992C15.2139 4.68944 15.1407 4.95517 15.1735 5.21866C15.2063 5.48215 15.3425 5.72181 15.552 5.88492L17.122 7.09492H4.04199C3.77678 7.09492 3.52242 7.20027 3.33489 7.38781C3.14735 7.57535 3.04199 7.8297 3.04199 8.09492C3.04199 8.36013 3.14735 8.61449 3.33489 8.80202C3.52242 8.98956 3.77678 9.09492 4.04199 9.09492ZM20.042 16.0949H7.04199L8.64199 14.8949C8.85417 14.7358 8.99443 14.4989 9.03194 14.2363C9.06945 13.9738 9.00112 13.7071 8.84199 13.4949C8.68286 13.2827 8.44596 13.1425 8.18341 13.105C7.92086 13.0675 7.65417 13.1358 7.44199 13.2949L3.44199 16.2949C3.31969 16.3882 3.22056 16.5085 3.15233 16.6464C3.0841 16.7843 3.0486 16.9361 3.0486 17.0899C3.0486 17.2438 3.0841 17.3955 3.15233 17.5334C3.22056 17.6713 3.31969 17.7916 3.44199 17.8849L7.30199 20.8849C7.47654 21.0204 7.69104 21.0942 7.91199 21.0949C8.06471 21.0945 8.21532 21.0592 8.35226 20.9916C8.4892 20.924 8.60883 20.8259 8.70199 20.7049C8.86438 20.4964 8.93766 20.2322 8.9058 19.9698C8.87395 19.7075 8.73956 19.4685 8.53199 19.3049L6.96199 18.0949H20.042C20.3072 18.0949 20.5616 17.9896 20.7491 17.802C20.9366 17.6145 21.042 17.3601 21.042 17.0949C21.042 16.8297 20.9366 16.5753 20.7491 16.3878C20.5616 16.2003 20.3072 16.0949 20.042 16.0949Z" fill="#023D78"/>
</g>
<defs>
<clipPath id="clip0_988_45783">
<rect width="24" height="24" fill="white" transform="translate(0.0419922 0.0947266)"/>
</clipPath>
</defs>
</svg>
