<svg width="19" height="12" viewBox="0 0 19 12" fill="none" xmlns="http://www.w3.org/2000/svg">
<path d="M18.0418 1C18.0513 0.93032 18.0513 0.85968 18.0418 0.79C18.0331 0.731289 18.0163 0.674074 17.9918 0.62C17.9654 0.571127 17.9353 0.524327 17.9018 0.48C17.8638 0.416753 17.8166 0.359469 17.7618 0.31L17.6418 0.24C17.5841 0.196956 17.52 0.163215 17.4518 0.14H17.2518C17.1909 0.080995 17.1197 0.0335575 17.0418 0H12.0418C11.7766 0 11.5222 0.105357 11.3347 0.292893C11.1472 0.48043 11.0418 0.734784 11.0418 1C11.0418 1.26522 11.1472 1.51957 11.3347 1.70711C11.5222 1.89464 11.7766 2 12.0418 2H14.8718L10.8718 6.71L6.5518 4.14C6.34718 4.0183 6.10586 3.97359 5.87122 4.01392C5.63659 4.05425 5.42404 4.17696 5.2718 4.36L0.271799 10.36C0.187597 10.461 0.124157 10.5777 0.0851129 10.7033C0.0460684 10.8289 0.0321867 10.961 0.0442625 11.092C0.0563384 11.2229 0.0941347 11.3503 0.155487 11.4666C0.216839 11.5829 0.300541 11.6861 0.401799 11.77C0.581711 11.9191 0.808147 12.0005 1.0418 12C1.18871 12.0002 1.33387 11.9681 1.46695 11.9059C1.60004 11.8437 1.71778 11.7529 1.8118 11.64L6.2618 6.3L10.5318 8.86C10.7343 8.98013 10.9728 9.02493 11.2051 8.98651C11.4374 8.9481 11.6487 8.82893 11.8018 8.65L16.0418 3.7V6C16.0418 6.26522 16.1472 6.51957 16.3347 6.70711C16.5222 6.89464 16.7766 7 17.0418 7C17.307 7 17.5614 6.89464 17.7489 6.70711C17.9364 6.51957 18.0418 6.26522 18.0418 6V1Z" fill="#023D78"/>
</svg>
